VotoSerifGX-CondensedLightDisplay.ufo
<glyph name="nine" format="2">
  <advance width="336"/>
  <unicode hex="0039"/>
  <outline>
    <contour>
      <point x="146" y="-11" type="curve" smooth="yes"/>
      <point x="222" y="-11"/>
      <point x="291" y="67"/>
      <point x="291" y="355" type="curve" smooth="yes"/>
      <point x="291" y="653"/>
      <point x="235" y="724"/>
      <point x="162" y="724" type="curve" smooth="yes"/>
      <point x="79" y="724"/>
      <point x="38" y="645"/>
      <point x="38" y="500" type="curve" smooth="yes"/>
      <point x="38" y="326"/>
      <point x="85" y="280"/>
      <point x="150" y="280" type="curve" smooth="yes"/>
      <point x="224" y="280"/>
      <point x="247" y="323"/>
      <point x="263" y="362" type="curve"/>
      <point x="263" y="97"/>
      <point x="221" y="-1"/>
      <point x="149" y="-1" type="curve" smooth="yes"/>
      <point x="96" y="-1"/>
      <point x="75" y="38"/>
      <point x="70" y="80" type="curve"/>
      <point x="60" y="77"/>
      <point x="58" y="72"/>
      <point x="58" y="60" type="curve" smooth="yes"/>
      <point x="58" y="17"/>
      <point x="96" y="-11"/>
    </contour>
    <contour>
      <point x="153" y="290" type="curve" smooth="yes"/>
      <point x="87" y="290"/>
      <point x="66" y="336"/>
      <point x="66" y="495" type="curve" smooth="yes"/>
      <point x="66" y="643"/>
      <point x="97" y="714"/>
      <point x="151" y="714" type="curve" smooth="yes"/>
      <point x="222" y="714"/>
      <point x="263" y="612"/>
      <point x="263" y="383" type="curve"/>
      <point x="247" y="344"/>
      <point x="231" y="290"/>
    </contour>
  </outline>
</glyph>
<glyph name="N" format="2">
  <advance width="444"/>
  <unicode hex="004E"/>
  <anchor x="223" y="0" name="bottom"/>
  <anchor x="223" y="714" name="top"/>
  <anchor x="424" y="714" name="topright"/>
  <outline>
    <contour>
      <point x="27" y="0" type="line"/>
      <point x="169" y="0" type="line"/>
      <point x="169" y="10" type="line"/>
      <point x="150" y="10" type="line" smooth="yes"/>
      <point x="100" y="10"/>
      <point x="94" y="21"/>
      <point x="94" y="98" type="curve" smooth="yes"/>
      <point x="94" y="686" type="line"/>
      <point x="332" y="0" type="line"/>
      <point x="367" y="0" type="line"/>
      <point x="367" y="616" type="line" smooth="yes"/>
      <point x="367" y="693"/>
      <point x="373" y="704"/>
      <point x="423" y="704" type="curve" smooth="yes"/>
      <point x="426" y="704" type="line"/>
      <point x="426" y="714" type="line"/>
      <point x="282" y="714" type="line"/>
      <point x="282" y="704" type="line"/>
      <point x="301" y="704" type="line" smooth="yes"/>
      <point x="351" y="704"/>
      <point x="357" y="693"/>
      <point x="357" y="616" type="curve" smooth="yes"/>
      <point x="357" y="18" type="line"/>
      <point x="115" y="714" type="line"/>
      <point x="27" y="714" type="line"/>
      <point x="27" y="704" type="line"/>
      <point x="28" y="704" type="line" smooth="yes"/>
      <point x="78" y="704"/>
      <point x="84" y="693"/>
      <point x="84" y="616" type="curve" smooth="yes"/>
      <point x="84" y="98" type="line" smooth="yes"/>
      <point x="84" y="21"/>
      <point x="78" y="10"/>
      <point x="28" y="10" type="curve" smooth="yes"/>
      <point x="27" y="10" type="line"/>
    </contour>
  </outline>
</glyph>
<glyph name="Q" format="2">
  <advance width="426"/>
  <unicode hex="0051"/>
  <anchor x="213" y="-221" name="bottom"/>
  <anchor x="213" y="714" name="top"/>
  <anchor x="406" y="714" name="topright"/>
  <outline>
    <contour>
      <point x="327" y="-221" type="curve" smooth="yes"/>
      <point x="342" y="-221" type="line"/>
      <point x="342" y="-211" type="line"/>
      <point x="331" y="-211" type="line" smooth="yes"/>
      <point x="294" y="-211"/>
      <point x="250" y="-206"/>
      <point x="237" y="-8" type="curve"/>
      <point x="328" y="10"/>
      <point x="390" y="144"/>
      <point x="390" y="358" type="curve" smooth="yes"/>
      <point x="390" y="623"/>
      <point x="326" y="725"/>
      <point x="212" y="725" type="curve" smooth="yes"/>
      <point x="98" y="725"/>
      <point x="35" y="606"/>
      <point x="35" y="359" type="curve" smooth="yes"/>
      <point x="35" y="151"/>
      <point x="90" y="-8"/>
      <point x="208" y="-10" type="curve"/>
      <point x="216" y="-186"/>
      <point x="269" y="-221"/>
    </contour>
    <contour>
      <point x="211" y="0" type="curve" smooth="yes"/>
      <point x="114" y="0"/>
      <point x="63" y="144"/>
      <point x="63" y="358" type="curve" smooth="yes"/>
      <point x="63" y="601"/>
      <point x="111" y="715"/>
      <point x="212" y="715" type="curve" smooth="yes"/>
      <point x="323" y="715"/>
      <point x="362" y="590"/>
      <point x="362" y="358" type="curve" smooth="yes"/>
      <point x="362" y="134"/>
      <point x="305" y="0"/>
    </contour>
  </outline>
</glyph>
<glyph name="R" format="2">
  <advance width="367"/>
  <unicode hex="0052"/>
  <anchor x="184" y="0" name="bottom"/>
  <anchor x="184" y="714" name="top"/>
  <anchor x="347" y="714" name="topright"/>
  <outline>
    <contour>
      <point x="27" y="0" type="line"/>
      <point x="183" y="0" type="line"/>
      <point x="183" y="10" type="line"/>
      <point x="168" y="10" type="line" smooth="yes"/>
      <point x="118" y="10"/>
      <point x="112" y="21"/>
      <point x="112" y="98" type="curve" smooth="yes"/>
      <point x="112" y="316" type="line"/>
      <point x="190" y="316" type="line"/>
      <point x="274" y="95" type="line" smooth="yes"/>
      <point x="305" y="20"/>
      <point x="335" y="0"/>
      <point x="371" y="0" type="curve" smooth="yes"/>
      <point x="373" y="0" type="line"/>
      <point x="373" y="10" type="line"/>
      <point x="372" y="10" type="line" smooth="yes"/>
      <point x="348" y="10"/>
      <point x="334" y="21"/>
      <point x="302" y="98" type="curve" smooth="yes"/>
      <point x="215" y="325" type="line"/>
      <point x="293" y="356"/>
      <point x="308" y="423"/>
      <point x="308" y="525" type="curve" smooth="yes"/>
      <point x="308" y="639"/>
      <point x="268" y="714"/>
      <point x="165" y="714" type="curve" smooth="yes"/>
      <point x="27" y="714" type="line"/>
      <point x="27" y="704" type="line"/>
      <point x="28" y="704" type="line" smooth="yes"/>
      <point x="78" y="704"/>
      <point x="84" y="693"/>
      <point x="84" y="616" type="curve" smooth="yes"/>
      <point x="84" y="98" type="line" smooth="yes"/>
      <point x="84" y="21"/>
      <point x="78" y="10"/>
      <point x="28" y="10" type="curve" smooth="yes"/>
      <point x="27" y="10" type="line"/>
    </contour>
    <contour>
      <point x="112" y="326" type="line"/>
      <point x="112" y="704" type="line"/>
      <point x="167" y="704" type="line" smooth="yes"/>
      <point x="244" y="704"/>
      <point x="280" y="643"/>
      <point x="280" y="525" type="curve" smooth="yes"/>
      <point x="280" y="386"/>
      <point x="265" y="326"/>
      <point x="147" y="326" type="curve" smooth="yes"/>
    </contour>
  </outline>
</glyph>
<glyph name="i" format="2">
  <advance width="178"/>
  <unicode hex="0069"/>
  <anchor x="90" y="0" name="bottom"/>
  <anchor x="93" y="738" name="top"/>
  <anchor x="145" y="738" name="topright"/>
  <outline>
    <contour>
      <point x="16" y="0" type="line"/>
      <point x="171" y="0" type="line"/>
      <point x="171" y="10" type="line"/>
      <point x="170" y="10" type="line" smooth="yes"/>
      <point x="118" y="10"/>
      <point x="111" y="17"/>
      <point x="111" y="87" type="curve" smooth="yes"/>
      <point x="111" y="536" type="line"/>
      <point x="26" y="536" type="line"/>
      <point x="26" y="526" type="line"/>
      <point x="24" y="526" type="line" smooth="yes"/>
      <point x="81" y="526"/>
      <point x="83" y="515"/>
      <point x="83" y="446" type="curve" smooth="yes"/>
      <point x="83" y="87" type="line" smooth="yes"/>
      <point x="83" y="17"/>
      <point x="76" y="10"/>
      <point x="23" y="10" type="curve" smooth="yes"/>
      <point x="16" y="10" type="line"/>
    </contour>
    <contour>
      <point x="92" y="658" type="curve" smooth="yes"/>
      <point x="103" y="658"/>
      <point x="115" y="666"/>
      <point x="115" y="698" type="curve" smooth="yes"/>
      <point x="115" y="729"/>
      <point x="103" y="738"/>
      <point x="92" y="738" type="curve" smooth="yes"/>
      <point x="78" y="738"/>
      <point x="70" y="729"/>
      <point x="70" y="698" type="curve" smooth="yes"/>
      <point x="70" y="666"/>
      <point x="78" y="658"/>
    </contour>
  </outline>
</glyph>
<glyph name="t" format="2">
  <advance width="191"/>
  <unicode hex="0074"/>
  <anchor x="150" y="0" name="bottom"/>
  <anchor x="96" y="268" name="center"/>
  <anchor x="76" y="657" name="top"/>
  <anchor x="191" y="657" name="topright"/>
  <outline>
    <contour>
      <point x="144" y="-10" type="curve" smooth="yes"/>
      <point x="150" y="-10"/>
      <point x="165" y="-7"/>
      <point x="176" y="-5" type="curve"/>
      <point x="176" y="5" type="line"/>
      <point x="158" y="1"/>
      <point x="151" y="0"/>
      <point x="141" y="0" type="curve" smooth="yes"/>
      <point x="108" y="0"/>
      <point x="86" y="21"/>
      <point x="86" y="120" type="curve" smooth="yes"/>
      <point x="86" y="526" type="line"/>
      <point x="168" y="526" type="line"/>
      <point x="168" y="536" type="line"/>
      <point x="86" y="536" type="line"/>
      <point x="86" y="657" type="line"/>
      <point x="76" y="657" type="line"/>
      <point x="75" y="625"/>
      <point x="77" y="588"/>
      <point x="61" y="563" type="curve" smooth="yes"/>
      <point x="55" y="550"/>
      <point x="44" y="539"/>
      <point x="10" y="536" type="curve"/>
      <point x="10" y="526" type="line"/>
      <point x="58" y="526" type="line"/>
      <point x="58" y="141" type="line" smooth="yes"/>
      <point x="58" y="23"/>
      <point x="82" y="-10"/>
    </contour>
  </outline>
</glyph>
<glyph name="bar" format="2">
  <advance width="332"/>
  <unicode hex="007C"/>
  <outline>
    <contour>
      <point x="156" y="-240" type="line"/>
      <point x="176" y="-240" type="line"/>
      <point x="176" y="760" type="line"/>
      <point x="156" y="760" type="line"/>
    </contour>
  </outline>
</glyph>
<glyph name="cent" format="2">
  <advance width="332"/>
  <unicode hex="00A2"/>
  <outline>
    <contour>
      <point x="171" y="0" type="line"/>
      <point x="193" y="0" type="line"/>
      <point x="193" y="92" type="line"/>
      <point x="249" y="94"/>
      <point x="287" y="138"/>
      <point x="287" y="187" type="curve" smooth="yes"/>
      <point x="287" y="196"/>
      <point x="285" y="203"/>
      <point x="275" y="209" type="curve"/>
      <point x="269" y="156"/>
      <point x="240" y="103"/>
      <point x="193" y="102" type="curve"/>
      <point x="193" y="635" type="line"/>
      <point x="246" y="633"/>
      <point x="255" y="608"/>
      <point x="255" y="508" type="curve"/>
      <point x="263" y="507"/>
      <point x="285" y="509"/>
      <point x="285" y="552" type="curve" smooth="yes"/>
      <point x="285" y="593"/>
      <point x="258" y="643"/>
      <point x="193" y="645" type="curve"/>
      <point x="193" y="714" type="line"/>
      <point x="171" y="714" type="line"/>
      <point x="171" y="643" type="line"/>
      <point x="106" y="633"/>
      <point x="70" y="562"/>
      <point x="70" y="373" type="curve" smooth="yes"/>
      <point x="70" y="163"/>
      <point x="107" y="112"/>
      <point x="171" y="95" type="curve"/>
    </contour>
    <contour>
      <point x="171" y="105" type="line"/>
      <point x="109" y="125"/>
      <point x="98" y="192"/>
      <point x="98" y="371" type="curve" smooth="yes"/>
      <point x="98" y="578"/>
      <point x="134" y="621"/>
      <point x="171" y="633" type="curve"/>
    </contour>
  </outline>
</glyph>
<glyph name="periodcentered" format="2">
  <advance width="132"/>
  <unicode hex="00B7"/>
  <outline>
    <contour>
      <point x="70" y="315" type="curve" smooth="yes"/>
      <point x="84" y="315"/>
      <point x="96" y="325"/>
      <point x="96" y="358" type="curve" smooth="yes"/>
      <point x="96" y="388"/>
      <point x="84" y="399"/>
      <point x="70" y="399" type="curve" smooth="yes"/>
      <point x="50" y="399"/>
      <point x="38" y="388"/>
      <point x="38" y="358" type="curve" smooth="yes"/>
      <point x="38" y="325"/>
      <point x="50" y="315"/>
    </contour>
  </outline>
</glyph>
<glyph name="guillemotright" format="2">
  <advance width="289"/>
  <unicode hex="00BB"/>
  <outline>
    <contour>
      <point x="124" y="90" type="line"/>
      <point x="136" y="90" type="line"/>
      <point x="237" y="266" type="line"/>
      <point x="237" y="274" type="line"/>
      <point x="136" y="450" type="line"/>
      <point x="124" y="450" type="line"/>
      <point x="203" y="270" type="line"/>
    </contour>
    <contour>
      <point x="38" y="90" type="line"/>
      <point x="48" y="90" type="line"/>
      <point x="151" y="266" type="line"/>
      <point x="151" y="274" type="line"/>
      <point x="48" y="450" type="line"/>
      <point x="38" y="450" type="line"/>
      <point x="117" y="270" type="line"/>
    </contour>
  </outline>
</glyph>
<glyph name="OE" format="2">
  <advance width="550"/>
  <unicode hex="0152"/>
  <anchor x="275" y="0" name="bottom"/>
  <anchor x="275" y="714" name="top"/>
  <outline>
    <contour>
      <point x="212" y="-12" type="curve" smooth="yes"/>
      <point x="231" y="-12"/>
      <point x="250" y="-9"/>
      <point x="274" y="0" type="curve"/>
      <point x="517" y="0" type="line"/>
      <point x="519" y="165" type="line"/>
      <point x="509" y="165" type="line"/>
      <point x="506" y="87" type="line" smooth="yes"/>
      <point x="503" y="21"/>
      <point x="508" y="10"/>
      <point x="431" y="10" type="curve" smooth="yes"/>
      <point x="297" y="10" type="line"/>
      <point x="301" y="370" type="line"/>
      <point x="454" y="370" type="line"/>
      <point x="454" y="380" type="line"/>
      <point x="301" y="380" type="line"/>
      <point x="301" y="704" type="line"/>
      <point x="408" y="704" type="line" smooth="yes"/>
      <point x="486" y="704"/>
      <point x="487" y="696"/>
      <point x="490" y="597" type="curve" smooth="yes"/>
      <point x="490" y="549" type="line"/>
      <point x="500" y="549" type="line"/>
      <point x="496" y="714" type="line"/>
      <point x="271" y="714" type="line"/>
      <point x="257" y="722"/>
      <point x="242" y="727"/>
      <point x="213" y="727" type="curve" smooth="yes"/>
      <point x="93" y="727"/>
      <point x="35" y="599"/>
      <point x="35" y="359" type="curve" smooth="yes"/>
      <point x="35" y="145"/>
      <point x="92" y="-12"/>
    </contour>
    <contour>
      <point x="212" y="-2" type="curve" smooth="yes"/>
      <point x="114" y="-2"/>
      <point x="63" y="145"/>
      <point x="63" y="358" type="curve" smooth="yes"/>
      <point x="63" y="590"/>
      <point x="104" y="717"/>
      <point x="213" y="717" type="curve" smooth="yes"/>
      <point x="241" y="717"/>
      <point x="259" y="710"/>
      <point x="272" y="701" type="curve"/>
      <point x="272" y="12" type="line"/>
      <point x="255" y="4"/>
      <point x="234" y="-2"/>
    </contour>
  </outline>
</glyph>
<glyph name="uni0184" format="2">
  <advance width="315"/>
  <unicode hex="0184"/>
  <anchor x="158" y="0" name="bottom"/>
  <anchor x="158" y="714" name="top"/>
  <outline>
    <contour>
      <point x="177" y="-10" type="curve" smooth="yes"/>
      <point x="239" y="-10"/>
      <point x="279" y="59"/>
      <point x="279" y="167" type="curve" smooth="yes"/>
      <point x="279" y="301"/>
      <point x="229" y="385"/>
      <point x="97" y="385" type="curve" smooth="yes"/>
      <point x="93" y="385" type="line"/>
      <point x="93" y="617" type="line" smooth="yes"/>
      <point x="93" y="693"/>
      <point x="100" y="704"/>
      <point x="147" y="704" type="curve" smooth="yes"/>
      <point x="184" y="704" type="line"/>
      <point x="184" y="714" type="line"/>
      <point x="8" y="714" type="line"/>
      <point x="8" y="704" type="line"/>
      <point x="8" y="704" type="line" smooth="yes"/>
      <point x="60" y="704"/>
      <point x="65" y="693"/>
      <point x="65" y="617" type="curve" smooth="yes"/>
      <point x="65" y="177" type="line" smooth="yes"/>
      <point x="65" y="44"/>
      <point x="112" y="-10"/>
    </contour>
    <contour>
      <point x="174" y="0" type="curve" smooth="yes"/>
      <point x="129" y="0"/>
      <point x="93" y="52"/>
      <point x="93" y="187" type="curve" smooth="yes"/>
      <point x="93" y="375" type="line"/>
      <point x="101" y="375" type="line" smooth="yes"/>
      <point x="213" y="375"/>
      <point x="251" y="300"/>
      <point x="251" y="167" type="curve" smooth="yes"/>
      <point x="251" y="51"/>
      <point x="217" y="0"/>
    </contour>
  </outline>
</glyph>
<glyph name="uni0186" format="2">
  <advance width="325"/>
  <unicode hex="0186"/>
  <anchor x="163" y="0" name="bottom"/>
  <anchor x="163" y="714" name="top"/>
  <outline>
    <contour>
      <point x="134" y="-10" type="curve" smooth="yes"/>
      <point x="234" y="-10"/>
      <point x="286" y="133"/>
      <point x="286" y="376" type="curve" smooth="yes"/>
      <point x="286" y="576"/>
      <point x="257" y="724"/>
      <point x="139" y="724" type="curve" smooth="yes"/>
      <point x="73" y="724"/>
      <point x="33" y="672"/>
      <point x="33" y="593" type="curve" smooth="yes"/>
      <point x="33" y="563"/>
      <point x="44" y="538"/>
      <point x="65" y="541" type="curve"/>
      <point x="52" y="657"/>
      <point x="71" y="714"/>
      <point x="139" y="714" type="curve" smooth="yes"/>
      <point x="246" y="714"/>
      <point x="258" y="559"/>
      <point x="258" y="379" type="curve" smooth="yes"/>
      <point x="258" y="146"/>
      <point x="227" y="0"/>
      <point x="130" y="0" type="curve" smooth="yes"/>
      <point x="110" y="0"/>
      <point x="78" y="36"/>
      <point x="55" y="89" type="curve"/>
      <point x="42" y="81"/>
      <point x="44" y="76"/>
      <point x="44" y="74" type="curve" smooth="yes"/>
      <point x="44" y="42"/>
      <point x="91" y="-10"/>
    </contour>
  </outline>
</glyph>
<glyph name="uni0187" format="2">
  <advance width="345"/>
  <unicode hex="0187"/>
  <anchor x="173" y="0" name="bottom"/>
  <anchor x="173" y="714" name="top"/>
  <outline>
    <contour>
      <point x="214" y="-10" type="curve" smooth="yes"/>
      <point x="290" y="-10"/>
      <point x="325" y="45"/>
      <point x="325" y="82" type="curve" smooth="yes"/>
      <point x="325" y="97"/>
      <point x="319" y="105"/>
      <point x="307" y="111" type="curve"/>
      <point x="305" y="42"/>
      <point x="275" y="0"/>
      <point x="220" y="0" type="curve" smooth="yes"/>
      <point x="102" y="0"/>
      <point x="63" y="159"/>
      <point x="63" y="358" type="curve" smooth="yes"/>
      <point x="63" y="559"/>
      <point x="114" y="714"/>
      <point x="223" y="714" type="curve" smooth="yes"/>
      <point x="301" y="714"/>
      <point x="312" y="653"/>
      <point x="312" y="565" type="curve"/>
      <point x="319" y="563"/>
      <point x="328" y="579"/>
      <point x="328" y="617" type="curve" smooth="yes"/>
      <point x="328" y="786" type="line" smooth="yes"/>
      <point x="328" y="801"/>
      <point x="339" y="809"/>
      <point x="362" y="809" type="curve" smooth="yes"/>
      <point x="383" y="809"/>
      <point x="396" y="793"/>
      <point x="388" y="766" type="curve"/>
      <point x="395" y="764"/>
      <point x="401" y="769"/>
      <point x="401" y="787" type="curve" smooth="yes"/>
      <point x="401" y="820"/>
      <point x="392" y="837"/>
      <point x="361" y="837" type="curve" smooth="yes"/>
      <point x="341" y="837"/>
      <point x="318" y="831"/>
      <point x="318" y="782" type="curve" smooth="yes"/>
      <point x="318" y="680" type="line"/>
      <point x="280" y="715"/>
      <point x="257" y="724"/>
      <point x="221" y="724" type="curve" smooth="yes"/>
      <point x="106" y="724"/>
      <point x="35" y="580"/>
      <point x="35" y="358" type="curve" smooth="yes"/>
      <point x="35" y="141"/>
      <point x="97" y="-10"/>
    </contour>
  </outline>
</glyph>
<glyph name="uni0194" format="2">
  <advance width="393"/>
  <unicode hex="0194"/>
  <anchor x="196" y="-240" name="bottom"/>
  <anchor x="196" y="714" name="top"/>
  <outline>
    <contour>
      <point x="191" y="-240" type="curve" smooth="yes"/>
      <point x="242" y="-240"/>
      <point x="253" y="-179"/>
      <point x="253" y="-112" type="curve" smooth="yes"/>
      <point x="253" y="-57"/>
      <point x="257" y="-49"/>
      <point x="205" y="155" type="curve"/>
      <point x="328" y="616" type="line" smooth="yes"/>
      <point x="353" y="701"/>
      <point x="347" y="704"/>
      <point x="393" y="704" type="curve" smooth="yes"/>
      <point x="404" y="704" type="line"/>
      <point x="404" y="714" type="line"/>
      <point x="246" y="714" type="line"/>
      <point x="246" y="704" type="line"/>
      <point x="275" y="704" type="line" smooth="yes"/>
      <point x="331" y="704"/>
      <point x="337" y="700"/>
      <point x="337" y="685" type="curve" smooth="yes"/>
      <point x="337" y="668"/>
      <point x="316" y="615"/>
      <point x="311" y="594" type="curve" smooth="yes"/>
      <point x="201" y="175" type="line"/>
      <point x="114" y="571" type="line" smooth="yes"/>
      <point x="102" y="616"/>
      <point x="95" y="653"/>
      <point x="95" y="681" type="curve" smooth="yes"/>
      <point x="95" y="693"/>
      <point x="103" y="704"/>
      <point x="161" y="704" type="curve" smooth="yes"/>
      <point x="143" y="704" type="line"/>
      <point x="143" y="714" type="line"/>
      <point x="0" y="714" type="line"/>
      <point x="0" y="704" type="line"/>
      <point x="0" y="704" type="line" smooth="yes"/>
      <point x="43" y="704"/>
      <point x="52" y="693"/>
      <point x="61" y="654" type="curve" smooth="yes"/>
      <point x="187" y="122" type="line"/>
      <point x="155" y="3"/>
      <point x="144" y="-65"/>
      <point x="144" y="-130" type="curve" smooth="yes"/>
      <point x="144" y="-194"/>
      <point x="168" y="-240"/>
    </contour>
    <contour>
      <point x="189" y="-230" type="curve" smooth="yes"/>
      <point x="178" y="-230"/>
      <point x="154" y="-192"/>
      <point x="154" y="-130" type="curve" smooth="yes"/>
      <point x="154" y="-75"/>
      <point x="160" y="-24"/>
      <point x="193" y="100" type="curve"/>
      <point x="242" y="-76"/>
      <point x="228" y="-58"/>
      <point x="228" y="-125" type="curve" smooth="yes"/>
      <point x="228" y="-201"/>
      <point x="212" y="-230"/>
    </contour>
  </outline>
</glyph>
<glyph name="uni0195" format="2">
  <advance width="526"/>
  <unicode hex="0195"/>
  <anchor x="263" y="0" name="bottom"/>
  <anchor x="263" y="536" name="top"/>
  <outline>
    <contour>
      <point x="355" y="-10" type="curve" smooth="yes"/>
      <point x="454" y="-10"/>
      <point x="464" y="67"/>
      <point x="464" y="188" type="curve" smooth="yes"/>
      <point x="464" y="536" type="line"/>
      <point x="383" y="536" type="line"/>
      <point x="383" y="526" type="line"/>
      <point x="360" y="526" type="line" smooth="yes"/>
      <point x="445" y="526"/>
      <point x="436" y="519"/>
      <point x="436" y="425" type="curve" smooth="yes"/>
      <point x="436" y="172" type="line" smooth="yes"/>
      <point x="436" y="40"/>
      <point x="418" y="0"/>
      <point x="355" y="0" type="curve" smooth="yes"/>
      <point x="317" y="0"/>
      <point x="278" y="10"/>
      <point x="278" y="167" type="curve" smooth="yes"/>
      <point x="278" y="365" type="line" smooth="yes"/>
      <point x="278" y="477"/>
      <point x="240" y="542"/>
      <point x="182" y="542" type="curve" smooth="yes"/>
      <point x="142" y="542"/>
      <point x="113" y="511"/>
      <point x="97" y="450" type="curve"/>
      <point x="95" y="450" type="line"/>
      <point x="97" y="462"/>
      <point x="96" y="495"/>
      <point x="96" y="504" type="curve" smooth="yes"/>
      <point x="96" y="760" type="line"/>
      <point x="12" y="760" type="line"/>
      <point x="12" y="750" type="line"/>
      <point x="16" y="750" type="line" smooth="yes"/>
      <point x="62" y="750"/>
      <point x="68" y="738"/>
      <point x="68" y="675" type="curve" smooth="yes"/>
      <point x="68" y="87" type="line" smooth="yes"/>
      <point x="68" y="17"/>
      <point x="61" y="10"/>
      <point x="5" y="10" type="curve" smooth="yes"/>
      <point x="9" y="10" type="line"/>
      <point x="9" y="0" type="line"/>
      <point x="150" y="0" type="line"/>
      <point x="150" y="10" type="line"/>
      <point x="157" y="10" type="line" smooth="yes"/>
      <point x="103" y="10"/>
      <point x="96" y="17"/>
      <point x="96" y="87" type="curve" smooth="yes"/>
      <point x="96" y="332" type="line" smooth="yes"/>
      <point x="96" y="468"/>
      <point x="118" y="527"/>
      <point x="172" y="527" type="curve" smooth="yes"/>
      <point x="234" y="527"/>
      <point x="250" y="468"/>
      <point x="250" y="367" type="curve" smooth="yes"/>
      <point x="250" y="184" type="line" smooth="yes"/>
      <point x="250" y="33"/>
      <point x="286" y="-10"/>
    </contour>
  </outline>
</glyph>
<glyph name="Ohorn" format="2">
  <advance width="438"/>
  <unicode hex="01A0"/>
  <anchor x="220" y="0" name="bottom"/>
  <anchor x="220" y="714" name="top"/>
  <outline>
    <contour>
      <point x="211" y="-10" type="curve" smooth="yes"/>
      <point x="310" y="-10"/>
      <point x="390" y="118"/>
      <point x="390" y="358" type="curve" smooth="yes"/>
      <point x="390" y="453"/>
      <point x="382" y="528"/>
      <point x="365" y="584" type="curve"/>
      <point x="411" y="615"/>
      <point x="434" y="662"/>
      <point x="434" y="714" type="curve" smooth="yes"/>
      <point x="434" y="759"/>
      <point x="421" y="770"/>
      <point x="403" y="770" type="curve" smooth="yes"/>
      <point x="385" y="770"/>
      <point x="374" y="755"/>
      <point x="374" y="730" type="curve" smooth="yes"/>
      <point x="374" y="694"/>
      <point x="394" y="713"/>
      <point x="394" y="662" type="curve" smooth="yes"/>
      <point x="394" y="640"/>
      <point x="391" y="616"/>
      <point x="363" y="594" type="curve"/>
      <point x="334" y="687"/>
      <point x="281" y="725"/>
      <point x="212" y="725" type="curve" smooth="yes"/>
      <point x="92" y="725"/>
      <point x="35" y="599"/>
      <point x="35" y="359" type="curve" smooth="yes"/>
      <point x="35" y="145"/>
      <point x="91" y="-10"/>
    </contour>
    <contour>
      <point x="211" y="0" type="curve" smooth="yes"/>
      <point x="114" y="0"/>
      <point x="63" y="145"/>
      <point x="63" y="358" type="curve" smooth="yes"/>
      <point x="63" y="590"/>
      <point x="104" y="715"/>
      <point x="212" y="715" type="curve" smooth="yes"/>
      <point x="323" y="715"/>
      <point x="362" y="590"/>
      <point x="362" y="358" type="curve" smooth="yes"/>
      <point x="362" y="132"/>
      <point x="304" y="0"/>
    </contour>
  </outline>
</glyph>
<glyph name="uni01A2" format="2">
  <advance width="623"/>
  <unicode hex="01A2"/>
  <anchor x="312" y="0" name="bottom"/>
  <anchor x="312" y="714" name="top"/>
  <outline>
    <contour>
      <point x="471" y="-240" type="line"/>
      <point x="620" y="-240" type="line"/>
      <point x="620" y="-230" type="line"/>
      <point x="624" y="-230" type="line" smooth="yes"/>
      <point x="563" y="-230"/>
      <point x="559" y="-217"/>
      <point x="559" y="-133" type="curve" smooth="yes"/>
      <point x="559" y="558" type="line" smooth="yes"/>
      <point x="559" y="650"/>
      <point x="526" y="724"/>
      <point x="464" y="724" type="curve" smooth="yes"/>
      <point x="399" y="724"/>
      <point x="366" y="653"/>
      <point x="354" y="558" type="curve"/>
      <point x="330" y="658"/>
      <point x="290" y="725"/>
      <point x="212" y="725" type="curve" smooth="yes"/>
      <point x="70" y="725"/>
      <point x="35" y="570"/>
      <point x="35" y="359" type="curve" smooth="yes"/>
      <point x="35" y="142"/>
      <point x="89" y="-10"/>
      <point x="203" y="-10" type="curve" smooth="yes"/>
      <point x="311" y="-10"/>
      <point x="372" y="142"/>
      <point x="373" y="365" type="curve" smooth="yes"/>
      <point x="374" y="486" type="line" smooth="yes"/>
      <point x="374" y="654"/>
      <point x="411" y="714"/>
      <point x="466" y="714" type="curve" smooth="yes"/>
      <point x="521" y="714"/>
      <point x="531" y="648"/>
      <point x="531" y="563" type="curve" smooth="yes"/>
      <point x="531" y="-133" type="line" smooth="yes"/>
      <point x="531" y="-217"/>
      <point x="527" y="-230"/>
      <point x="461" y="-230" type="curve" smooth="yes"/>
      <point x="471" y="-230" type="line"/>
    </contour>
    <contour>
      <point x="203" y="0" type="curve" smooth="yes"/>
      <point x="115" y="0"/>
      <point x="63" y="135"/>
      <point x="63" y="358" type="curve" smooth="yes"/>
      <point x="63" y="578"/>
      <point x="93" y="715"/>
      <point x="210" y="715" type="curve" smooth="yes"/>
      <point x="293" y="715"/>
      <point x="345" y="625"/>
      <point x="345" y="418" type="curve" smooth="yes"/>
      <point x="345" y="391" type="line" smooth="yes"/>
      <point x="345" y="130"/>
      <point x="294" y="0"/>
    </contour>
  </outline>
</glyph>
<glyph name="uni01A4" format="2">
  <advance width="371"/>
  <unicode hex="01A4"/>
  <anchor x="186" y="0" name="bottom"/>
  <anchor x="186" y="714" name="top"/>
  <outline>
    <contour>
      <point x="51" y="0" type="line"/>
      <point x="199" y="0" type="line"/>
      <point x="199" y="10" type="line"/>
      <point x="191" y="10" type="line" smooth="yes"/>
      <point x="141" y="10"/>
      <point x="135" y="21"/>
      <point x="135" y="98" type="curve" smooth="yes"/>
      <point x="135" y="284" type="line"/>
      <point x="185" y="284" type="line" smooth="yes"/>
      <point x="305" y="284"/>
      <point x="339" y="410"/>
      <point x="339" y="509" type="curve" smooth="yes"/>
      <point x="339" y="652"/>
      <point x="290" y="714"/>
      <point x="187" y="714" type="curve" smooth="yes"/>
      <point x="65" y="714" type="line" smooth="yes"/>
      <point x="29" y="714"/>
      <point x="4" y="680"/>
      <point x="4" y="641" type="curve" smooth="yes"/>
      <point x="4" y="611"/>
      <point x="18" y="597"/>
      <point x="36" y="597" type="curve" smooth="yes"/>
      <point x="42" y="597"/>
      <point x="45" y="600"/>
      <point x="48" y="605" type="curve"/>
      <point x="34" y="613"/>
      <point x="32" y="617"/>
      <point x="28" y="641" type="curve" smooth="yes"/>
      <point x="23" y="674"/>
      <point x="42" y="704"/>
      <point x="67" y="704" type="curve" smooth="yes"/>
      <point x="97" y="704"/>
      <point x="107" y="680"/>
      <point x="107" y="588" type="curve" smooth="yes"/>
      <point x="107" y="100" type="line" smooth="yes"/>
      <point x="107" y="21"/>
      <point x="101" y="10"/>
      <point x="51" y="10" type="curve" smooth="yes"/>
      <point x="51" y="10" type="line"/>
    </contour>
    <contour>
      <point x="135" y="294" type="line"/>
      <point x="135" y="704" type="line"/>
      <point x="187" y="704" type="line" smooth="yes"/>
      <point x="279" y="704"/>
      <point x="311" y="647"/>
      <point x="311" y="509" type="curve" smooth="yes"/>
      <point x="311" y="418"/>
      <point x="287" y="294"/>
      <point x="190" y="294" type="curve" smooth="yes"/>
    </contour>
  </outline>
</glyph>
<glyph name="Uhorn" format="2">
  <advance width="443"/>
  <unicode hex="01AF"/>
  <anchor x="221" y="0" name="bottom"/>
  <anchor x="221" y="714" name="top"/>
  <outline>
    <contour>
      <point x="206" y="-10" type="curve" smooth="yes"/>
      <point x="312" y="-10"/>
      <point x="346" y="65"/>
      <point x="346" y="188" type="curve" smooth="yes"/>
      <point x="346" y="576" type="line"/>
      <point x="405" y="602"/>
      <point x="441" y="649"/>
      <point x="441" y="714" type="curve" smooth="yes"/>
      <point x="441" y="759"/>
      <point x="428" y="770"/>
      <point x="410" y="770" type="curve" smooth="yes"/>
      <point x="392" y="770"/>
      <point x="381" y="755"/>
      <point x="381" y="730" type="curve" smooth="yes"/>
      <point x="381" y="694"/>
      <point x="401" y="713"/>
      <point x="401" y="662" type="curve" smooth="yes"/>
      <point x="401" y="632"/>
      <point x="391" y="606"/>
      <point x="346" y="586" type="curve"/>
      <point x="346" y="714" type="line"/>
      <point x="251" y="714" type="line"/>
      <point x="251" y="704" type="line"/>
      <point x="279" y="704" type="line" smooth="yes"/>
      <point x="330" y="704"/>
      <point x="336" y="693"/>
      <point x="336" y="618" type="curve" smooth="yes"/>
      <point x="336" y="194" type="line" smooth="yes"/>
      <point x="336" y="94"/>
      <point x="326" y="5"/>
      <point x="207" y="5" type="curve" smooth="yes"/>
      <point x="139" y="5"/>
      <point x="93" y="58"/>
      <point x="93" y="210" type="curve" smooth="yes"/>
      <point x="93" y="617" type="line" smooth="yes"/>
      <point x="93" y="695"/>
      <point x="101" y="704"/>
      <point x="150" y="704" type="curve" smooth="yes"/>
      <point x="159" y="704" type="line"/>
      <point x="159" y="714" type="line"/>
      <point x="8" y="714" type="line"/>
      <point x="8" y="704" type="line"/>
      <point x="10" y="704" type="line" smooth="yes"/>
      <point x="58" y="704"/>
      <point x="65" y="693"/>
      <point x="65" y="622" type="curve" smooth="yes"/>
      <point x="65" y="214" type="line" smooth="yes"/>
      <point x="65" y="53"/>
      <point x="120" y="-10"/>
    </contour>
  </outline>
</glyph>
<glyph name="uni01B6" format="2">
  <advance width="299"/>
  <unicode hex="01B6"/>
  <anchor x="146" y="0" name="bottom"/>
  <anchor x="146" y="536" name="top"/>
  <outline>
    <contour>
      <point x="37" y="0" type="line"/>
      <point x="234" y="0" type="line"/>
      <point x="239" y="138" type="line"/>
      <point x="229" y="138" type="line"/>
      <point x="227" y="85" type="line" smooth="yes"/>
      <point x="225" y="29"/>
      <point x="218" y="15"/>
      <point x="166" y="15" type="curve" smooth="yes"/>
      <point x="60" y="15" type="line"/>
      <point x="150" y="268" type="line"/>
      <point x="230" y="268" type="line"/>
      <point x="230" y="278" type="line"/>
      <point x="154" y="278" type="line"/>
      <point x="235" y="507" type="line"/>
      <point x="235" y="536" type="line"/>
      <point x="42" y="536" type="line"/>
      <point x="34" y="420" type="line"/>
      <point x="44" y="420" type="line"/>
      <point x="46" y="452" type="line" smooth="yes"/>
      <point x="49" y="507"/>
      <point x="57" y="521"/>
      <point x="109" y="521" type="curve" smooth="yes"/>
      <point x="213" y="521" type="line"/>
      <point x="124" y="278" type="line"/>
      <point x="48" y="278" type="line"/>
      <point x="48" y="268" type="line"/>
      <point x="121" y="268" type="line"/>
      <point x="37" y="29" type="line"/>
    </contour>
  </outline>
</glyph>
<glyph name="uni01F7" format="2">
  <advance width="399"/>
  <unicode hex="01F7"/>
  <anchor x="200" y="-240" name="bottom"/>
  <anchor x="200" y="714" name="top"/>
  <outline>
    <contour>
      <point x="23" y="-240" type="line"/>
      <point x="159" y="-240" type="line"/>
      <point x="159" y="-230" type="line"/>
      <point x="179" y="-230" type="line" smooth="yes"/>
      <point x="111" y="-230"/>
      <point x="105" y="-226"/>
      <point x="105" y="-153" type="curve" smooth="yes"/>
      <point x="107" y="-21" type="line"/>
      <point x="249" y="30"/>
      <point x="379" y="255"/>
      <point x="379" y="507" type="curve" smooth="yes"/>
      <point x="379" y="616"/>
      <point x="335" y="724"/>
      <point x="228" y="724" type="curve" smooth="yes"/>
      <point x="160" y="724"/>
      <point x="130" y="684"/>
      <point x="109" y="626" type="curve"/>
      <point x="105" y="626" type="line"/>
      <point x="105" y="714" type="line"/>
      <point x="8" y="714" type="line"/>
      <point x="8" y="704" type="line"/>
      <point x="5" y="704" type="line" smooth="yes"/>
      <point x="84" y="704"/>
      <point x="77" y="701"/>
      <point x="77" y="638" type="curve" smooth="yes"/>
      <point x="77" y="-153" type="line" smooth="yes"/>
      <point x="77" y="-226"/>
      <point x="73" y="-230"/>
      <point x="3" y="-230" type="curve" smooth="yes"/>
      <point x="23" y="-230" type="line"/>
    </contour>
    <contour>
      <point x="105" y="-12" type="curve"/>
      <point x="105" y="524" type="line" smooth="yes"/>
      <point x="105" y="649"/>
      <point x="152" y="717"/>
      <point x="228" y="717" type="curve" smooth="yes"/>
      <point x="309" y="717"/>
      <point x="351" y="641"/>
      <point x="351" y="502" type="curve" smooth="yes"/>
      <point x="351" y="224"/>
      <point x="211" y="37"/>
    </contour>
  </outline>
</glyph>
<glyph name="aringacute" format="2">
  <advance width="322"/>
  <unicode hex="01FB"/>
  <anchor x="161" y="0" name="bottom"/>
  <anchor x="161" y="961" name="top"/>
  <outline>
    <contour>
      <point x="122" y="-10" type="curve" smooth="yes"/>
      <point x="157" y="-10"/>
      <point x="198" y="15"/>
      <point x="220" y="110" type="curve"/>
      <point x="222" y="110" type="line"/>
      <point x="222" y="0" type="line"/>
      <point x="289" y="0" type="line"/>
      <point x="289" y="10" type="line"/>
      <point x="291" y="10" type="line" smooth="yes"/>
      <point x="263" y="10"/>
      <point x="248" y="15"/>
      <point x="248" y="88" type="curve" smooth="yes"/>
      <point x="248" y="353" type="line" smooth="yes"/>
      <point x="248" y="503"/>
      <point x="209" y="542"/>
      <point x="159" y="542" type="curve" smooth="yes"/>
      <point x="110" y="542"/>
      <point x="56" y="505"/>
      <point x="56" y="439" type="curve" smooth="yes"/>
      <point x="56" y="411"/>
      <point x="73" y="395"/>
      <point x="86" y="395" type="curve"/>
      <point x="86" y="503"/>
      <point x="116" y="532"/>
      <point x="154" y="532" type="curve" smooth="yes"/>
      <point x="187" y="532"/>
      <point x="220" y="508"/>
      <point x="220" y="371" type="curve" smooth="yes"/>
      <point x="220" y="303" type="line"/>
      <point x="170" y="300" type="line" smooth="yes"/>
      <point x="79" y="294"/>
      <point x="33" y="239"/>
      <point x="33" y="146" type="curve" smooth="yes"/>
      <point x="33" y="42"/>
      <point x="65" y="-10"/>
    </contour>
    <contour>
      <point x="126" y="5" type="curve" smooth="yes"/>
      <point x="82" y="5"/>
      <point x="61" y="54"/>
      <point x="61" y="147" type="curve" smooth="yes"/>
      <point x="61" y="242"/>
      <point x="99" y="285"/>
      <point x="173" y="290" type="curve" smooth="yes"/>
      <point x="220" y="293" type="line"/>
      <point x="220" y="205" type="line" smooth="yes"/>
      <point x="220" y="74"/>
      <point x="185" y="5"/>
    </contour>
    <contour>
      <point x="158" y="583" type="curve" smooth="yes"/>
      <point x="200" y="583"/>
      <point x="233" y="622"/>
      <point x="233" y="695" type="curve" smooth="yes"/>
      <point x="233" y="768"/>
      <point x="200" y="807"/>
      <point x="158" y="807" type="curve" smooth="yes"/>
      <point x="116" y="807"/>
      <point x="83" y="768"/>
      <point x="83" y="695" type="curve" smooth="yes"/>
      <point x="83" y="622"/>
      <point x="116" y="583"/>
    </contour>
    <contour>
      <point x="160" y="603" type="curve" smooth="yes"/>
      <point x="130" y="603"/>
      <point x="103" y="625"/>
      <point x="103" y="695" type="curve" smooth="yes"/>
      <point x="103" y="766"/>
      <point x="130" y="787"/>
      <point x="160" y="787" type="curve" smooth="yes"/>
      <point x="185" y="787"/>
      <point x="213" y="766"/>
      <point x="213" y="695" type="curve" smooth="yes"/>
      <point x="213" y="625"/>
      <point x="185" y="603"/>
    </contour>
    <contour>
      <point x="148" y="836" type="line"/>
      <point x="153" y="836" type="line"/>
      <point x="188" y="884"/>
      <point x="215" y="929"/>
      <point x="225" y="951" type="curve"/>
      <point x="225" y="961" type="line"/>
      <point x="195" y="961" type="line"/>
      <point x="186" y="933"/>
      <point x="173" y="900"/>
      <point x="148" y="849" type="curve"/>
    </contour>
  </outline>
</glyph>
<glyph name="uni0234" format="2">
  <advance width="220"/>
  <unicode hex="0234"/>
  <anchor x="109" y="0" name="bottom"/>
  <anchor x="109" y="760" name="top"/>
  <outline>
    <contour>
      <point x="24" y="5" type="line"/>
      <point x="23" y="36"/>
      <point x="31" y="115"/>
      <point x="67" y="160" type="curve"/>
      <point x="62" y="57"/>
      <point x="79" y="-10"/>
      <point x="119" y="-10" type="curve" smooth="yes"/>
      <point x="168" y="-10"/>
      <point x="195" y="37"/>
      <point x="195" y="108" type="curve" smooth="yes"/>
      <point x="195" y="171"/>
      <point x="173" y="204"/>
      <point x="136" y="204" type="curve" smooth="yes"/>
      <point x="124" y="204"/>
      <point x="108" y="200"/>
      <point x="95" y="194" type="curve"/>
      <point x="95" y="760" type="line"/>
      <point x="5" y="760" type="line"/>
      <point x="5" y="733" type="line"/>
      <point x="0" y="733" type="line" smooth="yes"/>
      <point x="60" y="733"/>
      <point x="67" y="729"/>
      <point x="67" y="655" type="curve" smooth="yes"/>
      <point x="67" y="201" type="line" smooth="yes"/>
      <point x="67" y="192"/>
      <point x="67" y="185"/>
      <point x="67" y="174" type="curve"/>
      <point x="44" y="152"/>
      <point x="25" y="86"/>
      <point x="14" y="8" type="curve"/>
    </contour>
    <contour>
      <point x="122" y="0" type="curve" smooth="yes"/>
      <point x="94" y="0"/>
      <point x="95" y="58"/>
      <point x="95" y="181" type="curve"/>
      <point x="108" y="190"/>
      <point x="124" y="194"/>
      <point x="136" y="194" type="curve" smooth="yes"/>
      <point x="168" y="194"/>
      <point x="187" y="165"/>
      <point x="187" y="109" type="curve" smooth="yes"/>
      <point x="187" y="44"/>
      <point x="164" y="0"/>
    </contour>
  </outline>
</glyph>
<glyph name="uni023B" format="2">
  <advance width="345"/>
  <unicode hex="023B"/>
  <anchor x="213" y="-28" name="bottom"/>
  <anchor x="213" y="714" name="top"/>
  <anchor x="325" y="714" name="topright"/>
  <outline>
    <contour>
      <point x="130" y="-28" type="line"/>
      <point x="140" y="-28" type="line"/>
      <point x="286" y="760" type="line"/>
      <point x="276" y="760" type="line"/>
    </contour>
    <component base="C"/>
  </outline>
</glyph>
<glyph name="uni023C" format="2">
  <advance width="280"/>
  <unicode hex="023C"/>
  <anchor x="141" y="-249" name="bottom"/>
  <anchor x="141" y="714" name="top"/>
  <anchor x="260" y="536" name="topright"/>
  <outline>
    <contour>
      <point x="79" y="-249" type="line"/>
      <point x="89" y="-249" type="line"/>
      <point x="215" y="714" type="line"/>
      <point x="205" y="714" type="line"/>
    </contour>
    <component base="c"/>
  </outline>
</glyph>
<glyph name="uni0251" format="2">
  <advance width="350"/>
  <unicode hex="0251"/>
  <anchor x="175" y="0" name="bottom"/>
  <anchor x="175" y="536" name="top"/>
  <outline>
    <contour>
      <point x="155" y="-10" type="curve" smooth="yes"/>
      <point x="235" y="-10"/>
      <point x="249" y="72"/>
      <point x="256" y="138" type="curve"/>
      <point x="256" y="138" type="line"/>
      <point x="256" y="-3"/>
      <point x="275" y="-11"/>
      <point x="311" y="-11" type="curve" smooth="yes"/>
      <point x="323" y="-11"/>
      <point x="333" y="-4"/>
      <point x="340" y="6" type="curve"/>
      <point x="340" y="17" type="line"/>
      <point x="333" y="9"/>
      <point x="326" y="1"/>
      <point x="311" y="1" type="curve" smooth="yes"/>
      <point x="292" y="1"/>
      <point x="282" y="31"/>
      <point x="282" y="69" type="curve" smooth="yes"/>
      <point x="282" y="536" type="line"/>
      <point x="262" y="536" type="line"/>
      <point x="255" y="414" type="line"/>
      <point x="253" y="414" type="line"/>
      <point x="239" y="515"/>
      <point x="199" y="548"/>
      <point x="161" y="548" type="curve" smooth="yes"/>
      <point x="80" y="548"/>
      <point x="38" y="470"/>
      <point x="38" y="262" type="curve" smooth="yes"/>
      <point x="38" y="65"/>
      <point x="80" y="-10"/>
    </contour>
    <contour>
      <point x="155" y="-3" type="curve" smooth="yes"/>
      <point x="80" y="-2"/>
      <point x="66" y="70"/>
      <point x="66" y="264" type="curve" smooth="yes"/>
      <point x="66" y="469"/>
      <point x="93" y="541"/>
      <point x="161" y="541" type="curve" smooth="yes"/>
      <point x="232" y="541"/>
      <point x="253" y="424"/>
      <point x="253" y="267" type="curve" smooth="yes"/>
      <point x="253" y="59"/>
      <point x="212" y="-5"/>
    </contour>
  </outline>
</glyph>
<glyph name="uni0262" format="2">
  <advance width="333"/>
  <unicode hex="0262"/>
  <anchor x="167" y="0" name="bottom"/>
  <anchor x="167" y="536" name="top"/>
  <outline>
    <contour>
      <point x="179" y="-12" type="curve" smooth="yes"/>
      <point x="200" y="-12"/>
      <point x="233" y="-9"/>
      <point x="263" y="21" type="curve"/>
      <point x="263" y="154" type="line" smooth="yes"/>
      <point x="263" y="246"/>
      <point x="263" y="250"/>
      <point x="333" y="250" type="curve" smooth="yes"/>
      <point x="315" y="250" type="line"/>
      <point x="315" y="260" type="line"/>
      <point x="178" y="260" type="line"/>
      <point x="178" y="250" type="line"/>
      <point x="160" y="250" type="line" smooth="yes"/>
      <point x="235" y="250"/>
      <point x="235" y="219"/>
      <point x="235" y="124" type="curve" smooth="yes"/>
      <point x="235" y="16" type="line"/>
      <point x="216" y="0"/>
      <point x="186" y="-2"/>
      <point x="178" y="-2" type="curve" smooth="yes"/>
      <point x="103" y="-2"/>
      <point x="65" y="71"/>
      <point x="65" y="270" type="curve" smooth="yes"/>
      <point x="65" y="419"/>
      <point x="82" y="532"/>
      <point x="171" y="532" type="curve" smooth="yes"/>
      <point x="216" y="532"/>
      <point x="236" y="504"/>
      <point x="235" y="393" type="curve"/>
      <point x="243" y="393"/>
      <point x="264" y="403"/>
      <point x="264" y="447" type="curve" smooth="yes"/>
      <point x="264" y="479"/>
      <point x="255" y="542"/>
      <point x="167" y="542" type="curve" smooth="yes"/>
      <point x="72" y="542"/>
      <point x="37" y="437"/>
      <point x="37" y="270" type="curve" smooth="yes"/>
      <point x="37" y="55"/>
      <point x="97" y="-12"/>
    </contour>
  </outline>
</glyph>
<glyph name="uni0264" format="2">
  <advance width="332"/>
  <unicode hex="0264"/>
  <anchor x="166" y="0" name="bottom"/>
  <anchor x="166" y="536" name="top"/>
  <outline>
    <contour>
      <point x="159" y="-14" type="curve" smooth="yes"/>
      <point x="193" y="-14"/>
      <point x="214" y="13"/>
      <point x="214" y="85" type="curve" smooth="yes"/>
      <point x="214" y="122"/>
      <point x="213" y="189"/>
      <point x="182" y="303" type="curve"/>
      <point x="227" y="423"/>
      <point x="295" y="519"/>
      <point x="323" y="519" type="curve" smooth="yes"/>
      <point x="330" y="519"/>
      <point x="321" y="503"/>
      <point x="321" y="490" type="curve"/>
      <point x="328" y="489"/>
      <point x="338" y="500"/>
      <point x="338" y="518" type="curve" smooth="yes"/>
      <point x="338" y="533"/>
      <point x="336" y="544"/>
      <point x="327" y="544" type="curve" smooth="yes"/>
      <point x="285" y="544"/>
      <point x="243" y="471"/>
      <point x="177" y="319" type="curve"/>
      <point x="107" y="560"/>
      <point x="63" y="544"/>
      <point x="32" y="544" type="curve" smooth="yes"/>
      <point x="5" y="544"/>
      <point x="-10" y="534"/>
      <point x="-10" y="514" type="curve" smooth="yes"/>
      <point x="-10" y="501"/>
      <point x="-5" y="495"/>
      <point x="2" y="495" type="curve"/>
      <point x="1" y="515"/>
      <point x="10" y="534"/>
      <point x="37" y="534" type="curve" smooth="yes"/>
      <point x="67" y="534"/>
      <point x="123" y="459"/>
      <point x="160" y="276" type="curve"/>
      <point x="119" y="161"/>
      <point x="106" y="105"/>
      <point x="106" y="64" type="curve" smooth="yes"/>
      <point x="106" y="16"/>
      <point x="125" y="-14"/>
    </contour>
    <contour>
      <point x="153" y="-4" type="curve" smooth="yes"/>
      <point x="134" y="-4"/>
      <point x="116" y="22"/>
      <point x="116" y="71" type="curve" smooth="yes"/>
      <point x="116" y="114"/>
      <point x="130" y="158"/>
      <point x="164" y="257" type="curve"/>
      <point x="181" y="174"/>
      <point x="191" y="127"/>
      <point x="191" y="70" type="curve" smooth="yes"/>
      <point x="191" y="22"/>
      <point x="180" y="-4"/>
    </contour>
  </outline>
</glyph>
<glyph name="uni0268" format="2">
  <advance width="178"/>
  <unicode hex="0268"/>
  <anchor x="90" y="0" name="bottom"/>
  <anchor x="90" y="738" name="top"/>
  <outline>
    <contour>
      <point x="16" y="0" type="line"/>
      <point x="171" y="0" type="line"/>
      <point x="171" y="10" type="line"/>
      <point x="170" y="10" type="line" smooth="yes"/>
      <point x="118" y="10"/>
      <point x="111" y="17"/>
      <point x="111" y="87" type="curve" smooth="yes"/>
      <point x="111" y="286" type="line"/>
      <point x="172" y="286" type="line"/>
      <point x="172" y="296" type="line"/>
      <point x="111" y="296" type="line"/>
      <point x="111" y="536" type="line"/>
      <point x="26" y="536" type="line"/>
      <point x="26" y="526" type="line"/>
      <point x="24" y="526" type="line" smooth="yes"/>
      <point x="81" y="526"/>
      <point x="83" y="515"/>
      <point x="83" y="446" type="curve" smooth="yes"/>
      <point x="83" y="296" type="line"/>
      <point x="11" y="296" type="line"/>
      <point x="11" y="286" type="line"/>
      <point x="83" y="286" type="line"/>
      <point x="83" y="87" type="line" smooth="yes"/>
      <point x="83" y="17"/>
      <point x="76" y="10"/>
      <point x="23" y="10" type="curve" smooth="yes"/>
      <point x="16" y="10" type="line"/>
    </contour>
    <contour>
      <point x="92" y="658" type="curve" smooth="yes"/>
      <point x="108" y="658"/>
      <point x="114" y="673"/>
      <point x="114" y="698" type="curve" smooth="yes"/>
      <point x="114" y="724"/>
      <point x="108" y="738"/>
      <point x="92" y="738" type="curve" smooth="yes"/>
      <point x="77" y="738"/>
      <point x="72" y="724"/>
      <point x="72" y="698" type="curve" smooth="yes"/>
      <point x="72" y="673"/>
      <point x="77" y="658"/>
    </contour>
  </outline>
</glyph>
<glyph name="uni026E" format="2">
  <advance width="358"/>
  <unicode hex="026E"/>
  <anchor x="179" y="-241" name="bottom"/>
  <anchor x="179" y="760" name="top"/>
  <outline>
    <contour>
      <point x="178" y="-241" type="curve" smooth="yes"/>
      <point x="268" y="-241"/>
      <point x="325" y="-185"/>
      <point x="325" y="-2" type="curve" smooth="yes"/>
      <point x="325" y="159"/>
      <point x="270" y="212"/>
      <point x="151" y="209" type="curve"/>
      <point x="309" y="511" type="line"/>
      <point x="309" y="536" type="line"/>
      <point x="97" y="536" type="line"/>
      <point x="97" y="760" type="line"/>
      <point x="7" y="760" type="line"/>
      <point x="7" y="750" type="line"/>
      <point x="2" y="750" type="line" smooth="yes"/>
      <point x="62" y="750"/>
      <point x="69" y="746"/>
      <point x="69" y="672" type="curve" smooth="yes"/>
      <point x="69" y="84" type="line" smooth="yes"/>
      <point x="69" y="14"/>
      <point x="65" y="10"/>
      <point x="-8" y="10" type="curve" smooth="yes"/>
      <point x="7" y="10" type="line"/>
      <point x="7" y="0" type="line"/>
      <point x="161" y="0" type="line"/>
      <point x="161" y="10" type="line"/>
      <point x="174" y="10" type="line" smooth="yes"/>
      <point x="101" y="10"/>
      <point x="97" y="14"/>
      <point x="97" y="84" type="curve" smooth="yes"/>
      <point x="97" y="511" type="line"/>
      <point x="297" y="511" type="line"/>
      <point x="146" y="215" type="line"/>
      <point x="146" y="210" type="line"/>
      <point x="170" y="210" type="line" smooth="yes"/>
      <point x="267" y="210"/>
      <point x="297" y="155"/>
      <point x="297" y="-5" type="curve" smooth="yes"/>
      <point x="297" y="-201"/>
      <point x="250" y="-231"/>
      <point x="183" y="-231" type="curve" smooth="yes"/>
      <point x="107" y="-231"/>
      <point x="93" y="-177"/>
      <point x="95" y="-104" type="curve"/>
      <point x="81" y="-104"/>
      <point x="76" y="-126"/>
      <point x="76" y="-144" type="curve" smooth="yes"/>
      <point x="76" y="-188"/>
      <point x="103" y="-241"/>
    </contour>
  </outline>
</glyph>
<glyph name="uni027E" format="2">
  <advance width="243"/>
  <unicode hex="027E"/>
  <anchor x="122" y="0" name="bottom"/>
  <anchor x="122" y="536" name="top"/>
  <outline>
    <contour>
      <point x="26" y="0" type="line"/>
      <point x="155" y="0" type="line"/>
      <point x="155" y="10" type="line"/>
      <point x="170" y="10" type="line" smooth="yes"/>
      <point x="107" y="10"/>
      <point x="101" y="16"/>
      <point x="101" y="87" type="curve" smooth="yes"/>
      <point x="101" y="366" type="line" smooth="yes"/>
      <point x="101" y="471"/>
      <point x="121" y="533"/>
      <point x="174" y="533" type="curve" smooth="yes"/>
      <point x="226" y="533"/>
      <point x="211" y="489"/>
      <point x="211" y="450" type="curve"/>
      <point x="232" y="450"/>
      <point x="235" y="469"/>
      <point x="235" y="486" type="curve" smooth="yes"/>
      <point x="235" y="522"/>
      <point x="219" y="543"/>
      <point x="174" y="543" type="curve" smooth="yes"/>
      <point x="108" y="543"/>
      <point x="73" y="483"/>
      <point x="73" y="378" type="curve" smooth="yes"/>
      <point x="73" y="87" type="line" smooth="yes"/>
      <point x="73" y="16"/>
      <point x="69" y="10"/>
      <point x="7" y="10" type="curve" smooth="yes"/>
      <point x="26" y="10" type="line"/>
    </contour>
  </outline>
</glyph>
<glyph name="uni028F" format="2">
  <advance width="315"/>
  <unicode hex="028F"/>
  <anchor x="162" y="0" name="bottom"/>
  <anchor x="162" y="536" name="top"/>
  <outline>
    <contour>
      <point x="70" y="0" type="line"/>
      <point x="239" y="0" type="line"/>
      <point x="239" y="10" type="line"/>
      <point x="226" y="10" type="line" smooth="yes"/>
      <point x="164" y="10"/>
      <point x="172" y="17"/>
      <point x="172" y="99" type="curve" smooth="yes"/>
      <point x="172" y="306" type="line"/>
      <point x="233" y="467" type="line" smooth="yes"/>
      <point x="257" y="524"/>
      <point x="265" y="526"/>
      <point x="305" y="526" type="curve" smooth="yes"/>
      <point x="319" y="526" type="line"/>
      <point x="319" y="536" type="line"/>
      <point x="173" y="536" type="line"/>
      <point x="173" y="526" type="line"/>
      <point x="201" y="526" type="line" smooth="yes"/>
      <point x="241" y="526"/>
      <point x="242" y="520"/>
      <point x="242" y="512" type="curve" smooth="yes"/>
      <point x="242" y="509"/>
      <point x="236" y="496"/>
      <point x="222" y="462" type="curve" smooth="yes"/>
      <point x="162" y="313" type="line"/>
      <point x="101" y="473" type="line" smooth="yes"/>
      <point x="91" y="502"/>
      <point x="83" y="514"/>
      <point x="83" y="517" type="curve" smooth="yes"/>
      <point x="83" y="521"/>
      <point x="78" y="526"/>
      <point x="117" y="526" type="curve" smooth="yes"/>
      <point x="121" y="526" type="line"/>
      <point x="121" y="536" type="line"/>
      <point x="3" y="536" type="line"/>
      <point x="3" y="526" type="line"/>
      <point x="9" y="526" type="line" smooth="yes"/>
      <point x="42" y="526"/>
      <point x="52" y="524"/>
      <point x="80" y="464" type="curve" smooth="yes"/>
      <point x="144" y="287" type="line"/>
      <point x="144" y="102" type="line" smooth="yes"/>
      <point x="144" y="18"/>
      <point x="155" y="10"/>
      <point x="87" y="10" type="curve" smooth="yes"/>
      <point x="70" y="10" type="line"/>
    </contour>
  </outline>
</glyph>
<glyph name="uni0294" format="2">
  <advance width="252"/>
  <unicode hex="0294"/>
  <anchor x="126" y="0" name="bottom"/>
  <anchor x="126" y="757" name="top"/>
  <outline>
    <contour>
      <point x="47" y="0" type="line"/>
      <point x="158" y="0" type="line"/>
      <point x="158" y="10" type="line"/>
      <point x="168" y="10" type="line" smooth="yes"/>
      <point x="120" y="10"/>
      <point x="115" y="14"/>
      <point x="115" y="83" type="curve" smooth="yes"/>
      <point x="115" y="338" type="line"/>
      <point x="170" y="417"/>
      <point x="214" y="497"/>
      <point x="214" y="605" type="curve" smooth="yes"/>
      <point x="214" y="721"/>
      <point x="160" y="757"/>
      <point x="107" y="757" type="curve" smooth="yes"/>
      <point x="35" y="757"/>
      <point x="12" y="707"/>
      <point x="12" y="662" type="curve" smooth="yes"/>
      <point x="12" y="638"/>
      <point x="21" y="613"/>
      <point x="40" y="614" type="curve"/>
      <point x="38" y="687"/>
      <point x="35" y="747"/>
      <point x="105" y="747" type="curve" smooth="yes"/>
      <point x="157" y="747"/>
      <point x="186" y="714"/>
      <point x="186" y="607" type="curve" smooth="yes"/>
      <point x="186" y="504"/>
      <point x="149" y="428"/>
      <point x="87" y="343" type="curve"/>
      <point x="87" y="83" type="line" smooth="yes"/>
      <point x="87" y="17"/>
      <point x="83" y="10"/>
      <point x="40" y="10" type="curve" smooth="yes"/>
      <point x="47" y="10" type="line"/>
    </contour>
  </outline>
</glyph>
<glyph name="eopenclosed" format="2">
  <advance width="314"/>
  <unicode hex="029A"/>
  <anchor x="159" y="0" name="bottom"/>
  <anchor x="159" y="536" name="top"/>
  <outline>
    <contour>
      <point x="139" y="-10" type="curve" smooth="yes"/>
      <point x="233" y="-10"/>
      <point x="278" y="79"/>
      <point x="278" y="267" type="curve" smooth="yes"/>
      <point x="278" y="454"/>
      <point x="230" y="542"/>
      <point x="151" y="542" type="curve" smooth="yes"/>
      <point x="83" y="542"/>
      <point x="50" y="486"/>
      <point x="50" y="397" type="curve" smooth="yes"/>
      <point x="50" y="339"/>
      <point x="69" y="300"/>
      <point x="111" y="285" type="curve"/>
      <point x="111" y="283" type="line"/>
      <point x="56" y="264"/>
      <point x="38" y="232"/>
      <point x="38" y="149" type="curve" smooth="yes"/>
      <point x="38" y="47"/>
      <point x="81" y="-10"/>
    </contour>
    <contour>
      <point x="137" y="0" type="curve" smooth="yes"/>
      <point x="88" y="0"/>
      <point x="66" y="63"/>
      <point x="66" y="149" type="curve" smooth="yes"/>
      <point x="66" y="225"/>
      <point x="92" y="281"/>
      <point x="145" y="281" type="curve" smooth="yes"/>
      <point x="199" y="281" type="line"/>
      <point x="199" y="284" type="line"/>
      <point x="146" y="284" type="line" smooth="yes"/>
      <point x="102" y="284"/>
      <point x="78" y="355"/>
      <point x="78" y="397" type="curve" smooth="yes"/>
      <point x="78" y="489"/>
      <point x="104" y="532"/>
      <point x="151" y="532" type="curve" smooth="yes"/>
      <point x="206" y="532"/>
      <point x="249" y="456"/>
      <point x="250" y="267" type="curve" smooth="yes"/>
      <point x="250" y="105"/>
      <point x="226" y="0"/>
    </contour>
  </outline>
</glyph>
<glyph name="uni02AA" format="2">
  <advance width="365"/>
  <unicode hex="02AA"/>
  <anchor x="183" y="0" name="bottom"/>
  <anchor x="183" y="760" name="top"/>
  <outline>
    <contour>
      <point x="228" y="-10" type="curve" smooth="yes"/>
      <point x="299" y="-10"/>
      <point x="336" y="37"/>
      <point x="336" y="124" type="curve" smooth="yes"/>
      <point x="336" y="231"/>
      <point x="266" y="263"/>
      <point x="254" y="283" type="curve" smooth="yes"/>
      <point x="197" y="332"/>
      <point x="182" y="363"/>
      <point x="182" y="429" type="curve" smooth="yes"/>
      <point x="182" y="483"/>
      <point x="198" y="530"/>
      <point x="248" y="530" type="curve" smooth="yes"/>
      <point x="295" y="530"/>
      <point x="307" y="483"/>
      <point x="307" y="405" type="curve"/>
      <point x="319" y="405"/>
      <point x="333" y="422"/>
      <point x="333" y="452" type="curve" smooth="yes"/>
      <point x="333" y="514"/>
      <point x="286" y="540"/>
      <point x="244" y="540" type="curve" smooth="yes"/>
      <point x="186" y="540"/>
      <point x="154" y="493"/>
      <point x="154" y="415" type="curve" smooth="yes"/>
      <point x="154" y="332"/>
      <point x="205" y="300"/>
      <point x="232" y="265" type="curve" smooth="yes"/>
      <point x="293" y="210"/>
      <point x="308" y="183"/>
      <point x="308" y="120" type="curve" smooth="yes"/>
      <point x="308" y="29"/>
      <point x="277" y="0"/>
      <point x="228" y="0" type="curve" smooth="yes"/>
      <point x="184" y="0"/>
      <point x="158" y="44"/>
      <point x="158" y="140" type="curve"/>
      <point x="149" y="140"/>
      <point x="132" y="125"/>
      <point x="132" y="95" type="curve" smooth="yes"/>
      <point x="132" y="66"/>
      <point x="145" y="31"/>
      <point x="171" y="10" type="curve"/>
      <point x="174" y="10" type="line" smooth="yes"/>
      <point x="101" y="10"/>
      <point x="97" y="14"/>
      <point x="97" y="84" type="curve" smooth="yes"/>
      <point x="97" y="760" type="line"/>
      <point x="7" y="760" type="line"/>
      <point x="7" y="750" type="line"/>
      <point x="2" y="750" type="line" smooth="yes"/>
      <point x="62" y="750"/>
      <point x="69" y="746"/>
      <point x="69" y="672" type="curve" smooth="yes"/>
      <point x="69" y="84" type="line" smooth="yes"/>
      <point x="69" y="14"/>
      <point x="65" y="10"/>
      <point x="-8" y="10" type="curve" smooth="yes"/>
      <point x="7" y="10" type="line"/>
      <point x="7" y="0" type="line"/>
      <point x="185" y="0" type="line"/>
      <point x="198" y="-6"/>
      <point x="211" y="-10"/>
    </contour>
  </outline>
</glyph>
<glyph name="uni02AD" format="2">
  <advance width="310"/>
  <unicode hex="02AD"/>
  <anchor x="156" y="0" name="bottom"/>
  <anchor x="156" y="714" name="top"/>
  <outline>
    <contour>
      <point x="32" y="522" type="line"/>
      <point x="42" y="522" type="line"/>
      <point x="42" y="590" type="line" smooth="yes"/>
      <point x="42" y="690"/>
      <point x="42" y="689"/>
      <point x="117" y="689" type="curve" smooth="yes"/>
      <point x="209" y="689" type="line" smooth="yes"/>
      <point x="267" y="689"/>
      <point x="268" y="685"/>
      <point x="268" y="590" type="curve" smooth="yes"/>
      <point x="268" y="522" type="line"/>
      <point x="278" y="522" type="line"/>
      <point x="278" y="714" type="line"/>
      <point x="32" y="714" type="line"/>
    </contour>
    <contour>
      <point x="32" y="0" type="line"/>
      <point x="42" y="0" type="line"/>
      <point x="42" y="69" type="line" smooth="yes"/>
      <point x="42" y="169"/>
      <point x="42" y="167"/>
      <point x="117" y="167" type="curve" smooth="yes"/>
      <point x="209" y="167" type="line" smooth="yes"/>
      <point x="267" y="167"/>
      <point x="268" y="164"/>
      <point x="268" y="69" type="curve" smooth="yes"/>
      <point x="268" y="0" type="line"/>
      <point x="278" y="0" type="line"/>
      <point x="278" y="192" type="line"/>
      <point x="32" y="192" type="line"/>
    </contour>
  </outline>
</glyph>
<glyph name="breve" format="2">
  <advance width="230"/>
  <unicode hex="02D8"/>
  <outline>
    <contour>
      <point x="117" y="606" type="curve" smooth="yes"/>
      <point x="175" y="606"/>
      <point x="190" y="642"/>
      <point x="190" y="720" type="curve"/>
      <point x="180" y="720" type="line"/>
      <point x="175" y="649"/>
      <point x="161" y="634"/>
      <point x="117" y="634" type="curve" smooth="yes"/>
      <point x="72" y="634"/>
      <point x="55" y="652"/>
      <point x="53" y="720" type="curve"/>
      <point x="40" y="720" type="line"/>
      <point x="40" y="640"/>
      <point x="57" y="606"/>
    </contour>
  </outline>
</glyph>
<glyph name="uni02F8" format="2">
  <advance width="181"/>
  <unicode hex="02F8"/>
  <outline>
    <contour>
      <point x="84" y="634" type="curve" smooth="yes"/>
      <point x="105" y="634"/>
      <point x="113" y="648"/>
      <point x="113" y="672" type="curve" smooth="yes"/>
      <point x="113" y="697"/>
      <point x="105" y="712"/>
      <point x="84" y="712" type="curve" smooth="yes"/>
      <point x="59" y="712"/>
      <point x="53" y="697"/>
      <point x="53" y="672" type="curve" smooth="yes"/>
      <point x="53" y="648"/>
      <point x="59" y="634"/>
    </contour>
    <contour>
      <point x="84" y="223" type="curve" smooth="yes"/>
      <point x="105" y="223"/>
      <point x="113" y="237"/>
      <point x="113" y="262" type="curve" smooth="yes"/>
      <point x="113" y="287"/>
      <point x="105" y="301"/>
      <point x="84" y="301" type="curve" smooth="yes"/>
      <point x="59" y="301"/>
      <point x="53" y="287"/>
      <point x="53" y="262" type="curve" smooth="yes"/>
      <point x="53" y="237"/>
      <point x="59" y="223"/>
    </contour>
  </outline>
</glyph>
<glyph name="hookretroflexbelowcomb" format="2">
  <unicode hex="0322"/>
  <anchor x="28" y="0" name="_bottom"/>
  <anchor x="28" y="-194" name="bottom"/>
  <outline>
    <contour>
      <point x="31" y="-194" type="curve" smooth="yes"/>
      <point x="60" y="-194"/>
      <point x="78" y="-178"/>
      <point x="78" y="-149" type="curve" smooth="yes"/>
      <point x="78" y="-131"/>
      <point x="72" y="-119"/>
      <point x="62" y="-117" type="curve"/>
      <point x="66" y="-144"/>
      <point x="56" y="-167"/>
      <point x="29" y="-167" type="curve" smooth="yes"/>
      <point x="-2" y="-167"/>
      <point x="-12" y="-149"/>
      <point x="-12" y="-104" type="curve" smooth="yes"/>
      <point x="-12" y="40" type="line"/>
      <point x="-22" y="40" type="line"/>
      <point x="-22" y="-104" type="line" smooth="yes"/>
      <point x="-22" y="-159"/>
      <point x="-10" y="-194"/>
    </contour>
  </outline>
</glyph>
<glyph name="brevebelowcomb" format="2">
  <unicode hex="032E"/>
  <anchor x="-2" y="0" name="_bottom"/>
  <anchor x="-2" y="-191" name="bottom"/>
  <outline>
    <contour>
      <point x="1" y="-191" type="curve" smooth="yes"/>
      <point x="58" y="-191"/>
      <point x="73" y="-155"/>
      <point x="73" y="-77" type="curve"/>
      <point x="64" y="-77" type="line"/>
      <point x="63" y="-150"/>
      <point x="48" y="-165"/>
      <point x="1" y="-165" type="curve" smooth="yes"/>
      <point x="-55" y="-165"/>
      <point x="-66" y="-147"/>
      <point x="-66" y="-77" type="curve"/>
      <point x="-77" y="-77" type="line"/>
      <point x="-76" y="-157"/>
      <point x="-60" y="-191"/>
    </contour>
  </outline>
</glyph>
<glyph name="tildeverticalcomb" format="2">
  <unicode hex="033E"/>
  <anchor x="6" y="536" name="_top"/>
  <anchor x="6" y="822" name="top"/>
  <outline>
    <contour>
      <point x="-26" y="612" type="line"/>
      <point x="-5" y="619"/>
      <point x="49" y="616"/>
      <point x="49" y="667" type="curve" smooth="yes"/>
      <point x="49" y="716"/>
      <point x="-9" y="733"/>
      <point x="-9" y="775" type="curve" smooth="yes"/>
      <point x="-9" y="803"/>
      <point x="14" y="810"/>
      <point x="37" y="812" type="curve"/>
      <point x="37" y="822" type="line"/>
      <point x="16" y="818"/>
      <point x="-39" y="817"/>
      <point x="-39" y="770" type="curve" smooth="yes"/>
      <point x="-39" y="724"/>
      <point x="21" y="710"/>
      <point x="21" y="661" type="curve" smooth="yes"/>
      <point x="21" y="627"/>
      <point x="-7" y="625"/>
      <point x="-26" y="622" type="curve"/>
    </contour>
  </outline>
</glyph>
<glyph name="nottildeabovecomb" format="2">
  <unicode hex="034A"/>
  <anchor x="-2" y="536" name="_top"/>
  <anchor x="-2" y="733" name="top"/>
  <outline>
    <contour>
      <point x="-22" y="575" type="line"/>
      <point x="-4" y="633" type="line"/>
      <point x="12" y="614"/>
      <point x="26" y="605"/>
      <point x="46" y="605" type="curve" smooth="yes"/>
      <point x="87" y="605"/>
      <point x="94" y="655"/>
      <point x="98" y="693" type="curve"/>
      <point x="88" y="693" type="line"/>
      <point x="87" y="674"/>
      <point x="83" y="635"/>
      <point x="47" y="635" type="curve" smooth="yes"/>
      <point x="25" y="635"/>
      <point x="23" y="642"/>
      <point x="5" y="659" type="curve"/>
      <point x="28" y="728" type="line"/>
      <point x="19" y="731" type="line"/>
      <point x="-2" y="668" type="line"/>
      <point x="-23" y="691"/>
      <point x="-36" y="700"/>
      <point x="-54" y="700" type="curve" smooth="yes"/>
      <point x="-97" y="700"/>
      <point x="-98" y="643"/>
      <point x="-100" y="616" type="curve"/>
      <point x="-90" y="616" type="line"/>
      <point x="-91" y="638"/>
      <point x="-85" y="671"/>
      <point x="-56" y="671" type="curve" smooth="yes"/>
      <point x="-36" y="671"/>
      <point x="-34" y="663"/>
      <point x="-11" y="640" type="curve"/>
      <point x="-31" y="578" type="line"/>
    </contour>
  </outline>
</glyph>
<glyph name="heta" format="2">
  <advance width="316"/>
  <unicode hex="0371"/>
  <anchor x="159" y="0" name="bottom"/>
  <anchor x="159" y="536" name="top"/>
  <outline>
    <contour>
      <point x="80" y="0" type="line"/>
      <point x="108" y="0" type="line"/>
      <point x="108" y="270" type="line"/>
      <point x="258" y="270" type="line"/>
      <point x="258" y="280" type="line"/>
      <point x="108" y="280" type="line"/>
      <point x="108" y="536" type="line"/>
      <point x="6" y="536" type="line"/>
      <point x="6" y="526" type="line"/>
      <point x="5" y="526" type="line" smooth="yes"/>
      <point x="71" y="526"/>
      <point x="80" y="519"/>
      <point x="80" y="449" type="curve" smooth="yes"/>
    </contour>
  </outline>
</glyph>
<glyph name="pamphyliandigamma" format="2">
  <advance width="336"/>
  <unicode hex="0377"/>
  <anchor x="168" y="0" name="bottom"/>
  <anchor x="168" y="536" name="top"/>
  <outline>
    <contour>
      <point x="311" y="-11" type="curve" smooth="yes"/>
      <point x="324" y="-11"/>
      <point x="334" y="0"/>
      <point x="333" y="10" type="curve"/>
      <point x="270" y="12"/>
      <point x="267" y="52"/>
      <point x="267" y="214" type="curve" smooth="yes"/>
      <point x="267" y="303"/>
      <point x="294" y="450"/>
      <point x="312" y="536" type="curve"/>
      <point x="303" y="536" type="line"/>
      <point x="102" y="87" type="line"/>
      <point x="102" y="536" type="line"/>
      <point x="11" y="536" type="line"/>
      <point x="11" y="526" type="line"/>
      <point x="-8" y="526" type="line" smooth="yes"/>
      <point x="66" y="526"/>
      <point x="74" y="519"/>
      <point x="74" y="449" type="curve" smooth="yes"/>
      <point x="74" y="0" type="line"/>
      <point x="68" y="0" type="line"/>
      <point x="297" y="506" type="line"/>
      <point x="290" y="462"/>
      <point x="239" y="263"/>
      <point x="239" y="173" type="curve" smooth="yes"/>
      <point x="239" y="57"/>
      <point x="261" y="-11"/>
    </contour>
  </outline>
</glyph>
<glyph name="Omega" format="2">
  <advance width="427"/>
  <unicode hex="03A9"/>
  <anchor x="213" y="0" name="bottom"/>
  <anchor x="213" y="714" name="top"/>
  <anchor x="20" y="714" name="topleft"/>
  <outline>
    <contour>
      <point x="30" y="0" type="line"/>
      <point x="197" y="0" type="line"/>
      <point x="196" y="145" type="line"/>
      <point x="96" y="190"/>
      <point x="64" y="292"/>
      <point x="64" y="427" type="curve" smooth="yes"/>
      <point x="64" y="595"/>
      <point x="108" y="715"/>
      <point x="223" y="715" type="curve" smooth="yes"/>
      <point x="333" y="715"/>
      <point x="363" y="625"/>
      <point x="363" y="427" type="curve" smooth="yes"/>
      <point x="363" y="290"/>
      <point x="331" y="190"/>
      <point x="235" y="143" type="curve"/>
      <point x="232" y="0" type="line"/>
      <point x="400" y="0" type="line"/>
      <point x="405" y="138" type="line"/>
      <point x="395" y="138" type="line"/>
      <point x="392" y="89" type="line" smooth="yes"/>
      <point x="389" y="36"/>
      <point x="381" y="27"/>
      <point x="331" y="27" type="curve" smooth="yes"/>
      <point x="242" y="27" type="line"/>
      <point x="245" y="137" type="line"/>
      <point x="346" y="176"/>
      <point x="391" y="277"/>
      <point x="391" y="422" type="curve" smooth="yes"/>
      <point x="391" y="643"/>
      <point x="335" y="725"/>
      <point x="223" y="725" type="curve" smooth="yes"/>
      <point x="98" y="725"/>
      <point x="36" y="610"/>
      <point x="36" y="422" type="curve" smooth="yes"/>
      <point x="36" y="290"/>
      <point x="76" y="174"/>
      <point x="186" y="137" type="curve"/>
      <point x="186" y="30" type="line"/>
      <point x="108" y="30" type="line" smooth="yes"/>
      <point x="54" y="30"/>
      <point x="43" y="40"/>
      <point x="39" y="92" type="curve" smooth="yes"/>
      <point x="36" y="141" type="line"/>
      <point x="26" y="141" type="line"/>
    </contour>
  </outline>
</glyph>
<glyph name="delta" format="2">
  <advance width="331"/>
  <unicode hex="03B4"/>
  <anchor x="166" y="0" name="bottom"/>
  <anchor x="166" y="765" name="top"/>
  <outline>
    <contour>
      <point x="174" y="-10" type="curve" smooth="yes"/>
      <point x="257" y="-10"/>
      <point x="294" y="74"/>
      <point x="294" y="212" type="curve" smooth="yes"/>
      <point x="294" y="334"/>
      <point x="281" y="406"/>
      <point x="191" y="494" type="curve" smooth="yes"/>
      <point x="138" y="549"/>
      <point x="103" y="568"/>
      <point x="103" y="640" type="curve" smooth="yes"/>
      <point x="103" y="716"/>
      <point x="129" y="755"/>
      <point x="173" y="755" type="curve" smooth="yes"/>
      <point x="224" y="755"/>
      <point x="226" y="704"/>
      <point x="226" y="607" type="curve"/>
      <point x="250" y="607"/>
      <point x="258" y="631"/>
      <point x="258" y="661" type="curve" smooth="yes"/>
      <point x="258" y="714"/>
      <point x="227" y="765"/>
      <point x="169" y="765" type="curve" smooth="yes"/>
      <point x="116" y="765"/>
      <point x="75" y="715"/>
      <point x="75" y="637" type="curve" smooth="yes"/>
      <point x="75" y="572"/>
      <point x="107" y="531"/>
      <point x="164" y="478" type="curve"/>
      <point x="80" y="435"/>
      <point x="37" y="353"/>
      <point x="37" y="217" type="curve" smooth="yes"/>
      <point x="37" y="74"/>
      <point x="84" y="-10"/>
    </contour>
    <contour>
      <point x="172" y="0" type="curve" smooth="yes"/>
      <point x="99" y="0"/>
      <point x="65" y="82"/>
      <point x="65" y="206" type="curve" smooth="yes"/>
      <point x="65" y="347"/>
      <point x="75" y="425"/>
      <point x="171" y="473" type="curve"/>
      <point x="264" y="383"/>
      <point x="266" y="324"/>
      <point x="266" y="214" type="curve" smooth="yes"/>
      <point x="266" y="73"/>
      <point x="237" y="0"/>
    </contour>
  </outline>
</glyph>
<glyph name="iota" format="2">
  <advance width="170"/>
  <unicode hex="03B9"/>
  <anchor x="85" y="0" name="bottom"/>
  <anchor x="85" y="536" name="top"/>
  <outline>
    <contour>
      <point x="148" y="-10" type="curve" smooth="yes"/>
      <point x="162" y="-10"/>
      <point x="175" y="-5"/>
      <point x="176" y="-5" type="curve"/>
      <point x="176" y="4" type="line"/>
      <point x="162" y="1"/>
      <point x="161" y="0"/>
      <point x="144" y="0" type="curve" smooth="yes"/>
      <point x="123" y="0"/>
      <point x="94" y="29"/>
      <point x="94" y="84" type="curve" smooth="yes"/>
      <point x="94" y="536" type="line"/>
      <point x="66" y="536" type="line"/>
      <point x="66" y="122" type="line" smooth="yes"/>
      <point x="66" y="30"/>
      <point x="103" y="-10"/>
    </contour>
  </outline>
</glyph>
<glyph name="pi" format="2">
  <advance width="358"/>
  <unicode hex="03C0"/>
  <anchor x="179" y="0" name="bottom"/>
  <anchor x="179" y="536" name="top"/>
  <outline>
    <contour>
      <point x="292" y="-8" type="curve" smooth="yes"/>
      <point x="310" y="-8"/>
      <point x="327" y="6"/>
      <point x="326" y="11" type="curve"/>
      <point x="326" y="22" type="line"/>
      <point x="318" y="16"/>
      <point x="308" y="4"/>
      <point x="295" y="4" type="curve" smooth="yes"/>
      <point x="276" y="4"/>
      <point x="259" y="22"/>
      <point x="259" y="104" type="curve" smooth="yes"/>
      <point x="259" y="239"/>
      <point x="266" y="346"/>
      <point x="274" y="511" type="curve"/>
      <point x="334" y="511" type="line"/>
      <point x="334" y="536" type="line"/>
      <point x="77" y="536" type="line" smooth="yes"/>
      <point x="32" y="536"/>
      <point x="17" y="489"/>
      <point x="17" y="445" type="curve"/>
      <point x="28" y="445" type="line"/>
      <point x="24" y="474"/>
      <point x="35" y="511"/>
      <point x="89" y="511" type="curve" smooth="yes"/>
      <point x="109" y="511" type="line"/>
      <point x="82" y="146" type="line" smooth="yes"/>
      <point x="73" y="18"/>
      <point x="54" y="10"/>
      <point x="19" y="10" type="curve"/>
      <point x="19" y="0" type="line"/>
      <point x="23" y="0" type="line"/>
      <point x="75" y="0"/>
      <point x="108" y="30"/>
      <point x="113" y="186" type="curve" smooth="yes"/>
      <point x="120" y="511" type="line"/>
      <point x="263" y="511" type="line"/>
      <point x="242" y="220"/>
      <point x="235" y="170"/>
      <point x="235" y="122" type="curve" smooth="yes"/>
      <point x="235" y="29"/>
      <point x="255" y="-8"/>
    </contour>
  </outline>
</glyph>
<glyph name="uni03D6" format="2">
  <advance width="529"/>
  <unicode hex="03D6"/>
  <outline>
    <contour>
      <point x="183" y="-10" type="curve" smooth="yes"/>
      <point x="234" y="-10"/>
      <point x="264" y="44"/>
      <point x="268" y="76" type="curve"/>
      <point x="280" y="24"/>
      <point x="308" y="-10"/>
      <point x="350" y="-10" type="curve" smooth="yes"/>
      <point x="404" y="-10"/>
      <point x="454" y="71"/>
      <point x="454" y="240" type="curve" smooth="yes"/>
      <point x="454" y="353"/>
      <point x="439" y="443"/>
      <point x="413" y="506" type="curve"/>
      <point x="436" y="506" type="line" smooth="yes"/>
      <point x="481" y="506"/>
      <point x="505" y="538"/>
      <point x="505" y="626" type="curve"/>
      <point x="495" y="626" type="line"/>
      <point x="495" y="552"/>
      <point x="486" y="536"/>
      <point x="437" y="536" type="curve" smooth="yes"/>
      <point x="88" y="536" type="line" smooth="yes"/>
      <point x="44" y="536"/>
      <point x="21" y="484"/>
      <point x="21" y="408" type="curve"/>
      <point x="31" y="408" type="line"/>
      <point x="31" y="455"/>
      <point x="36" y="506"/>
      <point x="95" y="506" type="curve" smooth="yes"/>
      <point x="125" y="506" type="line"/>
      <point x="97" y="441"/>
      <point x="83" y="351"/>
      <point x="83" y="240" type="curve" smooth="yes"/>
      <point x="83" y="63"/>
      <point x="131" y="-10"/>
    </contour>
    <contour>
      <point x="182" y="0" type="curve" smooth="yes"/>
      <point x="142" y="0"/>
      <point x="111" y="67"/>
      <point x="111" y="239" type="curve" smooth="yes"/>
      <point x="111" y="335"/>
      <point x="105" y="443"/>
      <point x="137" y="506" type="curve"/>
      <point x="401" y="506" type="line"/>
      <point x="431" y="444"/>
      <point x="426" y="335"/>
      <point x="426" y="239" type="curve" smooth="yes"/>
      <point x="426" y="67"/>
      <point x="390" y="0"/>
      <point x="350" y="0" type="curve" smooth="yes"/>
      <point x="293" y="0"/>
      <point x="277" y="107"/>
      <point x="283" y="176" type="curve"/>
      <point x="286" y="225"/>
      <point x="290" y="260"/>
      <point x="290" y="268" type="curve" smooth="yes"/>
      <point x="290" y="301"/>
      <point x="281" y="317"/>
      <point x="269" y="317" type="curve" smooth="yes"/>
      <point x="256" y="317"/>
      <point x="247" y="302"/>
      <point x="247" y="268" type="curve" smooth="yes"/>
      <point x="247" y="260"/>
      <point x="250" y="223"/>
      <point x="254" y="176" type="curve"/>
      <point x="259" y="106"/>
      <point x="234" y="0"/>
    </contour>
  </outline>
</glyph>
<glyph name="afii10053" format="2">
  <advance width="345"/>
  <unicode hex="0404"/>
  <anchor x="173" y="0" name="bottom"/>
  <anchor x="173" y="714" name="top"/>
  <outline>
    <contour>
      <point x="209" y="-10" type="curve" smooth="yes"/>
      <point x="259" y="-10"/>
      <point x="325" y="37"/>
      <point x="325" y="86" type="curve" smooth="yes"/>
      <point x="325" y="98"/>
      <point x="319" y="106"/>
      <point x="306" y="111" type="curve"/>
      <point x="295" y="51"/>
      <point x="272" y="0"/>
      <point x="217" y="0" type="curve" smooth="yes"/>
      <point x="106" y="0"/>
      <point x="67" y="161"/>
      <point x="63" y="360" type="curve"/>
      <point x="261" y="360" type="line"/>
      <point x="261" y="370" type="line"/>
      <point x="63" y="370" type="line"/>
      <point x="69" y="541"/>
      <point x="93" y="714"/>
      <point x="226" y="714" type="curve" smooth="yes"/>
      <point x="280" y="714"/>
      <point x="302" y="662"/>
      <point x="302" y="571" type="curve"/>
      <point x="314" y="571"/>
      <point x="328" y="593"/>
      <point x="328" y="624" type="curve" smooth="yes"/>
      <point x="328" y="674"/>
      <point x="288" y="724"/>
      <point x="214" y="724" type="curve" smooth="yes"/>
      <point x="102" y="724"/>
      <point x="35" y="589"/>
      <point x="35" y="358" type="curve" smooth="yes"/>
      <point x="35" y="144"/>
      <point x="95" y="-10"/>
    </contour>
  </outline>
</glyph>
<glyph name="afii10018" format="2">
  <advance width="356"/>
  <unicode hex="0411"/>
  <anchor x="179" y="0" name="bottom"/>
  <anchor x="179" y="714" name="top"/>
  <outline>
    <contour>
      <point x="27" y="0" type="line"/>
      <point x="175" y="0" type="line" smooth="yes"/>
      <point x="290" y="0"/>
      <point x="316" y="80"/>
      <point x="316" y="194" type="curve" smooth="yes"/>
      <point x="316" y="328"/>
      <point x="269" y="385"/>
      <point x="136" y="385" type="curve" smooth="yes"/>
      <point x="112" y="385" type="line"/>
      <point x="112" y="707" type="line"/>
      <point x="226" y="707" type="line" smooth="yes"/>
      <point x="276" y="707"/>
      <point x="281" y="696"/>
      <point x="283" y="646" type="curve" smooth="yes"/>
      <point x="285" y="566" type="line"/>
      <point x="295" y="566" type="line"/>
      <point x="292" y="714" type="line"/>
      <point x="27" y="714" type="line"/>
      <point x="27" y="704" type="line"/>
      <point x="29" y="704" type="line" smooth="yes"/>
      <point x="77" y="704"/>
      <point x="84" y="693"/>
      <point x="84" y="617" type="curve" smooth="yes"/>
      <point x="84" y="98" type="line" smooth="yes"/>
      <point x="84" y="21"/>
      <point x="78" y="10"/>
      <point x="28" y="10" type="curve" smooth="yes"/>
      <point x="27" y="10" type="line"/>
    </contour>
    <contour>
      <point x="112" y="10" type="line"/>
      <point x="112" y="375" type="line"/>
      <point x="141" y="375" type="line" smooth="yes"/>
      <point x="252" y="375"/>
      <point x="288" y="326"/>
      <point x="288" y="194" type="curve" smooth="yes"/>
      <point x="288" y="85"/>
      <point x="271" y="10"/>
      <point x="171" y="10" type="curve" smooth="yes"/>
    </contour>
  </outline>
</glyph>
<glyph name="afii10069" format="2">
  <advance width="355"/>
  <unicode hex="0434"/>
  <anchor x="177" y="0" name="bottom"/>
  <anchor x="177" y="536" name="top"/>
  <outline>
    <contour>
      <point x="10" y="-210" type="line"/>
      <point x="20" y="-210" type="line"/>
      <point x="17" y="-204" type="line" smooth="yes"/>
      <point x="18" y="-30"/>
      <point x="42" y="0"/>
      <point x="163" y="0" type="curve" smooth="yes"/>
      <point x="203" y="0" type="line" smooth="yes"/>
      <point x="342" y="0"/>
      <point x="353" y="-41"/>
      <point x="355" y="-219" type="curve" smooth="yes"/>
      <point x="353" y="-210" type="line"/>
      <point x="363" y="-210" type="line"/>
      <point x="363" y="7" type="line"/>
      <point x="362" y="7" type="line" smooth="yes"/>
      <point x="293" y="7"/>
      <point x="288" y="7"/>
      <point x="288" y="91" type="curve" smooth="yes"/>
      <point x="288" y="449" type="line" smooth="yes"/>
      <point x="288" y="524"/>
      <point x="292" y="526"/>
      <point x="360" y="526" type="curve" smooth="yes"/>
      <point x="365" y="526" type="line"/>
      <point x="365" y="536" type="line"/>
      <point x="66" y="536" type="line"/>
      <point x="66" y="526" type="line"/>
      <point x="94" y="526" type="line" smooth="yes"/>
      <point x="150" y="526"/>
      <point x="163" y="514"/>
      <point x="163" y="438" type="curve" smooth="yes"/>
      <point x="163" y="400"/>
      <point x="159" y="324"/>
      <point x="144" y="252" type="curve" smooth="yes"/>
      <point x="126" y="173"/>
      <point x="102" y="89"/>
      <point x="69" y="15" type="curve"/>
      <point x="10" y="15" type="line"/>
    </contour>
    <contour>
      <point x="82" y="15" type="line"/>
      <point x="143" y="154"/>
      <point x="182" y="329"/>
      <point x="175" y="521" type="curve"/>
      <point x="260" y="521" type="line"/>
      <point x="260" y="15" type="line"/>
    </contour>
  </outline>
</glyph>
<glyph name="afii10088" format="2">
  <advance width="397"/>
  <unicode hex="0446"/>
  <anchor x="199" y="0" name="bottom"/>
  <anchor x="199" y="536" name="top"/>
  <outline>
    <contour>
      <point x="368" y="-210" type="line"/>
      <point x="378" y="-210" type="line"/>
      <point x="378" y="7" type="line"/>
      <point x="381" y="7" type="line" smooth="yes"/>
      <point x="306" y="7"/>
      <point x="302" y="17"/>
      <point x="302" y="87" type="curve" smooth="yes"/>
      <point x="302" y="449" type="line" smooth="yes"/>
      <point x="302" y="519"/>
      <point x="308" y="526"/>
      <point x="370" y="526" type="curve" smooth="yes"/>
      <point x="366" y="526" type="line"/>
      <point x="366" y="536" type="line"/>
      <point x="212" y="536" type="line"/>
      <point x="212" y="526" type="line"/>
      <point x="213" y="526" type="line" smooth="yes"/>
      <point x="268" y="526"/>
      <point x="274" y="519"/>
      <point x="274" y="449" type="curve" smooth="yes"/>
      <point x="274" y="15" type="line"/>
      <point x="108" y="15" type="line"/>
      <point x="108" y="449" type="line" smooth="yes"/>
      <point x="108" y="521"/>
      <point x="111" y="526"/>
      <point x="181" y="526" type="curve" smooth="yes"/>
      <point x="168" y="526" type="line"/>
      <point x="168" y="536" type="line"/>
      <point x="14" y="536" type="line"/>
      <point x="14" y="526" type="line"/>
      <point x="13" y="526" type="line" smooth="yes"/>
      <point x="74" y="526"/>
      <point x="80" y="521"/>
      <point x="80" y="449" type="curve" smooth="yes"/>
      <point x="80" y="87" type="line" smooth="yes"/>
      <point x="80" y="17"/>
      <point x="72" y="10"/>
      <point x="19" y="10" type="curve" smooth="yes"/>
      <point x="14" y="10" type="line"/>
      <point x="14" y="0" type="line"/>
      <point x="219" y="0" type="line" smooth="yes"/>
      <point x="352" y="0"/>
      <point x="370" y="-39"/>
      <point x="373" y="-219" type="curve" smooth="yes"/>
    </contour>
  </outline>
</glyph>
<glyph name="afii10092" format="2">
  <advance width="410"/>
  <unicode hex="044A"/>
  <anchor x="206" y="0" name="bottom"/>
  <anchor x="206" y="536" name="top"/>
  <outline>
    <contour>
      <point x="70" y="0" type="line"/>
      <point x="242" y="0" type="line" smooth="yes"/>
      <point x="317" y="0"/>
      <point x="370" y="36"/>
      <point x="370" y="151" type="curve" smooth="yes"/>
      <point x="370" y="264"/>
      <point x="305" y="285"/>
      <point x="222" y="285" type="curve" smooth="yes"/>
      <point x="177" y="285" type="line"/>
      <point x="177" y="449" type="line" smooth="yes"/>
      <point x="177" y="519"/>
      <point x="182" y="526"/>
      <point x="244" y="526" type="curve" smooth="yes"/>
      <point x="241" y="526" type="line"/>
      <point x="241" y="536" type="line"/>
      <point x="24" y="536" type="line"/>
      <point x="21" y="398" type="line"/>
      <point x="31" y="398" type="line"/>
      <point x="29" y="407" type="line" smooth="yes"/>
      <point x="31" y="523"/>
      <point x="35" y="529"/>
      <point x="90" y="529" type="curve" smooth="yes"/>
      <point x="149" y="529" type="line"/>
      <point x="149" y="87" type="line" smooth="yes"/>
      <point x="149" y="14"/>
      <point x="143" y="10"/>
      <point x="80" y="10" type="curve" smooth="yes"/>
      <point x="70" y="10" type="line"/>
    </contour>
    <contour>
      <point x="177" y="10" type="line"/>
      <point x="177" y="275" type="line"/>
      <point x="245" y="275" type="line" smooth="yes"/>
      <point x="304" y="275"/>
      <point x="342" y="250"/>
      <point x="342" y="151" type="curve" smooth="yes"/>
      <point x="342" y="45"/>
      <point x="311" y="10"/>
      <point x="262" y="10" type="curve" smooth="yes"/>
    </contour>
  </outline>
</glyph>
<glyph name="afii10095" format="2">
  <advance width="280"/>
  <unicode hex="044D"/>
  <anchor x="140" y="0" name="bottom"/>
  <anchor x="140" y="536" name="top"/>
  <outline>
    <contour>
      <point x="117" y="-13" type="curve" smooth="yes"/>
      <point x="187" y="-13"/>
      <point x="242" y="41"/>
      <point x="242" y="270" type="curve" smooth="yes"/>
      <point x="242" y="494"/>
      <point x="183" y="542"/>
      <point x="109" y="542" type="curve" smooth="yes"/>
      <point x="56" y="542"/>
      <point x="20" y="491"/>
      <point x="20" y="440" type="curve" smooth="yes"/>
      <point x="20" y="401"/>
      <point x="42" y="401"/>
      <point x="52" y="401" type="curve"/>
      <point x="52" y="488"/>
      <point x="48" y="532"/>
      <point x="109" y="532" type="curve" smooth="yes"/>
      <point x="186" y="532"/>
      <point x="214" y="463"/>
      <point x="214" y="269" type="curve"/>
      <point x="59" y="269" type="line"/>
      <point x="59" y="259" type="line"/>
      <point x="214" y="259" type="line"/>
      <point x="211" y="41"/>
      <point x="161" y="-3"/>
      <point x="116" y="-3" type="curve" smooth="yes"/>
      <point x="71" y="-3"/>
      <point x="36" y="54"/>
      <point x="28" y="101" type="curve"/>
      <point x="16" y="92"/>
      <point x="18" y="84"/>
      <point x="18" y="78" type="curve" smooth="yes"/>
      <point x="18" y="39"/>
      <point x="66" y="-13"/>
    </contour>
  </outline>
</glyph>
<glyph name="afii10099" format="2">
  <advance width="349"/>
  <unicode hex="0452"/>
  <anchor x="174" y="-240" name="bottom"/>
  <anchor x="174" y="760" name="top"/>
  <outline>
    <contour>
      <point x="210" y="-240" type="line"/>
      <point x="213" y="-240" type="line" smooth="yes"/>
      <point x="258" y="-240"/>
      <point x="293" y="-217"/>
      <point x="293" y="-28" type="curve" smooth="yes"/>
      <point x="293" y="361" type="line" smooth="yes"/>
      <point x="293" y="473"/>
      <point x="251" y="537"/>
      <point x="189" y="537" type="curve" smooth="yes"/>
      <point x="142" y="537"/>
      <point x="107" y="506"/>
      <point x="97" y="441" type="curve"/>
      <point x="95" y="441" type="line"/>
      <point x="96" y="451"/>
      <point x="96" y="475"/>
      <point x="96" y="499" type="curve" smooth="yes"/>
      <point x="96" y="628" type="line"/>
      <point x="208" y="628" type="line"/>
      <point x="208" y="638" type="line"/>
      <point x="96" y="638" type="line"/>
      <point x="96" y="760" type="line"/>
      <point x="12" y="760" type="line"/>
      <point x="12" y="750" type="line"/>
      <point x="17" y="750" type="line" smooth="yes"/>
      <point x="61" y="750"/>
      <point x="68" y="738"/>
      <point x="68" y="675" type="curve" smooth="yes"/>
      <point x="68" y="638" type="line"/>
      <point x="11" y="638" type="line"/>
      <point x="11" y="628" type="line"/>
      <point x="68" y="628" type="line"/>
      <point x="68" y="87" type="line" smooth="yes"/>
      <point x="68" y="17"/>
      <point x="61" y="10"/>
      <point x="6" y="10" type="curve" smooth="yes"/>
      <point x="9" y="10" type="line"/>
      <point x="9" y="0" type="line"/>
      <point x="150" y="0" type="line"/>
      <point x="150" y="10" type="line"/>
      <point x="156" y="10" type="line" smooth="yes"/>
      <point x="103" y="10"/>
      <point x="96" y="17"/>
      <point x="96" y="87" type="curve" smooth="yes"/>
      <point x="96" y="321" type="line" smooth="yes"/>
      <point x="96" y="470"/>
      <point x="120" y="522"/>
      <point x="179" y="522" type="curve" smooth="yes"/>
      <point x="247" y="522"/>
      <point x="265" y="463"/>
      <point x="265" y="362" type="curve" smooth="yes"/>
      <point x="265" y="-28" type="line" smooth="yes"/>
      <point x="265" y="-190"/>
      <point x="248" y="-230"/>
      <point x="211" y="-230" type="curve" smooth="yes"/>
      <point x="210" y="-230" type="line"/>
    </contour>
  </outline>
</glyph>
<glyph name="uni0463" format="2">
  <advance width="349"/>
  <unicode hex="0463"/>
  <anchor x="175" y="0" name="bottom"/>
  <anchor x="175" y="760" name="top"/>
  <outline>
    <contour>
      <point x="16" y="0" type="line"/>
      <point x="178" y="0" type="line" smooth="yes"/>
      <point x="250" y="0"/>
      <point x="311" y="48"/>
      <point x="311" y="141" type="curve" smooth="yes"/>
      <point x="311" y="271"/>
      <point x="226" y="290"/>
      <point x="173" y="290" type="curve" smooth="yes"/>
      <point x="107" y="290" type="line"/>
      <point x="107" y="474" type="line"/>
      <point x="187" y="474" type="line"/>
      <point x="187" y="484" type="line"/>
      <point x="107" y="484" type="line"/>
      <point x="107" y="760" type="line"/>
      <point x="16" y="760" type="line"/>
      <point x="16" y="750" type="line"/>
      <point x="12" y="750" type="line" smooth="yes"/>
      <point x="73" y="750"/>
      <point x="79" y="743"/>
      <point x="79" y="675" type="curve" smooth="yes"/>
      <point x="79" y="484" type="line"/>
      <point x="19" y="484" type="line"/>
      <point x="19" y="474" type="line"/>
      <point x="79" y="474" type="line"/>
      <point x="79" y="87" type="line" smooth="yes"/>
      <point x="79" y="17"/>
      <point x="71" y="10"/>
      <point x="20" y="10" type="curve" smooth="yes"/>
      <point x="16" y="10" type="line"/>
    </contour>
    <contour>
      <point x="107" y="10" type="line"/>
      <point x="107" y="280" type="line"/>
      <point x="175" y="280" type="line" smooth="yes"/>
      <point x="239" y="280"/>
      <point x="283" y="252"/>
      <point x="283" y="141" type="curve" smooth="yes"/>
      <point x="283" y="54"/>
      <point x="242" y="10"/>
      <point x="196" y="10" type="curve" smooth="yes"/>
    </contour>
  </outline>
</glyph>
<glyph name="uni0469" format="2">
  <advance width="448"/>
  <unicode hex="0469"/>
  <anchor x="225" y="0" name="bottom"/>
  <anchor x="225" y="536" name="top"/>
  <outline>
    <contour>
      <point x="14" y="0" type="line"/>
      <point x="108" y="0" type="line"/>
      <point x="108" y="270" type="line"/>
      <point x="225" y="270" type="line"/>
      <point x="236" y="280" type="line"/>
      <point x="108" y="280" type="line"/>
      <point x="108" y="449" type="line" smooth="yes"/>
      <point x="108" y="519"/>
      <point x="116" y="526"/>
      <point x="168" y="526" type="curve" smooth="yes"/>
      <point x="168" y="526" type="line"/>
      <point x="168" y="536" type="line"/>
      <point x="14" y="536" type="line"/>
      <point x="14" y="526" type="line"/>
      <point x="19" y="526" type="line" smooth="yes"/>
      <point x="73" y="526"/>
      <point x="80" y="519"/>
      <point x="80" y="449" type="curve" smooth="yes"/>
      <point x="80" y="87" type="line" smooth="yes"/>
      <point x="80" y="16"/>
      <point x="73" y="10"/>
      <point x="19" y="10" type="curve" smooth="yes"/>
      <point x="14" y="10" type="line"/>
    </contour>
    <component base="uni0467" xOffset="127"/>
  </outline>
</glyph>
<glyph name="uni046D" format="2">
  <advance width="498"/>
  <unicode hex="046D"/>
  <anchor x="371" y="0" name="bottom"/>
  <anchor x="371" y="536" name="top"/>
  <outline>
    <contour>
      <point x="12" y="0" type="line"/>
      <point x="106" y="0" type="line"/>
      <point x="106" y="261" type="line"/>
      <point x="250" y="261" type="line"/>
      <point x="221" y="251"/>
      <point x="204" y="231"/>
      <point x="197" y="196" type="curve" smooth="yes"/>
      <point x="182" y="123" type="line" smooth="yes"/>
      <point x="164" y="39"/>
      <point x="152" y="10"/>
      <point x="125" y="10" type="curve" smooth="yes"/>
      <point x="124" y="10" type="line"/>
      <point x="124" y="0" type="line"/>
      <point x="125" y="0" type="line" smooth="yes"/>
      <point x="181" y="0"/>
      <point x="191" y="27"/>
      <point x="205" y="101" type="curve" smooth="yes"/>
      <point x="223" y="184" type="line" smooth="yes"/>
      <point x="236" y="248"/>
      <point x="250" y="262"/>
      <point x="300" y="262" type="curve"/>
      <point x="300" y="87" type="line" smooth="yes"/>
      <point x="300" y="17"/>
      <point x="287" y="10"/>
      <point x="242" y="10" type="curve" smooth="yes"/>
      <point x="259" y="10" type="line"/>
      <point x="259" y="0" type="line"/>
      <point x="369" y="0" type="line"/>
      <point x="369" y="10" type="line"/>
      <point x="391" y="10" type="line" smooth="yes"/>
      <point x="340" y="10"/>
      <point x="328" y="17"/>
      <point x="328" y="87" type="curve" smooth="yes"/>
      <point x="328" y="262" type="line"/>
      <point x="382" y="262"/>
      <point x="391" y="254"/>
      <point x="408" y="176" type="curve" smooth="yes"/>
      <point x="423" y="102" type="line" smooth="yes"/>
      <point x="440" y="21"/>
      <point x="451" y="0"/>
      <point x="501" y="0" type="curve" smooth="yes"/>
      <point x="500" y="0" type="line"/>
      <point x="500" y="10" type="line"/>
      <point x="502" y="10" type="line" smooth="yes"/>
      <point x="473" y="10"/>
      <point x="460" y="49"/>
      <point x="445" y="123" type="curve" smooth="yes"/>
      <point x="431" y="195" type="line" smooth="yes"/>
      <point x="418" y="254"/>
      <point x="393" y="270"/>
      <point x="329" y="271" type="curve"/>
      <point x="446" y="532" type="line"/>
      <point x="446" y="536" type="line"/>
      <point x="173" y="536" type="line"/>
      <point x="173" y="532" type="line"/>
      <point x="304" y="271" type="line"/>
      <point x="106" y="271" type="line"/>
      <point x="106" y="449" type="line" smooth="yes"/>
      <point x="106" y="519"/>
      <point x="112" y="526"/>
      <point x="169" y="526" type="curve" smooth="yes"/>
      <point x="166" y="526" type="line"/>
      <point x="166" y="536" type="line"/>
      <point x="12" y="536" type="line"/>
      <point x="12" y="526" type="line"/>
      <point x="15" y="526" type="line" smooth="yes"/>
      <point x="71" y="526"/>
      <point x="78" y="519"/>
      <point x="78" y="449" type="curve" smooth="yes"/>
      <point x="78" y="87" type="line" smooth="yes"/>
      <point x="78" y="16"/>
      <point x="70" y="10"/>
      <point x="19" y="10" type="curve" smooth="yes"/>
      <point x="12" y="10" type="line"/>
    </contour>
    <contour>
      <point x="323" y="281" type="line"/>
      <point x="209" y="526" type="line"/>
      <point x="435" y="526" type="line"/>
      <point x="324" y="281" type="line"/>
    </contour>
  </outline>
</glyph>
<glyph name="uni0474" format="2">
  <advance width="384"/>
  <unicode hex="0474"/>
  <anchor x="198" y="0" name="bottom"/>
  <anchor x="198" y="714" name="top"/>
  <outline>
    <contour>
      <point x="190" y="0" type="line"/>
      <point x="213" y="0" type="line"/>
      <point x="309" y="552" type="line" smooth="yes"/>
      <point x="335" y="683"/>
      <point x="348" y="693"/>
      <point x="362" y="693" type="curve" smooth="yes"/>
      <point x="377" y="693"/>
      <point x="382" y="680"/>
      <point x="380" y="661" type="curve"/>
      <point x="394" y="663"/>
      <point x="397" y="676"/>
      <point x="397" y="687" type="curve" smooth="yes"/>
      <point x="397" y="709"/>
      <point x="383" y="720"/>
      <point x="361" y="720" type="curve" smooth="yes"/>
      <point x="358" y="720"/>
      <point x="326" y="743"/>
      <point x="310" y="653" type="curve" smooth="yes"/>
      <point x="237" y="230" type="line" smooth="yes"/>
      <point x="222" y="147"/>
      <point x="220" y="104"/>
      <point x="209" y="30" type="curve"/>
      <point x="199" y="90"/>
      <point x="183" y="185"/>
      <point x="170" y="244" type="curve" smooth="yes"/>
      <point x="108" y="538" type="line" smooth="yes"/>
      <point x="103" y="559"/>
      <point x="85" y="631"/>
      <point x="85" y="659" type="curve" smooth="yes"/>
      <point x="85" y="674"/>
      <point x="83" y="687"/>
      <point x="134" y="687" type="curve" smooth="yes"/>
      <point x="137" y="687" type="line"/>
      <point x="137" y="714" type="line"/>
      <point x="0" y="714" type="line"/>
      <point x="0" y="687" type="line"/>
      <point x="-8" y="687" type="line" smooth="yes"/>
      <point x="37" y="687"/>
      <point x="45" y="687"/>
      <point x="54" y="644" type="curve" smooth="yes"/>
    </contour>
  </outline>
</glyph>
<glyph name="uni0481" format="2">
  <advance width="281"/>
  <unicode hex="0481"/>
  <anchor x="141" y="-239" name="bottom"/>
  <anchor x="141" y="536" name="top"/>
  <outline>
    <contour>
      <point x="187" y="-239" type="line"/>
      <point x="215" y="-239" type="line"/>
      <point x="215" y="21" type="line"/>
      <point x="215" y="21" type="line"/>
      <point x="206" y="9"/>
      <point x="187" y="0"/>
      <point x="166" y="0" type="curve" smooth="yes"/>
      <point x="91" y="0"/>
      <point x="65" y="50"/>
      <point x="65" y="264" type="curve" smooth="yes"/>
      <point x="65" y="484"/>
      <point x="102" y="532"/>
      <point x="161" y="532" type="curve" smooth="yes"/>
      <point x="218" y="532"/>
      <point x="222" y="507"/>
      <point x="222" y="406" type="curve"/>
      <point x="241" y="405"/>
      <point x="252" y="412"/>
      <point x="252" y="446" type="curve" smooth="yes"/>
      <point x="252" y="495"/>
      <point x="224" y="542"/>
      <point x="159" y="542" type="curve" smooth="yes"/>
      <point x="81" y="542"/>
      <point x="37" y="482"/>
      <point x="37" y="263" type="curve" smooth="yes"/>
      <point x="37" y="40"/>
      <point x="89" y="-10"/>
      <point x="166" y="-10" type="curve" smooth="yes"/>
      <point x="187" y="-10" type="line"/>
    </contour>
  </outline>
</glyph>
<glyph name="palatalizationcomb.cy" format="2">
  <unicode hex="0484"/>
  <anchor x="13" y="536" name="_top"/>
  <anchor x="13" y="699" name="top"/>
  <outline>
    <contour>
      <point x="-97" y="614" type="line"/>
      <point x="-84" y="614" type="line" smooth="yes"/>
      <point x="-14" y="614"/>
      <point x="19" y="669"/>
      <point x="67" y="669" type="curve" smooth="yes"/>
      <point x="92" y="669"/>
      <point x="110" y="648"/>
      <point x="112" y="624" type="curve" smooth="yes"/>
      <point x="112" y="612" type="line"/>
      <point x="122" y="612" type="line"/>
      <point x="122" y="678"/>
      <point x="97" y="699"/>
      <point x="64" y="699" type="curve" smooth="yes"/>
      <point x="3" y="699"/>
      <point x="-11" y="644"/>
      <point x="-100" y="644" type="curve"/>
      <point x="-97" y="644" type="line"/>
    </contour>
  </outline>
</glyph>
<glyph name="uni0489" format="2">
  <advance width="956"/>
  <unicode hex="0489"/>
  <outline>
    <contour>
      <point x="688" y="459" type="line"/>
      <point x="727" y="485"/>
      <point x="788" y="519"/>
      <point x="837" y="548" type="curve"/>
      <point x="809" y="574" type="line"/>
      <point x="758" y="551"/>
      <point x="700" y="521"/>
      <point x="656" y="493" type="curve"/>
      <point x="657" y="490" type="line"/>
    </contour>
    <contour>
      <point x="145" y="-56" type="line"/>
      <point x="195" y="-32"/>
      <point x="252" y="1"/>
      <point x="294" y="32" type="curve"/>
      <point x="295" y="35" type="line"/>
      <point x="264" y="66" type="line"/>
      <point x="225" y="37"/>
      <point x="166" y="-1"/>
      <point x="119" y="-29" type="curve"/>
    </contour>
    <contour>
      <point x="188" y="226" type="curve"/>
      <point x="190" y="228" type="line"/>
      <point x="190" y="273" type="line"/>
      <point x="142" y="282"/>
      <point x="74" y="299"/>
      <point x="19" y="316" type="curve"/>
      <point x="19" y="278" type="line"/>
      <point x="70" y="258"/>
      <point x="137" y="237"/>
    </contour>
    <contour>
      <point x="433" y="-189" type="curve"/>
      <point x="470" y="-189" type="line"/>
      <point x="489" y="-136"/>
      <point x="508" y="-71"/>
      <point x="520" y="-20" type="curve"/>
      <point x="518" y="-18" type="line"/>
      <point x="472" y="-18" type="line"/>
      <point x="464" y="-66"/>
      <point x="448" y="-134"/>
    </contour>
    <contour>
      <point x="767" y="-102" type="curve"/>
      <point x="792" y="-74" type="line"/>
      <point x="770" y="-24"/>
      <point x="737" y="35"/>
      <point x="708" y="78" type="curve"/>
      <point x="705" y="79" type="line"/>
      <point x="674" y="48" type="line"/>
      <point x="701" y="7"/>
      <point x="739" y="-53"/>
    </contour>
    <contour>
      <point x="249" y="440" type="line"/>
      <point x="281" y="471" type="line"/>
      <point x="252" y="510"/>
      <point x="215" y="569"/>
      <point x="185" y="616" type="curve"/>
      <point x="159" y="588" type="line"/>
      <point x="182" y="539"/>
      <point x="215" y="482"/>
      <point x="246" y="439" type="curve"/>
    </contour>
    <contour>
      <point x="936" y="221" type="curve"/>
      <point x="936" y="257" type="line"/>
      <point x="883" y="279"/>
      <point x="817" y="301"/>
      <point x="765" y="314" type="curve"/>
      <point x="763" y="312" type="line"/>
      <point x="763" y="267" type="line"/>
      <point x="811" y="258"/>
      <point x="881" y="239"/>
    </contour>
    <contour>
      <point x="448" y="557" type="line"/>
      <point x="492" y="557" type="line"/>
      <point x="499" y="605"/>
      <point x="512" y="673"/>
      <point x="525" y="728" type="curve"/>
      <point x="488" y="728" type="line"/>
      <point x="472" y="675"/>
      <point x="455" y="611"/>
      <point x="447" y="561" type="curve"/>
    </contour>
  </outline>
</glyph>
<glyph name="uni048C" format="2">
  <advance width="349"/>
  <unicode hex="048C"/>
  <anchor x="174" y="0" name="bottom"/>
  <anchor x="174" y="714" name="top"/>
  <outline>
    <contour>
      <point x="23" y="0" type="line"/>
      <point x="170" y="0" type="line" smooth="yes"/>
      <point x="281" y="0"/>
      <point x="316" y="83"/>
      <point x="316" y="207" type="curve" smooth="yes"/>
      <point x="316" y="313"/>
      <point x="272" y="387"/>
      <point x="156" y="387" type="curve" smooth="yes"/>
      <point x="112" y="387" type="line"/>
      <point x="112" y="565" type="line"/>
      <point x="231" y="565" type="line"/>
      <point x="231" y="575" type="line"/>
      <point x="112" y="575" type="line"/>
      <point x="112" y="760" type="line"/>
      <point x="84" y="760" type="line"/>
      <point x="84" y="575" type="line"/>
      <point x="24" y="575" type="line"/>
      <point x="24" y="565" type="line"/>
      <point x="84" y="565" type="line"/>
      <point x="84" y="98" type="line" smooth="yes"/>
      <point x="84" y="21"/>
      <point x="79" y="10"/>
      <point x="27" y="10" type="curve" smooth="yes"/>
      <point x="23" y="10" type="line"/>
    </contour>
    <contour>
      <point x="112" y="10" type="line"/>
      <point x="112" y="377" type="line"/>
      <point x="162" y="377" type="line" smooth="yes"/>
      <point x="254" y="377"/>
      <point x="288" y="318"/>
      <point x="288" y="205" type="curve" smooth="yes"/>
      <point x="288" y="75"/>
      <point x="258" y="10"/>
      <point x="166" y="10" type="curve" smooth="yes"/>
    </contour>
  </outline>
</glyph>
<glyph name="uni048E" format="2">
  <advance width="347"/>
  <unicode hex="048E"/>
  <anchor x="174" y="0" name="bottom"/>
  <anchor x="174" y="714" name="top"/>
  <outline>
    <contour>
      <point x="27" y="0" type="line"/>
      <point x="175" y="0" type="line"/>
      <point x="175" y="10" type="line"/>
      <point x="166" y="10" type="line" smooth="yes"/>
      <point x="116" y="10"/>
      <point x="110" y="21"/>
      <point x="110" y="98" type="curve" smooth="yes"/>
      <point x="110" y="279" type="line"/>
      <point x="160" y="279" type="line" smooth="yes"/>
      <point x="197" y="279"/>
      <point x="225" y="293"/>
      <point x="247" y="314" type="curve"/>
      <point x="286" y="225" type="line"/>
      <point x="294" y="228" type="line"/>
      <point x="254" y="320" type="line"/>
      <point x="299" y="365"/>
      <point x="314" y="442"/>
      <point x="314" y="509" type="curve" smooth="yes"/>
      <point x="314" y="652"/>
      <point x="266" y="714"/>
      <point x="162" y="714" type="curve" smooth="yes"/>
      <point x="27" y="714" type="line"/>
      <point x="27" y="704" type="line"/>
      <point x="26" y="704" type="line" smooth="yes"/>
      <point x="76" y="704"/>
      <point x="82" y="693"/>
      <point x="82" y="616" type="curve" smooth="yes"/>
      <point x="82" y="100" type="line" smooth="yes"/>
      <point x="82" y="21"/>
      <point x="76" y="10"/>
      <point x="26" y="10" type="curve" smooth="yes"/>
      <point x="27" y="10" type="line"/>
    </contour>
    <contour>
      <point x="110" y="289" type="line"/>
      <point x="110" y="704" type="line"/>
      <point x="162" y="704" type="line" smooth="yes"/>
      <point x="255" y="704"/>
      <point x="286" y="647"/>
      <point x="286" y="509" type="curve" smooth="yes"/>
      <point x="286" y="447"/>
      <point x="276" y="379"/>
      <point x="247" y="335" type="curve"/>
      <point x="196" y="449" type="line"/>
      <point x="188" y="447" type="line"/>
      <point x="242" y="327" type="line"/>
      <point x="226" y="303"/>
      <point x="200" y="289"/>
      <point x="166" y="289" type="curve" smooth="yes"/>
    </contour>
  </outline>
</glyph>
<glyph name="uni04A7" format="2">
  <advance width="509"/>
  <unicode hex="04A7"/>
  <anchor x="255" y="-240" name="bottom"/>
  <anchor x="255" y="536" name="top"/>
  <outline>
    <contour>
      <point x="379" y="-240" type="curve" smooth="yes"/>
      <point x="449" y="-240"/>
      <point x="501" y="-186"/>
      <point x="501" y="30" type="curve" smooth="yes"/>
      <point x="501" y="242"/>
      <point x="414" y="292"/>
      <point x="376" y="292" type="curve" smooth="yes"/>
      <point x="360" y="292"/>
      <point x="337" y="291"/>
      <point x="320" y="284" type="curve"/>
      <point x="320" y="452" type="line" smooth="yes"/>
      <point x="320" y="523"/>
      <point x="328" y="529"/>
      <point x="380" y="529" type="curve" smooth="yes"/>
      <point x="384" y="529" type="line"/>
      <point x="384" y="536" type="line"/>
      <point x="14" y="536" type="line"/>
      <point x="14" y="526" type="line"/>
      <point x="16" y="526" type="line" smooth="yes"/>
      <point x="72" y="526"/>
      <point x="80" y="519"/>
      <point x="80" y="449" type="curve" smooth="yes"/>
      <point x="80" y="87" type="line" smooth="yes"/>
      <point x="80" y="16"/>
      <point x="72" y="10"/>
      <point x="19" y="10" type="curve" smooth="yes"/>
      <point x="14" y="10" type="line"/>
      <point x="14" y="0" type="line"/>
      <point x="168" y="0" type="line"/>
      <point x="168" y="10" type="line"/>
      <point x="175" y="10" type="line" smooth="yes"/>
      <point x="113" y="10"/>
      <point x="108" y="16"/>
      <point x="108" y="87" type="curve" smooth="yes"/>
      <point x="108" y="529" type="line"/>
      <point x="292" y="529" type="line"/>
      <point x="292" y="87" type="line" smooth="yes"/>
      <point x="292" y="17"/>
      <point x="286" y="10"/>
      <point x="232" y="10" type="curve" smooth="yes"/>
      <point x="230" y="10" type="line"/>
      <point x="230" y="0" type="line"/>
      <point x="384" y="0" type="line"/>
      <point x="384" y="10" type="line"/>
      <point x="386" y="10" type="line" smooth="yes"/>
      <point x="326" y="10"/>
      <point x="320" y="17"/>
      <point x="320" y="87" type="curve" smooth="yes"/>
      <point x="320" y="273" type="line"/>
      <point x="337" y="281"/>
      <point x="353" y="282"/>
      <point x="376" y="282" type="curve" smooth="yes"/>
      <point x="397" y="282"/>
      <point x="473" y="253"/>
      <point x="473" y="18" type="curve" smooth="yes"/>
      <point x="473" y="-193"/>
      <point x="428" y="-230"/>
      <point x="377" y="-230" type="curve" smooth="yes"/>
      <point x="319" y="-230"/>
      <point x="304" y="-194"/>
      <point x="304" y="-107" type="curve"/>
      <point x="292" y="-107"/>
      <point x="282" y="-115"/>
      <point x="282" y="-132" type="curve" smooth="yes"/>
      <point x="282" y="-175"/>
      <point x="299" y="-240"/>
    </contour>
  </outline>
</glyph>
<glyph name="uni04AD" format="2">
  <advance width="318"/>
  <unicode hex="04AD"/>
  <anchor x="159" y="-210" name="bottom"/>
  <anchor x="159" y="536" name="top"/>
  <outline>
    <contour>
      <point x="228" y="-210" type="line"/>
      <point x="238" y="-210" type="line"/>
      <point x="238" y="7" type="line"/>
      <point x="254" y="7" type="line" smooth="yes"/>
      <point x="185" y="7"/>
      <point x="173" y="13"/>
      <point x="173" y="87" type="curve" smooth="yes"/>
      <point x="173" y="529" type="line"/>
      <point x="229" y="529" type="line" smooth="yes"/>
      <point x="286" y="529"/>
      <point x="290" y="527"/>
      <point x="292" y="438" type="curve" smooth="yes"/>
      <point x="293" y="398" type="line"/>
      <point x="303" y="398" type="line"/>
      <point x="298" y="536" type="line"/>
      <point x="18" y="536" type="line"/>
      <point x="15" y="398" type="line"/>
      <point x="25" y="398" type="line"/>
      <point x="24" y="439" type="line" smooth="yes"/>
      <point x="25" y="529"/>
      <point x="29" y="529"/>
      <point x="84" y="529" type="curve" smooth="yes"/>
      <point x="145" y="529" type="line"/>
      <point x="145" y="87" type="line" smooth="yes"/>
      <point x="145" y="17"/>
      <point x="138" y="10"/>
      <point x="84" y="10" type="curve" smooth="yes"/>
      <point x="82" y="10" type="line"/>
      <point x="82" y="0" type="line"/>
      <point x="78" y="0" type="line" smooth="yes"/>
      <point x="211" y="0"/>
      <point x="230" y="-39"/>
      <point x="232" y="-213" type="curve" smooth="yes"/>
    </contour>
  </outline>
</glyph>
<glyph name="uni04B4" format="2">
  <advance width="498"/>
  <unicode hex="04B4"/>
  <anchor x="249" y="0" name="bottom"/>
  <anchor x="249" y="714" name="top"/>
  <outline>
    <contour>
      <point x="479" y="-210" type="curve"/>
      <point x="489" y="-210" type="line"/>
      <point x="489" y="7" type="line"/>
      <point x="490" y="7" type="line" smooth="yes"/>
      <point x="431" y="7"/>
      <point x="425" y="21"/>
      <point x="425" y="95" type="curve" smooth="yes"/>
      <point x="425" y="617" type="line" smooth="yes"/>
      <point x="425" y="693"/>
      <point x="433" y="704"/>
      <point x="480" y="704" type="curve" smooth="yes"/>
      <point x="483" y="704" type="line"/>
      <point x="483" y="714" type="line"/>
      <point x="328" y="714" type="line"/>
      <point x="328" y="704" type="line"/>
      <point x="341" y="704" type="line" smooth="yes"/>
      <point x="392" y="704"/>
      <point x="397" y="693"/>
      <point x="397" y="617" type="curve" smooth="yes"/>
      <point x="397" y="7" type="line"/>
      <point x="173" y="7" type="line"/>
      <point x="173" y="707" type="line"/>
      <point x="214" y="707" type="line" smooth="yes"/>
      <point x="277" y="707"/>
      <point x="280" y="689"/>
      <point x="282" y="624" type="curve" smooth="yes"/>
      <point x="283" y="563" type="line"/>
      <point x="293" y="563" type="line"/>
      <point x="289" y="714" type="line"/>
      <point x="23" y="714" type="line"/>
      <point x="20" y="563" type="line"/>
      <point x="30" y="563" type="line"/>
      <point x="31" y="618" type="line" smooth="yes"/>
      <point x="33" y="693"/>
      <point x="35" y="707"/>
      <point x="103" y="707" type="curve" smooth="yes"/>
      <point x="145" y="707" type="line"/>
      <point x="145" y="98" type="line" smooth="yes"/>
      <point x="145" y="21"/>
      <point x="139" y="10"/>
      <point x="90" y="10" type="curve" smooth="yes"/>
      <point x="86" y="10" type="line"/>
      <point x="86" y="0" type="line"/>
      <point x="300" y="0" type="line" smooth="yes"/>
      <point x="464" y="0"/>
      <point x="479" y="5"/>
    </contour>
  </outline>
</glyph>
<glyph name="uni050F" format="2">
  <advance width="386"/>
  <unicode hex="050F"/>
  <anchor x="194" y="0" name="bottom"/>
  <anchor x="194" y="536" name="top"/>
  <outline>
    <contour>
      <point x="234" y="-10" type="curve" smooth="yes"/>
      <point x="307" y="-10"/>
      <point x="318" y="66"/>
      <point x="318" y="170" type="curve" smooth="yes"/>
      <point x="318" y="198" type="line" smooth="yes"/>
      <point x="318" y="278"/>
      <point x="322" y="283"/>
      <point x="393" y="283" type="curve" smooth="yes"/>
      <point x="378" y="283" type="line"/>
      <point x="378" y="293" type="line"/>
      <point x="233" y="293" type="line"/>
      <point x="233" y="283" type="line"/>
      <point x="210" y="283" type="line" smooth="yes"/>
      <point x="283" y="283"/>
      <point x="290" y="280"/>
      <point x="290" y="198" type="curve" smooth="yes"/>
      <point x="290" y="160" type="line" smooth="yes"/>
      <point x="290" y="69"/>
      <point x="289" y="0"/>
      <point x="234" y="0" type="curve" smooth="yes"/>
      <point x="177" y="0"/>
      <point x="173" y="73"/>
      <point x="173" y="140" type="curve" smooth="yes"/>
      <point x="173" y="529" type="line"/>
      <point x="227" y="529" type="line" smooth="yes"/>
      <point x="288" y="529"/>
      <point x="290" y="526"/>
      <point x="292" y="438" type="curve" smooth="yes"/>
      <point x="293" y="398" type="line"/>
      <point x="303" y="398" type="line"/>
      <point x="298" y="536" type="line"/>
      <point x="18" y="536" type="line"/>
      <point x="15" y="398" type="line"/>
      <point x="25" y="398" type="line"/>
      <point x="24" y="437" type="line" smooth="yes"/>
      <point x="25" y="527"/>
      <point x="29" y="529"/>
      <point x="80" y="529" type="curve" smooth="yes"/>
      <point x="145" y="529" type="line"/>
      <point x="145" y="152" type="line" smooth="yes"/>
      <point x="145" y="83"/>
      <point x="147" y="-10"/>
    </contour>
  </outline>
</glyph>
<glyph name="uni0515" format="2">
  <advance width="488"/>
  <unicode hex="0515"/>
  <anchor x="245" y="0" name="bottom"/>
  <anchor x="245" y="536" name="top"/>
  <outline>
    <contour>
      <point x="51" y="-7" type="curve" smooth="yes"/>
      <point x="93" y="-7"/>
      <point x="112" y="22"/>
      <point x="133" y="163" type="curve" smooth="yes"/>
      <point x="147" y="268"/>
      <point x="171" y="443"/>
      <point x="165" y="526" type="curve"/>
      <point x="173" y="526" type="line" smooth="yes"/>
      <point x="194" y="526"/>
      <point x="202" y="522"/>
      <point x="223" y="478" type="curve" smooth="yes"/>
      <point x="320" y="272" type="line"/>
      <point x="244" y="63" type="line" smooth="yes"/>
      <point x="226" y="14"/>
      <point x="211" y="10"/>
      <point x="178" y="10" type="curve" smooth="yes"/>
      <point x="182" y="10" type="line"/>
      <point x="182" y="0" type="line"/>
      <point x="319" y="0" type="line"/>
      <point x="319" y="10" type="line"/>
      <point x="272" y="10" type="line" smooth="yes"/>
      <point x="248" y="10"/>
      <point x="242" y="12"/>
      <point x="242" y="24" type="curve" smooth="yes"/>
      <point x="242" y="34"/>
      <point x="248" y="46"/>
      <point x="260" y="79" type="curve" smooth="yes"/>
      <point x="326" y="259" type="line"/>
      <point x="403" y="87" type="line" smooth="yes"/>
      <point x="419" y="54"/>
      <point x="428" y="34"/>
      <point x="428" y="24" type="curve" smooth="yes"/>
      <point x="428" y="15"/>
      <point x="425" y="10"/>
      <point x="387" y="10" type="curve" smooth="yes"/>
      <point x="362" y="10" type="line"/>
      <point x="362" y="0" type="line"/>
      <point x="485" y="0" type="line"/>
      <point x="485" y="10" type="line"/>
      <point x="496" y="10" type="line" smooth="yes"/>
      <point x="478" y="10"/>
      <point x="467" y="13"/>
      <point x="446" y="58" type="curve" smooth="yes"/>
      <point x="338" y="296" type="line"/>
      <point x="405" y="478" type="line" smooth="yes"/>
      <point x="422" y="525"/>
      <point x="437" y="526"/>
      <point x="466" y="526" type="curve" smooth="yes"/>
      <point x="466" y="526" type="line"/>
      <point x="466" y="536" type="line"/>
      <point x="333" y="536" type="line"/>
      <point x="333" y="526" type="line"/>
      <point x="362" y="526" type="line" smooth="yes"/>
      <point x="400" y="526"/>
      <point x="403" y="521"/>
      <point x="403" y="510" type="curve" smooth="yes"/>
      <point x="403" y="500"/>
      <point x="395" y="479"/>
      <point x="383" y="447" type="curve" smooth="yes"/>
      <point x="333" y="311" type="line"/>
      <point x="264" y="451" type="line" smooth="yes"/>
      <point x="249" y="482"/>
      <point x="243" y="502"/>
      <point x="243" y="512" type="curve" smooth="yes"/>
      <point x="243" y="521"/>
      <point x="246" y="526"/>
      <point x="282" y="526" type="curve" smooth="yes"/>
      <point x="311" y="526" type="line"/>
      <point x="311" y="536" type="line"/>
      <point x="81" y="536" type="line"/>
      <point x="81" y="526" type="line"/>
      <point x="61" y="526" type="line" smooth="yes"/>
      <point x="114" y="526"/>
      <point x="156" y="523"/>
      <point x="156" y="467" type="curve" smooth="yes"/>
      <point x="156" y="424"/>
      <point x="143" y="313"/>
      <point x="127" y="218" type="curve" smooth="yes"/>
      <point x="97" y="41"/>
      <point x="73" y="17"/>
      <point x="44" y="17" type="curve" smooth="yes"/>
      <point x="17" y="17"/>
      <point x="20" y="38"/>
      <point x="20" y="53" type="curve"/>
      <point x="5" y="53"/>
      <point x="3" y="43"/>
      <point x="3" y="30" type="curve" smooth="yes"/>
      <point x="3" y="8"/>
      <point x="21" y="-7"/>
    </contour>
  </outline>
</glyph>
<glyph name="uni0528" format="2">
  <advance width="463"/>
  <unicode hex="0528"/>
  <anchor x="231" y="-240" name="bottom"/>
  <anchor x="231" y="714" name="top"/>
  <outline>
    <contour>
      <point x="-5" y="-240" type="line"/>
      <point x="-20" y="-240" type="line" smooth="yes"/>
      <point x="89" y="-240"/>
      <point x="112" y="-172"/>
      <point x="112" y="21" type="curve" smooth="yes"/>
      <point x="112" y="369" type="line"/>
      <point x="351" y="369" type="line"/>
      <point x="351" y="98" type="line" smooth="yes"/>
      <point x="351" y="21"/>
      <point x="345" y="10"/>
      <point x="295" y="10" type="curve" smooth="yes"/>
      <point x="283" y="10" type="line"/>
      <point x="283" y="0" type="line"/>
      <point x="438" y="0" type="line"/>
      <point x="438" y="10" type="line"/>
      <point x="436" y="10" type="line" smooth="yes"/>
      <point x="384" y="10"/>
      <point x="379" y="21"/>
      <point x="379" y="98" type="curve" smooth="yes"/>
      <point x="379" y="617" type="line" smooth="yes"/>
      <point x="379" y="693"/>
      <point x="385" y="704"/>
      <point x="433" y="704" type="curve" smooth="yes"/>
      <point x="438" y="704" type="line"/>
      <point x="438" y="714" type="line"/>
      <point x="283" y="714" type="line"/>
      <point x="283" y="704" type="line"/>
      <point x="295" y="704" type="line" smooth="yes"/>
      <point x="345" y="704"/>
      <point x="351" y="693"/>
      <point x="351" y="617" type="curve" smooth="yes"/>
      <point x="351" y="379" type="line"/>
      <point x="112" y="379" type="line"/>
      <point x="112" y="617" type="line" smooth="yes"/>
      <point x="112" y="693"/>
      <point x="118" y="704"/>
      <point x="167" y="704" type="curve" smooth="yes"/>
      <point x="180" y="704" type="line"/>
      <point x="180" y="714" type="line"/>
      <point x="28" y="714" type="line"/>
      <point x="28" y="704" type="line"/>
      <point x="29" y="704" type="line" smooth="yes"/>
      <point x="78" y="704"/>
      <point x="84" y="693"/>
      <point x="84" y="617" type="curve" smooth="yes"/>
      <point x="84" y="16" type="line" smooth="yes"/>
      <point x="84" y="-179"/>
      <point x="63" y="-230"/>
      <point x="-21" y="-230" type="curve" smooth="yes"/>
      <point x="-5" y="-230" type="line"/>
    </contour>
  </outline>
</glyph>
<glyph name="uni052F" format="2">
  <advance width="360"/>
  <unicode hex="052F"/>
  <anchor x="171" y="0" name="bottom"/>
  <anchor x="181" y="536" name="top"/>
  <outline>
    <contour>
      <point x="330" y="-210" type="line"/>
      <point x="340" y="-210" type="line"/>
      <point x="340" y="7" type="line"/>
      <point x="362" y="7" type="line" smooth="yes"/>
      <point x="293" y="7"/>
      <point x="283" y="13"/>
      <point x="283" y="87" type="curve" smooth="yes"/>
      <point x="283" y="460" type="line" smooth="yes"/>
      <point x="283" y="521"/>
      <point x="296" y="526"/>
      <point x="348" y="526" type="curve" smooth="yes"/>
      <point x="345" y="526" type="line"/>
      <point x="345" y="536" type="line"/>
      <point x="70" y="536" type="line"/>
      <point x="70" y="526" type="line"/>
      <point x="99" y="526" type="line" smooth="yes"/>
      <point x="134" y="526"/>
      <point x="155" y="523"/>
      <point x="155" y="446" type="curve" smooth="yes"/>
      <point x="155" y="417"/>
      <point x="142" y="308"/>
      <point x="127" y="218" type="curve" smooth="yes"/>
      <point x="98" y="41"/>
      <point x="77" y="17"/>
      <point x="47" y="17" type="curve" smooth="yes"/>
      <point x="20" y="17"/>
      <point x="20" y="35"/>
      <point x="20" y="55" type="curve"/>
      <point x="8" y="55"/>
      <point x="3" y="43"/>
      <point x="3" y="31" type="curve" smooth="yes"/>
      <point x="3" y="15"/>
      <point x="12" y="-7"/>
      <point x="51" y="-7" type="curve" smooth="yes"/>
      <point x="90" y="-7"/>
      <point x="113" y="28"/>
      <point x="133" y="163" type="curve" smooth="yes"/>
      <point x="149" y="272"/>
      <point x="171" y="452"/>
      <point x="165" y="526" type="curve"/>
      <point x="255" y="526" type="line"/>
      <point x="255" y="87" type="line" smooth="yes"/>
      <point x="255" y="17"/>
      <point x="248" y="10"/>
      <point x="195" y="10" type="curve" smooth="yes"/>
      <point x="198" y="10" type="line"/>
      <point x="198" y="0" type="line"/>
      <point x="221" y="0" type="line" smooth="yes"/>
      <point x="325" y="0"/>
      <point x="330" y="-41"/>
      <point x="332" y="-219" type="curve" smooth="yes"/>
    </contour>
  </outline>
</glyph>
<glyph name="uni1C83" format="2">
  <advance width="296"/>
  <unicode hex="1C83"/>
  <anchor x="148" y="0" name="bottom"/>
  <anchor x="148" y="536" name="top"/>
  <outline>
    <contour>
      <point x="161" y="-10" type="curve" smooth="yes"/>
      <point x="235" y="-10"/>
      <point x="275" y="52"/>
      <point x="275" y="98" type="curve" smooth="yes"/>
      <point x="275" y="107"/>
      <point x="272" y="114"/>
      <point x="261" y="120" type="curve"/>
      <point x="250" y="63"/>
      <point x="224" y="0"/>
      <point x="163" y="0" type="curve" smooth="yes"/>
      <point x="103" y="0"/>
      <point x="65" y="61"/>
      <point x="65" y="261" type="curve" smooth="yes"/>
      <point x="65" y="450"/>
      <point x="96" y="532"/>
      <point x="171" y="532" type="curve" smooth="yes"/>
      <point x="221" y="532"/>
      <point x="238" y="487"/>
      <point x="238" y="402" type="curve"/>
      <point x="255" y="402"/>
      <point x="266" y="405"/>
      <point x="266" y="435" type="curve" smooth="yes"/>
      <point x="266" y="484"/>
      <point x="234" y="542"/>
      <point x="160" y="542" type="curve" smooth="yes"/>
      <point x="88" y="542"/>
      <point x="37" y="483"/>
      <point x="37" y="266" type="curve" smooth="yes"/>
      <point x="37" y="31"/>
      <point x="111" y="-10"/>
    </contour>
  </outline>
</glyph>
<glyph name="uni1C84" format="2">
  <advance width="333"/>
  <unicode hex="1C84"/>
  <anchor x="167" y="0" name="bottom"/>
  <anchor x="167" y="714" name="top"/>
  <outline>
    <contour>
      <point x="69" y="0" type="line"/>
      <point x="231" y="0" type="line"/>
      <point x="231" y="10" type="line"/>
      <point x="223" y="10" type="line" smooth="yes"/>
      <point x="193" y="10"/>
      <point x="177" y="21"/>
      <point x="177" y="48" type="curve" smooth="yes"/>
      <point x="177" y="62"/>
      <point x="175" y="68"/>
      <point x="179" y="89" type="curve" smooth="yes"/>
      <point x="303" y="696" type="line"/>
      <point x="303" y="714" type="line"/>
      <point x="45" y="714" type="line"/>
      <point x="42" y="593" type="line"/>
      <point x="52" y="593" type="line"/>
      <point x="48" y="618" type="line" smooth="yes"/>
      <point x="48" y="685"/>
      <point x="60" y="699"/>
      <point x="120" y="699" type="curve" smooth="yes"/>
      <point x="277" y="699" type="line"/>
      <point x="134" y="36" type="line" smooth="yes"/>
      <point x="134" y="18"/>
      <point x="115" y="10"/>
      <point x="72" y="10" type="curve" smooth="yes"/>
      <point x="69" y="10" type="line"/>
    </contour>
  </outline>
</glyph>
<glyph name="uni1D0F" format="2">
  <advance width="319"/>
  <unicode hex="1D0F"/>
  <anchor x="142" y="0" name="bottom"/>
  <anchor x="142" y="536" name="top"/>
  <outline>
    <contour>
      <point x="163" y="-10" type="curve" smooth="yes"/>
      <point x="231" y="-10"/>
      <point x="289" y="56"/>
      <point x="289" y="267" type="curve" smooth="yes"/>
      <point x="289" y="454"/>
      <point x="241" y="542"/>
      <point x="166" y="542" type="curve" smooth="yes"/>
      <point x="66" y="542"/>
      <point x="37" y="457"/>
      <point x="37" y="266" type="curve" smooth="yes"/>
      <point x="37" y="65"/>
      <point x="81" y="-10"/>
    </contour>
    <contour>
      <point x="165" y="0" type="curve" smooth="yes"/>
      <point x="90" y="0"/>
      <point x="65" y="83"/>
      <point x="65" y="267" type="curve" smooth="yes"/>
      <point x="65" y="455"/>
      <point x="78" y="532"/>
      <point x="162" y="532" type="curve" smooth="yes"/>
      <point x="232" y="532"/>
      <point x="261" y="455"/>
      <point x="261" y="267" type="curve" smooth="yes"/>
      <point x="261" y="83"/>
      <point x="235" y="0"/>
    </contour>
  </outline>
</glyph>
<glyph name="uni1D21" format="2">
  <advance width="395"/>
  <unicode hex="1D21"/>
  <anchor x="148" y="0" name="bottom"/>
  <anchor x="148" y="536" name="top"/>
  <outline>
    <contour>
      <point x="93" y="0" type="line"/>
      <point x="122" y="0" type="line"/>
      <point x="195" y="522" type="line"/>
      <point x="198" y="522" type="line"/>
      <point x="292" y="0" type="line"/>
      <point x="323" y="0" type="line"/>
      <point x="360" y="481" type="line" smooth="yes"/>
      <point x="364" y="526"/>
      <point x="371" y="526"/>
      <point x="404" y="526" type="curve" smooth="yes"/>
      <point x="414" y="526" type="line"/>
      <point x="414" y="536" type="line"/>
      <point x="309" y="536" type="line"/>
      <point x="309" y="526" type="line"/>
      <point x="328" y="526" type="line" smooth="yes"/>
      <point x="349" y="526"/>
      <point x="345" y="515"/>
      <point x="345" y="506" type="curve" smooth="yes"/>
      <point x="345" y="492"/>
      <point x="346" y="464"/>
      <point x="339" y="409" type="curve" smooth="yes"/>
      <point x="349" y="269" type="line" smooth="yes"/>
      <point x="330" y="147"/>
      <point x="317" y="70"/>
      <point x="311" y="21" type="curve"/>
      <point x="309" y="21" type="line"/>
      <point x="304" y="62"/>
      <point x="279" y="204"/>
      <point x="268" y="264" type="curve" smooth="yes"/>
      <point x="226" y="536" type="line"/>
      <point x="184" y="536" type="line"/>
      <point x="152" y="248" type="line" smooth="yes"/>
      <point x="143" y="190"/>
      <point x="118" y="56"/>
      <point x="113" y="20" type="curve"/>
      <point x="110" y="20" type="line"/>
      <point x="113" y="49"/>
      <point x="93" y="176"/>
      <point x="85" y="232" type="curve" smooth="yes"/>
      <point x="77" y="403" type="line" smooth="yes"/>
      <point x="71" y="435"/>
      <point x="66" y="494"/>
      <point x="66" y="507" type="curve" smooth="yes"/>
      <point x="66" y="517"/>
      <point x="67" y="526"/>
      <point x="92" y="526" type="curve" smooth="yes"/>
      <point x="94" y="526" type="line"/>
      <point x="94" y="536" type="line"/>
      <point x="4" y="536" type="line"/>
      <point x="4" y="526" type="line"/>
      <point x="-8" y="526" type="line" smooth="yes"/>
      <point x="27" y="526"/>
      <point x="30" y="521"/>
      <point x="38" y="462" type="curve" smooth="yes"/>
    </contour>
  </outline>
</glyph>
<glyph name="uni1D93" format="2">
  <advance width="274"/>
  <unicode hex="1D93"/>
  <anchor x="132" y="536" name="top"/>
  <anchor x="132" y="0" name="bottom"/>
  <outline>
    <contour>
      <point x="289" y="-194" type="curve" smooth="yes"/>
      <point x="321" y="-194"/>
      <point x="343" y="-173"/>
      <point x="343" y="-140" type="curve" smooth="yes"/>
      <point x="343" y="-121"/>
      <point x="337" y="-109"/>
      <point x="326" y="-108" type="curve"/>
      <point x="330" y="-140"/>
      <point x="315" y="-165"/>
      <point x="282" y="-165" type="curve" smooth="yes"/>
      <point x="251" y="-165"/>
      <point x="241" y="-145"/>
      <point x="241" y="-101" type="curve" smooth="yes"/>
      <point x="241" y="77" type="line"/>
      <point x="231" y="77" type="line"/>
      <point x="231" y="-103" type="line" smooth="yes"/>
      <point x="231" y="-156"/>
      <point x="244" y="-194"/>
    </contour>
    <component base="uni025B"/>
  </outline>
</glyph>
<glyph name="uni1D94" format="2">
  <advance width="269"/>
  <unicode hex="1D94"/>
  <anchor x="106" y="536" name="top"/>
  <anchor x="139" y="0" name="bottom"/>
  <outline>
    <contour>
      <point x="73" y="-194" type="curve" smooth="yes"/>
      <point x="106" y="-194"/>
      <point x="125" y="-173"/>
      <point x="125" y="-138" type="curve" smooth="yes"/>
      <point x="125" y="-121"/>
      <point x="118" y="-109"/>
      <point x="108" y="-108" type="curve"/>
      <point x="112" y="-145"/>
      <point x="96" y="-165"/>
      <point x="68" y="-165" type="curve" smooth="yes"/>
      <point x="42" y="-165"/>
      <point x="33" y="-148"/>
      <point x="33" y="-108" type="curve" smooth="yes"/>
      <point x="33" y="84" type="line"/>
      <point x="23" y="74" type="line"/>
      <point x="23" y="-112" type="line" smooth="yes"/>
      <point x="23" y="-174"/>
      <point x="41" y="-194"/>
    </contour>
    <component base="afii10073"/>
  </outline>
</glyph>
<glyph name="uni1D99" format="2">
  <advance width="365"/>
  <unicode hex="1D99"/>
  <anchor x="182" y="536" name="top"/>
  <anchor x="352" y="536" name="topright"/>
  <anchor x="182" y="0" name="bottom"/>
  <outline>
    <contour>
      <point x="398" y="-194" type="curve" smooth="yes"/>
      <point x="429" y="-194"/>
      <point x="451" y="-173"/>
      <point x="451" y="-140" type="curve" smooth="yes"/>
      <point x="451" y="-121"/>
      <point x="445" y="-109"/>
      <point x="435" y="-108" type="curve"/>
      <point x="439" y="-140"/>
      <point x="424" y="-165"/>
      <point x="391" y="-165" type="curve" smooth="yes"/>
      <point x="360" y="-165"/>
      <point x="349" y="-145"/>
      <point x="349" y="-101" type="curve" smooth="yes"/>
      <point x="349" y="12" type="line"/>
      <point x="339" y="12" type="line"/>
      <point x="339" y="-103" type="line" smooth="yes"/>
      <point x="339" y="-156"/>
      <point x="353" y="-194"/>
    </contour>
    <component base="u"/>
  </outline>
</glyph>
<glyph name="graveacutegrave" format="2">
  <unicode hex="1DC8"/>
  <anchor x="-9" y="529" name="_top"/>
  <anchor x="-9" y="724" name="top"/>
  <outline>
    <contour>
      <point x="-48" y="631" type="line"/>
      <point x="41" y="701" type="line"/>
      <point x="108" y="638" type="line"/>
      <point x="120" y="652" type="line"/>
      <point x="41" y="724" type="line"/>
      <point x="-48" y="657" type="line"/>
      <point x="-113" y="717" type="line"/>
      <point x="-124" y="703" type="line"/>
    </contour>
  </outline>
</glyph>
<glyph name="acutegraveacute" format="2">
  <unicode hex="1DC9"/>
  <anchor x="1" y="529" name="_top"/>
  <anchor x="1" y="724" name="top"/>
  <outline>
    <contour>
      <point x="39" y="630" type="line"/>
      <point x="122" y="702" type="line"/>
      <point x="110" y="717" type="line"/>
      <point x="41" y="655" type="line"/>
      <point x="-46" y="725" type="line"/>
      <point x="-125" y="654" type="line"/>
      <point x="-114" y="641" type="line"/>
      <point x="-45" y="701" type="line"/>
    </contour>
  </outline>
</glyph>
<glyph name="ogonekabove" format="2">
  <unicode hex="1DCE"/>
  <anchor x="-169" y="536" name="_top"/>
  <anchor x="-169" y="771" name="top"/>
  <outline>
    <contour>
      <point x="-202" y="541" type="curve"/>
      <point x="-182" y="541" type="line"/>
      <point x="-162" y="551"/>
      <point x="-116" y="587"/>
      <point x="-116" y="673" type="curve" smooth="yes"/>
      <point x="-116" y="749"/>
      <point x="-144" y="773"/>
      <point x="-187" y="773" type="curve" smooth="yes"/>
      <point x="-200" y="773"/>
      <point x="-209" y="770"/>
      <point x="-222" y="761" type="curve"/>
      <point x="-222" y="750" type="line"/>
      <point x="-207" y="763"/>
      <point x="-195" y="765"/>
      <point x="-186" y="765" type="curve" smooth="yes"/>
      <point x="-156" y="765"/>
      <point x="-146" y="738"/>
      <point x="-146" y="676" type="curve" smooth="yes"/>
      <point x="-146" y="594"/>
      <point x="-164" y="558"/>
    </contour>
  </outline>
</glyph>
<glyph name="uni1E10" format="2">
  <advance width="419"/>
  <unicode hex="1E10"/>
  <anchor x="209" y="-221" name="bottom"/>
  <anchor x="209" y="714" name="top"/>
  <anchor x="399" y="714" name="topright"/>
  <anchor x="209" y="357" name="center"/>
  <outline>
    <contour>
      <point x="178" y="-221" type="curve" smooth="yes"/>
      <point x="232" y="-221"/>
      <point x="255" y="-178"/>
      <point x="255" y="-135" type="curve" smooth="yes"/>
      <point x="255" y="-92"/>
      <point x="241" y="-58"/>
      <point x="190" y="-53" type="curve"/>
      <point x="201" y="3" type="line"/>
      <point x="191" y="3" type="line"/>
      <point x="180" y="-56" type="line"/>
      <point x="211" y="-57"/>
      <point x="224" y="-82"/>
      <point x="224" y="-134" type="curve" smooth="yes"/>
      <point x="224" y="-183"/>
      <point x="206" y="-211"/>
      <point x="175" y="-211" type="curve" smooth="yes"/>
      <point x="168" y="-211"/>
      <point x="153" y="-207"/>
      <point x="140" y="-201" type="curve"/>
      <point x="140" y="-211" type="line"/>
      <point x="153" y="-218"/>
      <point x="164" y="-221"/>
    </contour>
    <component base="D"/>
  </outline>
</glyph>
<glyph name="uni1FBD" format="2">
  <advance width="92"/>
  <unicode hex="1FBD"/>
  <anchor x="35" y="536" name="_top"/>
  <outline>
    <contour>
      <point x="-2" y="552" type="line"/>
      <point x="50" y="577"/>
      <point x="73" y="616"/>
      <point x="73" y="653" type="curve" smooth="yes"/>
      <point x="73" y="682"/>
      <point x="57" y="714"/>
      <point x="27" y="714" type="curve" smooth="yes"/>
      <point x="17" y="714"/>
      <point x="6" y="705"/>
      <point x="6" y="694" type="curve" smooth="yes"/>
      <point x="6" y="670"/>
      <point x="46" y="669"/>
      <point x="46" y="642" type="curve" smooth="yes"/>
      <point x="46" y="589"/>
      <point x="22" y="578"/>
      <point x="-2" y="562" type="curve"/>
    </contour>
  </outline>
</glyph>
<glyph name="pertenthousand" format="2">
  <advance width="1024"/>
  <unicode hex="2031"/>
  <outline>
    <contour>
      <point x="151" y="0" type="line"/>
      <point x="159" y="0" type="line"/>
      <point x="394" y="714" type="line"/>
      <point x="385" y="714" type="line"/>
    </contour>
    <contour>
      <point x="133" y="280" type="curve" smooth="yes"/>
      <point x="203" y="280"/>
      <point x="237" y="352"/>
      <point x="237" y="503" type="curve" smooth="yes"/>
      <point x="237" y="657"/>
      <point x="204" y="724"/>
      <point x="134" y="724" type="curve" smooth="yes"/>
      <point x="64" y="724"/>
      <point x="32" y="654"/>
      <point x="32" y="503" type="curve" smooth="yes"/>
      <point x="32" y="344"/>
      <point x="66" y="280"/>
    </contour>
    <contour>
      <point x="133" y="290" type="curve" smooth="yes"/>
      <point x="73" y="290"/>
      <point x="60" y="364"/>
      <point x="60" y="503" type="curve" smooth="yes"/>
      <point x="60" y="641"/>
      <point x="74" y="714"/>
      <point x="134" y="714" type="curve" smooth="yes"/>
      <point x="199" y="714"/>
      <point x="209" y="641"/>
      <point x="209" y="503" type="curve" smooth="yes"/>
      <point x="209" y="364"/>
      <point x="198" y="290"/>
    </contour>
    <contour>
      <point x="416" y="-10" type="curve" smooth="yes"/>
      <point x="486" y="-10"/>
      <point x="520" y="62"/>
      <point x="520" y="213" type="curve" smooth="yes"/>
      <point x="520" y="367"/>
      <point x="487" y="434"/>
      <point x="417" y="434" type="curve" smooth="yes"/>
      <point x="347" y="434"/>
      <point x="315" y="364"/>
      <point x="315" y="213" type="curve" smooth="yes"/>
      <point x="315" y="54"/>
      <point x="349" y="-10"/>
    </contour>
    <contour>
      <point x="416" y="0" type="curve" smooth="yes"/>
      <point x="356" y="0"/>
      <point x="343" y="74"/>
      <point x="343" y="213" type="curve" smooth="yes"/>
      <point x="343" y="351"/>
      <point x="357" y="424"/>
      <point x="417" y="424" type="curve" smooth="yes"/>
      <point x="482" y="424"/>
      <point x="492" y="351"/>
      <point x="492" y="213" type="curve" smooth="yes"/>
      <point x="492" y="74"/>
      <point x="481" y="0"/>
    </contour>
    <contour>
      <point x="653" y="-10" type="curve" smooth="yes"/>
      <point x="723" y="-10"/>
      <point x="757" y="62"/>
      <point x="757" y="213" type="curve" smooth="yes"/>
      <point x="757" y="367"/>
      <point x="724" y="434"/>
      <point x="654" y="434" type="curve" smooth="yes"/>
      <point x="584" y="434"/>
      <point x="553" y="364"/>
      <point x="553" y="213" type="curve" smooth="yes"/>
      <point x="553" y="54"/>
      <point x="587" y="-10"/>
    </contour>
    <contour>
      <point x="653" y="0" type="curve" smooth="yes"/>
      <point x="593" y="0"/>
      <point x="581" y="74"/>
      <point x="581" y="213" type="curve" smooth="yes"/>
      <point x="581" y="351"/>
      <point x="594" y="424"/>
      <point x="654" y="424" type="curve" smooth="yes"/>
      <point x="719" y="424"/>
      <point x="729" y="351"/>
      <point x="729" y="213" type="curve" smooth="yes"/>
      <point x="729" y="74"/>
      <point x="718" y="0"/>
    </contour>
    <contour>
      <point x="887" y="-10" type="curve" smooth="yes"/>
      <point x="957" y="-10"/>
      <point x="991" y="62"/>
      <point x="991" y="213" type="curve" smooth="yes"/>
      <point x="991" y="367"/>
      <point x="958" y="434"/>
      <point x="888" y="434" type="curve" smooth="yes"/>
      <point x="818" y="434"/>
      <point x="787" y="364"/>
      <point x="787" y="213" type="curve" smooth="yes"/>
      <point x="787" y="54"/>
      <point x="821" y="-10"/>
    </contour>
    <contour>
      <point x="887" y="0" type="curve" smooth="yes"/>
      <point x="827" y="0"/>
      <point x="815" y="74"/>
      <point x="815" y="213" type="curve" smooth="yes"/>
      <point x="815" y="351"/>
      <point x="828" y="424"/>
      <point x="888" y="424" type="curve" smooth="yes"/>
      <point x="953" y="424"/>
      <point x="963" y="351"/>
      <point x="963" y="213" type="curve" smooth="yes"/>
      <point x="963" y="74"/>
      <point x="952" y="0"/>
    </contour>
  </outline>
</glyph>
<glyph name="doubleprimeReversed" format="2">
  <advance width="204"/>
  <unicode hex="2036"/>
  <outline>
    <contour>
      <point x="184" y="479" type="line"/>
      <point x="119" y="714" type="line"/>
      <point x="97" y="714" type="line"/>
      <point x="174" y="479" type="line"/>
    </contour>
    <contour>
      <point x="107" y="479" type="line"/>
      <point x="43" y="714" type="line"/>
      <point x="20" y="714" type="line"/>
      <point x="97" y="479" type="line"/>
    </contour>
  </outline>
</glyph>
<glyph name="guilsinglleft" format="2">
  <advance width="192"/>
  <unicode hex="2039"/>
  <outline>
    <contour>
      <point x="146" y="90" type="line"/>
      <point x="157" y="90" type="line"/>
      <point x="79" y="270" type="line"/>
      <point x="157" y="450" type="line"/>
      <point x="146" y="450" type="line"/>
      <point x="45" y="274" type="line"/>
      <point x="45" y="266" type="line"/>
    </contour>
  </outline>
</glyph>
<glyph name="tironiansignet" format="2">
  <advance width="313"/>
  <unicode hex="204A"/>
  <outline>
    <contour>
      <point x="154" y="-177" type="line"/>
      <point x="180" y="-177" type="line"/>
      <point x="278" y="537" type="line"/>
      <point x="278" y="555" type="line"/>
      <point x="176" y="535"/>
      <point x="150" y="540"/>
      <point x="138" y="540" type="curve" smooth="yes"/>
      <point x="111" y="540"/>
      <point x="71" y="540"/>
      <point x="35" y="564" type="curve"/>
      <point x="31" y="562"/>
      <point x="30" y="561"/>
      <point x="30" y="555" type="curve" smooth="yes"/>
      <point x="30" y="521"/>
      <point x="80" y="517"/>
      <point x="146" y="517" type="curve" smooth="yes"/>
      <point x="196" y="517"/>
      <point x="211" y="520"/>
      <point x="250" y="525" type="curve"/>
    </contour>
  </outline>
</glyph>
<glyph name="threedotpunctuation" format="2">
  <advance width="383"/>
  <unicode hex="2056"/>
  <outline>
    <contour>
      <point x="316" y="342" type="curve" smooth="yes"/>
      <point x="328" y="342"/>
      <point x="339" y="351"/>
      <point x="339" y="382" type="curve" smooth="yes"/>
      <point x="339" y="412"/>
      <point x="328" y="420"/>
      <point x="316" y="420" type="curve" smooth="yes"/>
      <point x="304" y="420"/>
      <point x="293" y="412"/>
      <point x="293" y="382" type="curve" smooth="yes"/>
      <point x="293" y="351"/>
      <point x="304" y="342"/>
    </contour>
    <contour>
      <point x="66" y="172" type="curve" smooth="yes"/>
      <point x="80" y="172"/>
      <point x="89" y="181"/>
      <point x="89" y="212" type="curve" smooth="yes"/>
      <point x="89" y="242"/>
      <point x="80" y="250"/>
      <point x="66" y="250" type="curve" smooth="yes"/>
      <point x="54" y="250"/>
      <point x="43" y="242"/>
      <point x="43" y="212" type="curve" smooth="yes"/>
      <point x="43" y="181"/>
      <point x="54" y="172"/>
    </contour>
    <contour>
      <point x="316" y="-8" type="curve" smooth="yes"/>
      <point x="328" y="-8"/>
      <point x="339" y="1"/>
      <point x="339" y="32" type="curve" smooth="yes"/>
      <point x="339" y="62"/>
      <point x="328" y="70"/>
      <point x="316" y="70" type="curve" smooth="yes"/>
      <point x="304" y="70"/>
      <point x="293" y="62"/>
      <point x="293" y="32" type="curve" smooth="yes"/>
      <point x="293" y="1"/>
      <point x="304" y="-8"/>
    </contour>
  </outline>
</glyph>
<glyph name="dottedcross" format="2">
  <advance width="415"/>
  <unicode hex="205C"/>
  <outline>
    <contour>
      <point x="70" y="0" type="curve" smooth="yes"/>
      <point x="83" y="0"/>
      <point x="96" y="11"/>
      <point x="96" y="38" type="curve" smooth="yes"/>
      <point x="96" y="68"/>
      <point x="83" y="80"/>
      <point x="70" y="80" type="curve" smooth="yes"/>
      <point x="52" y="80"/>
      <point x="39" y="68"/>
      <point x="39" y="38" type="curve" smooth="yes"/>
      <point x="39" y="11"/>
      <point x="52" y="0"/>
    </contour>
    <contour>
      <point x="70" y="456" type="curve" smooth="yes"/>
      <point x="83" y="456"/>
      <point x="96" y="467"/>
      <point x="96" y="495" type="curve" smooth="yes"/>
      <point x="96" y="525"/>
      <point x="83" y="536"/>
      <point x="70" y="536" type="curve" smooth="yes"/>
      <point x="52" y="536"/>
      <point x="39" y="525"/>
      <point x="39" y="495" type="curve" smooth="yes"/>
      <point x="39" y="467"/>
      <point x="52" y="456"/>
    </contour>
    <contour>
      <point x="350" y="0" type="curve" smooth="yes"/>
      <point x="362" y="0"/>
      <point x="375" y="11"/>
      <point x="375" y="38" type="curve" smooth="yes"/>
      <point x="375" y="68"/>
      <point x="362" y="80"/>
      <point x="350" y="80" type="curve" smooth="yes"/>
      <point x="331" y="80"/>
      <point x="319" y="68"/>
      <point x="319" y="38" type="curve" smooth="yes"/>
      <point x="319" y="11"/>
      <point x="331" y="0"/>
    </contour>
    <contour>
      <point x="350" y="456" type="curve" smooth="yes"/>
      <point x="362" y="456"/>
      <point x="375" y="467"/>
      <point x="375" y="495" type="curve" smooth="yes"/>
      <point x="375" y="525"/>
      <point x="362" y="536"/>
      <point x="350" y="536" type="curve" smooth="yes"/>
      <point x="331" y="536"/>
      <point x="319" y="525"/>
      <point x="319" y="495" type="curve" smooth="yes"/>
      <point x="319" y="467"/>
      <point x="331" y="456"/>
    </contour>
    <contour>
      <point x="191" y="0" type="line"/>
      <point x="211" y="0" type="line"/>
      <point x="211" y="259" type="line"/>
      <point x="359" y="259" type="line"/>
      <point x="359" y="279" type="line"/>
      <point x="211" y="279" type="line"/>
      <point x="211" y="536" type="line"/>
      <point x="191" y="536" type="line"/>
      <point x="191" y="279" type="line"/>
      <point x="39" y="279" type="line"/>
      <point x="39" y="259" type="line"/>
      <point x="191" y="259" type="line"/>
    </contour>
  </outline>
</glyph>
<glyph name="uni205E" format="2">
  <advance width="165"/>
  <unicode hex="205E"/>
  <outline>
    <contour>
      <point x="79" y="649" type="curve" smooth="yes"/>
      <point x="102" y="649"/>
      <point x="106" y="662"/>
      <point x="106" y="686" type="curve" smooth="yes"/>
      <point x="106" y="711"/>
      <point x="102" y="724"/>
      <point x="79" y="724" type="curve" smooth="yes"/>
      <point x="56" y="724"/>
      <point x="52" y="711"/>
      <point x="52" y="686" type="curve" smooth="yes"/>
      <point x="52" y="662"/>
      <point x="56" y="649"/>
    </contour>
    <contour>
      <point x="79" y="-17" type="curve" smooth="yes"/>
      <point x="102" y="-17"/>
      <point x="106" y="-4"/>
      <point x="106" y="20" type="curve" smooth="yes"/>
      <point x="106" y="45"/>
      <point x="102" y="58"/>
      <point x="79" y="58" type="curve" smooth="yes"/>
      <point x="56" y="58"/>
      <point x="52" y="45"/>
      <point x="52" y="20" type="curve" smooth="yes"/>
      <point x="52" y="-4"/>
      <point x="56" y="-17"/>
    </contour>
    <contour>
      <point x="79" y="210" type="curve" smooth="yes"/>
      <point x="102" y="210"/>
      <point x="106" y="223"/>
      <point x="106" y="245" type="curve" smooth="yes"/>
      <point x="106" y="270"/>
      <point x="102" y="285"/>
      <point x="79" y="285" type="curve" smooth="yes"/>
      <point x="56" y="285"/>
      <point x="52" y="270"/>
      <point x="52" y="245" type="curve" smooth="yes"/>
      <point x="52" y="223"/>
      <point x="56" y="210"/>
    </contour>
    <contour>
      <point x="79" y="430" type="curve" smooth="yes"/>
      <point x="102" y="430"/>
      <point x="106" y="442"/>
      <point x="106" y="465" type="curve" smooth="yes"/>
      <point x="106" y="490"/>
      <point x="102" y="505"/>
      <point x="79" y="505" type="curve" smooth="yes"/>
      <point x="56" y="505"/>
      <point x="52" y="490"/>
      <point x="52" y="465" type="curve" smooth="yes"/>
      <point x="52" y="442"/>
      <point x="56" y="430"/>
    </contour>
  </outline>
</glyph>
<glyph name="foursuperior" format="2">
  <advance width="238"/>
  <unicode hex="2074"/>
  <outline>
    <contour>
      <point x="87" y="385" type="line"/>
      <point x="195" y="385" type="line"/>
      <point x="195" y="395" type="line"/>
      <point x="185" y="395" type="line" smooth="yes"/>
      <point x="157" y="395"/>
      <point x="158" y="406"/>
      <point x="158" y="468" type="curve" smooth="yes"/>
      <point x="158" y="522" type="line"/>
      <point x="220" y="522" type="line"/>
      <point x="220" y="537" type="line"/>
      <point x="158" y="537" type="line"/>
      <point x="158" y="817" type="line"/>
      <point x="126" y="817" type="line"/>
      <point x="12" y="537" type="line"/>
      <point x="12" y="522" type="line"/>
      <point x="129" y="522" type="line"/>
      <point x="129" y="468" type="line" smooth="yes"/>
      <point x="129" y="406"/>
      <point x="133" y="395"/>
      <point x="105" y="395" type="curve" smooth="yes"/>
      <point x="87" y="395" type="line"/>
    </contour>
    <contour>
      <point x="22" y="537" type="line"/>
      <point x="120" y="764" type="line" smooth="yes"/>
      <point x="122" y="773"/>
      <point x="127" y="787"/>
      <point x="132" y="801" type="curve"/>
      <point x="130" y="760"/>
      <point x="129" y="730"/>
      <point x="129" y="688" type="curve" smooth="yes"/>
      <point x="129" y="537" type="line"/>
    </contour>
  </outline>
</glyph>
<glyph name="uni20A6" format="2">
  <advance width="452"/>
  <unicode hex="20A6"/>
  <outline>
    <contour>
      <point x="50" y="0" type="line"/>
      <point x="166" y="0" type="line"/>
      <point x="166" y="10" type="line"/>
      <point x="161" y="10" type="line" smooth="yes"/>
      <point x="111" y="10"/>
      <point x="104" y="21"/>
      <point x="104" y="98" type="curve" smooth="yes"/>
      <point x="104" y="305" type="line"/>
      <point x="222" y="305" type="line"/>
      <point x="317" y="0" type="line"/>
      <point x="352" y="0" type="line"/>
      <point x="352" y="305" type="line"/>
      <point x="419" y="305" type="line"/>
      <point x="419" y="315" type="line"/>
      <point x="352" y="315" type="line"/>
      <point x="352" y="411" type="line"/>
      <point x="419" y="411" type="line"/>
      <point x="419" y="421" type="line"/>
      <point x="352" y="421" type="line"/>
      <point x="352" y="617" type="line" smooth="yes"/>
      <point x="352" y="693"/>
      <point x="360" y="704"/>
      <point x="416" y="704" type="curve" smooth="yes"/>
      <point x="396" y="704" type="line"/>
      <point x="396" y="714" type="line"/>
      <point x="285" y="714" type="line"/>
      <point x="285" y="704" type="line"/>
      <point x="282" y="704" type="line" smooth="yes"/>
      <point x="337" y="704"/>
      <point x="342" y="693"/>
      <point x="342" y="617" type="curve" smooth="yes"/>
      <point x="342" y="421" type="line"/>
      <point x="217" y="421" type="line"/>
      <point x="125" y="714" type="line"/>
      <point x="50" y="714" type="line"/>
      <point x="50" y="704" type="line"/>
      <point x="37" y="704" type="line" smooth="yes"/>
      <point x="91" y="704"/>
      <point x="94" y="693"/>
      <point x="94" y="617" type="curve" smooth="yes"/>
      <point x="94" y="421" type="line"/>
      <point x="30" y="421" type="line"/>
      <point x="30" y="411" type="line"/>
      <point x="94" y="411" type="line"/>
      <point x="94" y="315" type="line"/>
      <point x="30" y="315" type="line"/>
      <point x="30" y="305" type="line"/>
      <point x="94" y="305" type="line"/>
      <point x="94" y="98" type="line" smooth="yes"/>
      <point x="94" y="21"/>
      <point x="91" y="10"/>
      <point x="37" y="10" type="curve" smooth="yes"/>
      <point x="50" y="10" type="line"/>
    </contour>
    <contour>
      <point x="104" y="315" type="line"/>
      <point x="104" y="411" type="line"/>
      <point x="190" y="411" type="line"/>
      <point x="219" y="315" type="line"/>
    </contour>
    <contour>
      <point x="342" y="23" type="line"/>
      <point x="251" y="305" type="line"/>
      <point x="342" y="305" type="line"/>
    </contour>
    <contour>
      <point x="104" y="421" type="line"/>
      <point x="104" y="679" type="line"/>
      <point x="187" y="421" type="line"/>
    </contour>
    <contour>
      <point x="247" y="315" type="line"/>
      <point x="221" y="411" type="line"/>
      <point x="342" y="411" type="line"/>
      <point x="342" y="315" type="line"/>
    </contour>
  </outline>
</glyph>
<glyph name="scriptg" format="2">
  <advance width="580"/>
  <unicode hex="210A"/>
  <outline>
    <contour>
      <point x="9" y="-389" type="curve" smooth="yes"/>
      <point x="182" y="-389"/>
      <point x="296" y="-148"/>
      <point x="296" y="-148" type="curve"/>
      <point x="374" y="-1" type="line"/>
      <point x="482" y="55"/>
      <point x="558" y="151"/>
      <point x="568" y="175" type="curve"/>
      <point x="548" y="175" type="line"/>
      <point x="528" y="148"/>
      <point x="465" y="74"/>
      <point x="387" y="28" type="curve"/>
      <point x="593" y="388" type="line"/>
      <point x="475" y="388" type="line"/>
      <point x="429" y="324" type="line"/>
      <point x="429" y="377"/>
      <point x="403" y="397"/>
      <point x="349" y="397" type="curve" smooth="yes"/>
      <point x="272" y="397"/>
      <point x="209" y="352"/>
      <point x="162" y="298" type="curve" smooth="yes"/>
      <point x="123" y="253"/>
      <point x="86" y="208"/>
      <point x="39" y="158" type="curve"/>
      <point x="52" y="145" type="line"/>
      <point x="52" y="145"/>
      <point x="117" y="209"/>
      <point x="117" y="209" type="curve"/>
      <point x="100" y="187"/>
      <point x="83" y="146"/>
      <point x="83" y="110" type="curve" smooth="yes"/>
      <point x="83" y="65"/>
      <point x="98" y="-9"/>
      <point x="170" y="-9" type="curve" smooth="yes"/>
      <point x="230" y="-9"/>
      <point x="279" y="37"/>
      <point x="295" y="55" type="curve"/>
      <point x="261" y="-16" type="line"/>
      <point x="167" y="-58"/>
      <point x="-85" y="-186"/>
      <point x="-85" y="-295" type="curve" smooth="yes"/>
      <point x="-85" y="-327"/>
      <point x="-58" y="-389"/>
    </contour>
    <contour>
      <point x="8" y="-371" type="curve" smooth="yes"/>
      <point x="-16" y="-371"/>
      <point x="-41" y="-361"/>
      <point x="-41" y="-320" type="curve" smooth="yes"/>
      <point x="-41" y="-190"/>
      <point x="220" y="-58"/>
      <point x="248" y="-44" type="curve"/>
      <point x="169" y="-198" type="line" smooth="yes"/>
      <point x="118" y="-297"/>
      <point x="75" y="-371"/>
    </contour>
    <contour>
      <point x="181" y="11" type="curve" smooth="yes"/>
      <point x="170" y="11"/>
      <point x="155" y="14"/>
      <point x="155" y="32" type="curve" smooth="yes"/>
      <point x="155" y="83"/>
      <point x="291" y="374"/>
      <point x="374" y="374" type="curve" smooth="yes"/>
      <point x="395" y="374"/>
      <point x="408" y="360"/>
      <point x="408" y="334" type="curve" smooth="yes"/>
      <point x="408" y="291"/>
      <point x="382" y="239"/>
      <point x="360" y="194" type="curve" smooth="yes"/>
      <point x="317" y="106"/>
      <point x="247" y="11"/>
    </contour>
  </outline>
</glyph>
<glyph name="uni2117" format="2">
  <advance width="507"/>
  <unicode hex="2117"/>
  <outline>
    <contour>
      <point x="149" y="141" type="line"/>
      <point x="274" y="141" type="line"/>
      <point x="274" y="151" type="line"/>
      <point x="278" y="151" type="line" smooth="yes"/>
      <point x="229" y="151"/>
      <point x="219" y="158"/>
      <point x="219" y="234" type="curve" smooth="yes"/>
      <point x="219" y="301" type="line"/>
      <point x="234" y="301" type="line" smooth="yes"/>
      <point x="345" y="301"/>
      <point x="375" y="372"/>
      <point x="375" y="444" type="curve" smooth="yes"/>
      <point x="375" y="527"/>
      <point x="341" y="573"/>
      <point x="268" y="573" type="curve" smooth="yes"/>
      <point x="149" y="573" type="line"/>
      <point x="149" y="563" type="line"/>
      <point x="129" y="563" type="line" smooth="yes"/>
      <point x="178" y="563"/>
      <point x="186" y="554"/>
      <point x="186" y="485" type="curve" smooth="yes"/>
      <point x="186" y="239" type="line" smooth="yes"/>
      <point x="186" y="160"/>
      <point x="178" y="151"/>
      <point x="131" y="151" type="curve" smooth="yes"/>
      <point x="149" y="151" type="line"/>
    </contour>
    <contour>
      <point x="218" y="311" type="line"/>
      <point x="218" y="563" type="line"/>
      <point x="266" y="563" type="line" smooth="yes"/>
      <point x="329" y="563"/>
      <point x="347" y="525"/>
      <point x="347" y="443" type="curve" smooth="yes"/>
      <point x="347" y="363"/>
      <point x="326" y="311"/>
      <point x="239" y="311" type="curve" smooth="yes"/>
    </contour>
    <contour>
      <point x="255" y="-10" type="curve" smooth="yes"/>
      <point x="404" y="-10"/>
      <point x="482" y="121"/>
      <point x="482" y="359" type="curve" smooth="yes"/>
      <point x="482" y="596"/>
      <point x="406" y="725"/>
      <point x="257" y="725" type="curve" smooth="yes"/>
      <point x="105" y="725"/>
      <point x="25" y="597"/>
      <point x="25" y="358" type="curve" smooth="yes"/>
      <point x="25" y="121"/>
      <point x="102" y="-10"/>
    </contour>
    <contour>
      <point x="257" y="0" type="curve" smooth="yes"/>
      <point x="106" y="0"/>
      <point x="37" y="129"/>
      <point x="37" y="360" type="curve" smooth="yes"/>
      <point x="37" y="590"/>
      <point x="111" y="715"/>
      <point x="255" y="715" type="curve" smooth="yes"/>
      <point x="397" y="715"/>
      <point x="470" y="589"/>
      <point x="470" y="358" type="curve" smooth="yes"/>
      <point x="470" y="126"/>
      <point x="400" y="0"/>
    </contour>
  </outline>
</glyph>
<glyph name="informationsource" format="2">
  <advance width="210"/>
  <unicode hex="2139"/>
  <outline>
    <contour>
      <point x="10" y="0" type="line"/>
      <point x="200" y="0" type="line"/>
      <point x="200" y="53" type="line"/>
      <point x="193" y="53" type="line" smooth="yes"/>
      <point x="176" y="53"/>
      <point x="152" y="61"/>
      <point x="152" y="118" type="curve" smooth="yes"/>
      <point x="152" y="536" type="line"/>
      <point x="10" y="536" type="line"/>
      <point x="10" y="483" type="line"/>
      <point x="17" y="483" type="line" smooth="yes"/>
      <point x="34" y="483"/>
      <point x="60" y="475"/>
      <point x="60" y="422" type="curve" smooth="yes"/>
      <point x="60" y="118" type="line" smooth="yes"/>
      <point x="60" y="61"/>
      <point x="35" y="53"/>
      <point x="17" y="53" type="curve" smooth="yes"/>
      <point x="10" y="53" type="line"/>
    </contour>
    <contour>
      <point x="104" y="626" type="curve" smooth="yes"/>
      <point x="130" y="626"/>
      <point x="154" y="649"/>
      <point x="154" y="698" type="curve" smooth="yes"/>
      <point x="154" y="749"/>
      <point x="130" y="770"/>
      <point x="104" y="770" type="curve" smooth="yes"/>
      <point x="73" y="770"/>
      <point x="51" y="749"/>
      <point x="51" y="698" type="curve"/>
      <point x="51" y="649"/>
      <point x="73" y="626"/>
    </contour>
  </outline>
</glyph>
<glyph name="uni2C7F" format="2">
  <advance width="316"/>
  <unicode hex="2C7F"/>
  <outline>
    <contour>
      <point x="242" y="-240" type="curve" smooth="yes"/>
      <point x="286" y="-240"/>
      <point x="304" y="-197"/>
      <point x="304" y="-164" type="curve" smooth="yes"/>
      <point x="304" y="-141"/>
      <point x="293" y="-127"/>
      <point x="282" y="-127" type="curve"/>
      <point x="282" y="-181"/>
      <point x="273" y="-205"/>
      <point x="248" y="-205" type="curve" smooth="yes"/>
      <point x="212" y="-205"/>
      <point x="213" y="-161"/>
      <point x="183" y="-91" type="curve" smooth="yes"/>
      <point x="146" y="-8"/>
      <point x="111" y="18"/>
      <point x="46" y="18" type="curve"/>
      <point x="290" y="698" type="line"/>
      <point x="290" y="714" type="line"/>
      <point x="34" y="714" type="line"/>
      <point x="30" y="574" type="line"/>
      <point x="40" y="574" type="line"/>
      <point x="40" y="630" type="line" smooth="yes"/>
      <point x="40" y="685"/>
      <point x="49" y="699"/>
      <point x="101" y="699" type="curve" smooth="yes"/>
      <point x="261" y="699" type="line"/>
      <point x="18" y="22" type="line"/>
      <point x="18" y="0" type="line"/>
      <point x="50" y="0" type="line" smooth="yes"/>
      <point x="98" y="0"/>
      <point x="133" y="-15"/>
      <point x="164" y="-106" type="curve" smooth="yes"/>
      <point x="184" y="-172"/>
      <point x="188" y="-240"/>
    </contour>
  </outline>
</glyph>
<glyph name="dottedtranspositionmarker" format="2">
  <advance width="298"/>
  <unicode hex="2E08"/>
  <outline>
    <contour>
      <point x="114" y="212" type="curve" smooth="yes"/>
      <point x="173" y="212"/>
      <point x="211" y="261"/>
      <point x="211" y="343" type="curve" smooth="yes"/>
      <point x="211" y="413"/>
      <point x="183" y="453"/>
      <point x="156" y="491" type="curve" smooth="yes"/>
      <point x="129" y="526"/>
      <point x="107" y="560"/>
      <point x="107" y="618" type="curve" smooth="yes"/>
      <point x="107" y="688"/>
      <point x="139" y="729"/>
      <point x="182" y="729" type="curve" smooth="yes"/>
      <point x="208" y="729"/>
      <point x="235" y="714"/>
      <point x="260" y="690" type="curve"/>
      <point x="269" y="708" type="line"/>
      <point x="243" y="733"/>
      <point x="214" y="749"/>
      <point x="183" y="749" type="curve" smooth="yes"/>
      <point x="127" y="749"/>
      <point x="86" y="698"/>
      <point x="86" y="616" type="curve" smooth="yes"/>
      <point x="86" y="551"/>
      <point x="110" y="513"/>
      <point x="139" y="472" type="curve" smooth="yes"/>
      <point x="170" y="428"/>
      <point x="190" y="396"/>
      <point x="190" y="339" type="curve" smooth="yes"/>
      <point x="190" y="272"/>
      <point x="161" y="232"/>
      <point x="113" y="232" type="curve" smooth="yes"/>
      <point x="86" y="232"/>
      <point x="57" y="244"/>
      <point x="36" y="264" type="curve"/>
      <point x="28" y="246" type="line"/>
      <point x="51" y="225"/>
      <point x="83" y="212"/>
    </contour>
    <contour>
      <point x="231" y="520" type="curve" smooth="yes"/>
      <point x="247" y="520"/>
      <point x="261" y="534"/>
      <point x="261" y="570" type="curve" smooth="yes"/>
      <point x="261" y="603"/>
      <point x="250" y="620"/>
      <point x="231" y="620" type="curve" smooth="yes"/>
      <point x="210" y="620"/>
      <point x="201" y="602"/>
      <point x="201" y="570" type="curve" smooth="yes"/>
      <point x="201" y="534"/>
      <point x="215" y="520"/>
    </contour>
  </outline>
</glyph>
<glyph name="leftraisedomissionbracket" format="2">
  <advance width="304"/>
  <unicode hex="2E0C"/>
  <outline>
    <contour>
      <point x="255" y="318" type="line"/>
      <point x="272" y="329" type="line"/>
      <point x="48" y="698" type="line"/>
      <point x="30" y="688" type="line"/>
    </contour>
  </outline>
</glyph>
<glyph name="leftlowparaphrasebracket" format="2">
  <advance width="297"/>
  <unicode hex="2E1C"/>
  <outline>
    <contour>
      <point x="252" y="-85" type="line"/>
      <point x="270" y="-74" type="line"/>
      <point x="45" y="295" type="line"/>
      <point x="28" y="285" type="line"/>
    </contour>
  </outline>
</glyph>
<glyph name="rightverticalbarwithquill" format="2">
  <advance width="336"/>
  <unicode hex="2E21"/>
  <outline>
    <contour>
      <point x="155" y="-240" type="line"/>
      <point x="175" y="-240" type="line"/>
      <point x="175" y="760" type="line"/>
      <point x="155" y="760" type="line"/>
      <point x="155" y="267" type="line"/>
      <point x="35" y="267" type="line"/>
      <point x="35" y="257" type="line"/>
      <point x="155" y="257" type="line"/>
    </contour>
  </outline>
</glyph>
<glyph name="twodotsoveronedotpunctuation" format="2">
  <advance width="350"/>
  <unicode hex="2E2A"/>
  <outline>
    <contour>
      <point x="38" y="340" type="curve" smooth="yes"/>
      <point x="50" y="340"/>
      <point x="61" y="348"/>
      <point x="61" y="378" type="curve" smooth="yes"/>
      <point x="61" y="409"/>
      <point x="50" y="418"/>
      <point x="38" y="418" type="curve" smooth="yes"/>
      <point x="26" y="418"/>
      <point x="13" y="409"/>
      <point x="13" y="378" type="curve" smooth="yes"/>
      <point x="13" y="348"/>
      <point x="26" y="340"/>
    </contour>
    <contour>
      <point x="311" y="340" type="curve" smooth="yes"/>
      <point x="325" y="340"/>
      <point x="336" y="348"/>
      <point x="336" y="378" type="curve" smooth="yes"/>
      <point x="336" y="409"/>
      <point x="325" y="418"/>
      <point x="311" y="418" type="curve" smooth="yes"/>
      <point x="301" y="418"/>
      <point x="288" y="409"/>
      <point x="288" y="378" type="curve" smooth="yes"/>
      <point x="288" y="348"/>
      <point x="301" y="340"/>
    </contour>
    <contour>
      <point x="175" y="-8" type="curve" smooth="yes"/>
      <point x="186" y="-8"/>
      <point x="198" y="0"/>
      <point x="198" y="30" type="curve" smooth="yes"/>
      <point x="198" y="61"/>
      <point x="186" y="70"/>
      <point x="175" y="70" type="curve" smooth="yes"/>
      <point x="162" y="70"/>
      <point x="152" y="61"/>
      <point x="152" y="30" type="curve" smooth="yes"/>
      <point x="152" y="0"/>
      <point x="162" y="-8"/>
    </contour>
  </outline>
</glyph>
<glyph name="daggerwithrightguard" format="2">
  <advance width="255"/>
  <unicode hex="2E37"/>
  <outline>
    <contour>
      <point x="106" y="-111" type="curve"/>
      <point x="116" y="-111" type="line"/>
      <point x="116" y="262"/>
      <point x="128" y="438"/>
      <point x="125" y="398" type="curve"/>
      <point x="119" y="511" type="line"/>
      <point x="218" y="503" type="line"/>
      <point x="218" y="531" type="line"/>
      <point x="119" y="521" type="line"/>
      <point x="127" y="760" type="line"/>
      <point x="99" y="760" type="line"/>
      <point x="101" y="516" type="line"/>
      <point x="97" y="398" type="line"/>
      <point x="94" y="438"/>
      <point x="106" y="262"/>
    </contour>
  </outline>
</glyph>
<glyph name="uniA649" format="2">
  <advance width="317"/>
  <unicode hex="A649"/>
  <outline>
    <contour>
      <point x="10" y="0" type="line"/>
      <point x="119" y="0" type="line"/>
      <point x="119" y="10" type="line"/>
      <point x="133" y="10" type="line" smooth="yes"/>
      <point x="103" y="10"/>
      <point x="86" y="17"/>
      <point x="86" y="62" type="curve" smooth="yes"/>
      <point x="86" y="192" type="line" smooth="yes"/>
      <point x="86" y="311"/>
      <point x="119" y="359"/>
      <point x="165" y="359" type="curve" smooth="yes"/>
      <point x="244" y="359"/>
      <point x="247" y="264"/>
      <point x="247" y="202" type="curve" smooth="yes"/>
      <point x="247" y="59" type="line" smooth="yes"/>
      <point x="247" y="17"/>
      <point x="229" y="10"/>
      <point x="200" y="10" type="curve" smooth="yes"/>
      <point x="202" y="10" type="line"/>
      <point x="202" y="0" type="line"/>
      <point x="305" y="0" type="line"/>
      <point x="305" y="10" type="line"/>
      <point x="315" y="10" type="line" smooth="yes"/>
      <point x="285" y="10"/>
      <point x="270" y="17"/>
      <point x="270" y="62" type="curve" smooth="yes"/>
      <point x="270" y="208" type="line" smooth="yes"/>
      <point x="270" y="276"/>
      <point x="249" y="361"/>
      <point x="180" y="367" type="curve"/>
      <point x="180" y="429" type="line"/>
      <point x="219" y="429" type="line"/>
      <point x="219" y="439" type="line"/>
      <point x="180" y="439" type="line"/>
      <point x="180" y="439" type="line" smooth="yes"/>
      <point x="180" y="519"/>
      <point x="188" y="526"/>
      <point x="232" y="526" type="curve" smooth="yes"/>
      <point x="219" y="526" type="line"/>
      <point x="219" y="536" type="line"/>
      <point x="116" y="536" type="line"/>
      <point x="116" y="526" type="line"/>
      <point x="99" y="526" type="line" smooth="yes"/>
      <point x="144" y="526"/>
      <point x="152" y="519"/>
      <point x="152" y="439" type="curve" smooth="yes"/>
      <point x="152" y="439" type="line"/>
      <point x="116" y="439" type="line"/>
      <point x="116" y="429" type="line"/>
      <point x="152" y="429" type="line"/>
      <point x="152" y="367" type="line"/>
      <point x="97" y="359"/>
      <point x="52" y="295"/>
      <point x="52" y="193" type="curve" smooth="yes"/>
      <point x="52" y="57" type="line" smooth="yes"/>
      <point x="52" y="17"/>
      <point x="36" y="10"/>
      <point x="0" y="10" type="curve" smooth="yes"/>
      <point x="10" y="10" type="line"/>
    </contour>
  </outline>
</glyph>
<glyph name="uniA655" format="2">
  <advance width="490"/>
  <unicode hex="A655"/>
  <outline>
    <contour>
      <point x="156" y="-10" type="curve" smooth="yes"/>
      <point x="230" y="-10"/>
      <point x="276" y="73"/>
      <point x="276" y="273" type="curve"/>
      <point x="382" y="273" type="line"/>
      <point x="382" y="87" type="line" smooth="yes"/>
      <point x="382" y="16"/>
      <point x="377" y="10"/>
      <point x="315" y="10" type="curve" smooth="yes"/>
      <point x="325" y="10" type="line"/>
      <point x="325" y="0" type="line"/>
      <point x="479" y="0" type="line"/>
      <point x="479" y="10" type="line"/>
      <point x="470" y="10" type="line" smooth="yes"/>
      <point x="417" y="10"/>
      <point x="410" y="16"/>
      <point x="410" y="87" type="curve" smooth="yes"/>
      <point x="410" y="449" type="line" smooth="yes"/>
      <point x="410" y="519"/>
      <point x="417" y="526"/>
      <point x="470" y="526" type="curve" smooth="yes"/>
      <point x="479" y="526" type="line"/>
      <point x="479" y="536" type="line"/>
      <point x="325" y="536" type="line"/>
      <point x="325" y="526" type="line"/>
      <point x="323" y="526" type="line" smooth="yes"/>
      <point x="375" y="526"/>
      <point x="382" y="519"/>
      <point x="382" y="449" type="curve" smooth="yes"/>
      <point x="382" y="283" type="line"/>
      <point x="276" y="283" type="line"/>
      <point x="274" y="455"/>
      <point x="240" y="542"/>
      <point x="152" y="542" type="curve" smooth="yes"/>
      <point x="69" y="542"/>
      <point x="38" y="446"/>
      <point x="38" y="267" type="curve" smooth="yes"/>
      <point x="38" y="69"/>
      <point x="75" y="-10"/>
    </contour>
    <contour>
      <point x="156" y="0" type="curve" smooth="yes"/>
      <point x="84" y="0"/>
      <point x="66" y="85"/>
      <point x="66" y="267" type="curve" smooth="yes"/>
      <point x="67" y="449"/>
      <point x="85" y="532"/>
      <point x="154" y="532" type="curve" smooth="yes"/>
      <point x="228" y="532"/>
      <point x="248" y="446"/>
      <point x="248" y="267" type="curve" smooth="yes"/>
      <point x="248" y="78"/>
      <point x="213" y="0"/>
    </contour>
  </outline>
</glyph>
<glyph name="uniA657" format="2">
  <advance width="515"/>
  <unicode hex="A657"/>
  <outline>
    <contour>
      <point x="317" y="-10" type="curve" smooth="yes"/>
      <point x="351" y="-10"/>
      <point x="393" y="15"/>
      <point x="415" y="110" type="curve"/>
      <point x="417" y="110" type="line"/>
      <point x="417" y="0" type="line"/>
      <point x="484" y="0" type="line"/>
      <point x="484" y="10" type="line"/>
      <point x="485" y="10" type="line" smooth="yes"/>
      <point x="458" y="10"/>
      <point x="442" y="15"/>
      <point x="442" y="88" type="curve" smooth="yes"/>
      <point x="442" y="353" type="line" smooth="yes"/>
      <point x="442" y="503"/>
      <point x="404" y="542"/>
      <point x="353" y="542" type="curve" smooth="yes"/>
      <point x="305" y="542"/>
      <point x="251" y="505"/>
      <point x="251" y="439" type="curve" smooth="yes"/>
      <point x="251" y="411"/>
      <point x="268" y="395"/>
      <point x="280" y="395" type="curve"/>
      <point x="280" y="503"/>
      <point x="311" y="532"/>
      <point x="348" y="532" type="curve" smooth="yes"/>
      <point x="381" y="532"/>
      <point x="414" y="508"/>
      <point x="414" y="371" type="curve" smooth="yes"/>
      <point x="414" y="303" type="line"/>
      <point x="365" y="300" type="line" smooth="yes"/>
      <point x="330" y="298"/>
      <point x="304" y="291"/>
      <point x="282" y="279" type="curve"/>
      <point x="108" y="279" type="line"/>
      <point x="108" y="449" type="line" smooth="yes"/>
      <point x="108" y="519"/>
      <point x="114" y="526"/>
      <point x="166" y="526" type="curve" smooth="yes"/>
      <point x="168" y="526" type="line"/>
      <point x="168" y="536" type="line"/>
      <point x="14" y="536" type="line"/>
      <point x="14" y="526" type="line"/>
      <point x="19" y="526" type="line" smooth="yes"/>
      <point x="73" y="526"/>
      <point x="80" y="519"/>
      <point x="80" y="449" type="curve" smooth="yes"/>
      <point x="80" y="87" type="line" smooth="yes"/>
      <point x="80" y="16"/>
      <point x="73" y="10"/>
      <point x="19" y="10" type="curve" smooth="yes"/>
      <point x="14" y="10" type="line"/>
      <point x="14" y="0" type="line"/>
      <point x="168" y="0" type="line"/>
      <point x="168" y="10" type="line"/>
      <point x="175" y="10" type="line" smooth="yes"/>
      <point x="113" y="10"/>
      <point x="108" y="16"/>
      <point x="108" y="87" type="curve" smooth="yes"/>
      <point x="108" y="269" type="line"/>
      <point x="272" y="269" type="line"/>
      <point x="243" y="243"/>
      <point x="227" y="200"/>
      <point x="227" y="146" type="curve" smooth="yes"/>
      <point x="227" y="42"/>
      <point x="259" y="-10"/>
    </contour>
    <contour>
      <point x="320" y="5" type="curve" smooth="yes"/>
      <point x="277" y="5"/>
      <point x="255" y="54"/>
      <point x="255" y="147" type="curve" smooth="yes"/>
      <point x="255" y="242"/>
      <point x="293" y="285"/>
      <point x="368" y="290" type="curve" smooth="yes"/>
      <point x="414" y="293" type="line"/>
      <point x="414" y="205" type="line" smooth="yes"/>
      <point x="414" y="74"/>
      <point x="379" y="5"/>
    </contour>
  </outline>
</glyph>
<glyph name="uniA673" format="2">
  <advance width="333"/>
  <unicode hex="A673"/>
  <outline>
    <contour>
      <point x="165" y="302" type="line"/>
      <point x="212" y="436" type="line"/>
      <point x="309" y="436" type="line"/>
      <point x="261" y="575" type="line"/>
      <point x="309" y="714" type="line"/>
      <point x="212" y="714" type="line"/>
      <point x="165" y="848" type="line"/>
      <point x="120" y="714" type="line"/>
      <point x="23" y="714" type="line"/>
      <point x="72" y="575" type="line"/>
      <point x="23" y="436" type="line"/>
      <point x="120" y="436" type="line"/>
    </contour>
    <contour>
      <point x="166" y="349" type="line"/>
      <point x="133" y="456" type="line"/>
      <point x="50" y="456" type="line"/>
      <point x="87" y="575" type="line"/>
      <point x="50" y="694" type="line"/>
      <point x="134" y="694" type="line"/>
      <point x="165" y="801" type="line"/>
      <point x="198" y="694" type="line"/>
      <point x="283" y="694" type="line"/>
      <point x="244" y="575" type="line"/>
      <point x="283" y="456" type="line"/>
      <point x="199" y="456" type="line"/>
    </contour>
  </outline>
</glyph>
<glyph name="uniA683" format="2">
  <advance width="275"/>
  <unicode hex="A683"/>
  <outline>
    <contour>
      <point x="127" y="-240" type="curve" smooth="yes"/>
      <point x="201" y="-240"/>
      <point x="244" y="-175"/>
      <point x="244" y="-41" type="curve" smooth="yes"/>
      <point x="244" y="61"/>
      <point x="232" y="113"/>
      <point x="159" y="192" type="curve" smooth="yes"/>
      <point x="106" y="250"/>
      <point x="66" y="308"/>
      <point x="66" y="381" type="curve" smooth="yes"/>
      <point x="66" y="471"/>
      <point x="95" y="533"/>
      <point x="145" y="533" type="curve" smooth="yes"/>
      <point x="186" y="533"/>
      <point x="216" y="486"/>
      <point x="216" y="390" type="curve"/>
      <point x="216" y="390"/>
      <point x="237" y="398"/>
      <point x="237" y="440" type="curve" smooth="yes"/>
      <point x="237" y="494"/>
      <point x="194" y="543"/>
      <point x="145" y="543" type="curve" smooth="yes"/>
      <point x="83" y="543"/>
      <point x="38" y="473"/>
      <point x="38" y="391" type="curve" smooth="yes"/>
      <point x="38" y="285"/>
      <point x="97" y="221"/>
      <point x="140" y="169" type="curve" smooth="yes"/>
      <point x="189" y="113"/>
      <point x="216" y="66"/>
      <point x="216" y="-33" type="curve" smooth="yes"/>
      <point x="216" y="-163"/>
      <point x="189" y="-230"/>
      <point x="127" y="-230" type="curve" smooth="yes"/>
      <point x="86" y="-230"/>
      <point x="53" y="-199"/>
      <point x="53" y="-80" type="curve"/>
      <point x="45" y="-80"/>
      <point x="31" y="-95"/>
      <point x="31" y="-134" type="curve" smooth="yes"/>
      <point x="31" y="-186"/>
      <point x="62" y="-240"/>
    </contour>
  </outline>
</glyph>
<glyph name="uniA68F" format="2">
  <advance width="389"/>
  <unicode hex="A68F"/>
  <outline>
    <contour>
      <point x="145" y="-240" type="curve" smooth="yes"/>
      <point x="289" y="-240" type="line" smooth="yes"/>
      <point x="366" y="-240"/>
      <point x="386" y="-187"/>
      <point x="386" y="-114" type="curve" smooth="yes"/>
      <point x="386" y="-49"/>
      <point x="356" y="-14"/>
      <point x="332" y="4" type="curve" smooth="yes"/>
      <point x="307" y="18"/>
      <point x="298" y="29"/>
      <point x="298" y="51" type="curve" smooth="yes"/>
      <point x="298" y="449" type="line" smooth="yes"/>
      <point x="298" y="519"/>
      <point x="303" y="526"/>
      <point x="364" y="526" type="curve" smooth="yes"/>
      <point x="362" y="526" type="line"/>
      <point x="362" y="536" type="line"/>
      <point x="208" y="536" type="line"/>
      <point x="208" y="526" type="line"/>
      <point x="210" y="526" type="line" smooth="yes"/>
      <point x="264" y="526"/>
      <point x="270" y="519"/>
      <point x="270" y="449" type="curve" smooth="yes"/>
      <point x="270" y="10" type="line"/>
      <point x="108" y="10" type="line"/>
      <point x="108" y="449" type="line" smooth="yes"/>
      <point x="108" y="521"/>
      <point x="113" y="526"/>
      <point x="175" y="526" type="curve" smooth="yes"/>
      <point x="168" y="526" type="line"/>
      <point x="168" y="536" type="line"/>
      <point x="14" y="536" type="line"/>
      <point x="14" y="526" type="line"/>
      <point x="19" y="526" type="line" smooth="yes"/>
      <point x="73" y="526"/>
      <point x="80" y="521"/>
      <point x="80" y="449" type="curve" smooth="yes"/>
      <point x="80" y="87" type="line" smooth="yes"/>
      <point x="80" y="17"/>
      <point x="73" y="10"/>
      <point x="19" y="10" type="curve" smooth="yes"/>
      <point x="14" y="10" type="line"/>
      <point x="14" y="0" type="line"/>
      <point x="237" y="0" type="line" smooth="yes"/>
      <point x="342" y="0"/>
      <point x="371" y="-40"/>
      <point x="371" y="-114" type="curve" smooth="yes"/>
      <point x="371" y="-196"/>
      <point x="353" y="-230"/>
      <point x="281" y="-230" type="curve" smooth="yes"/>
      <point x="142" y="-230" type="line" smooth="yes"/>
      <point x="93" y="-230"/>
      <point x="65" y="-206"/>
      <point x="65" y="-164" type="curve" smooth="yes"/>
      <point x="65" y="-125"/>
      <point x="93" y="-103"/>
      <point x="142" y="-103" type="curve" smooth="yes"/>
      <point x="250" y="-103" type="line"/>
      <point x="250" y="-93" type="line"/>
      <point x="144" y="-93" type="line" smooth="yes"/>
      <point x="89" y="-93"/>
      <point x="55" y="-119"/>
      <point x="55" y="-164" type="curve" smooth="yes"/>
      <point x="55" y="-213"/>
      <point x="89" y="-240"/>
    </contour>
  </outline>
</glyph>
<glyph name="uniA697" format="2">
  <advance width="541"/>
  <unicode hex="A697"/>
  <outline>
    <contour>
      <point x="246" y="-240" type="curve" smooth="yes"/>
      <point x="467" y="-240" type="line" smooth="yes"/>
      <point x="527" y="-240"/>
      <point x="556" y="-192"/>
      <point x="556" y="-114" type="curve" smooth="yes"/>
      <point x="556" y="-39"/>
      <point x="517" y="-9"/>
      <point x="497" y="4" type="curve" smooth="yes"/>
      <point x="479" y="13"/>
      <point x="470" y="29"/>
      <point x="470" y="51" type="curve" smooth="yes"/>
      <point x="470" y="449" type="line" smooth="yes"/>
      <point x="470" y="519"/>
      <point x="475" y="526"/>
      <point x="535" y="526" type="curve" smooth="yes"/>
      <point x="535" y="526" type="line"/>
      <point x="535" y="536" type="line"/>
      <point x="380" y="536" type="line"/>
      <point x="380" y="526" type="line"/>
      <point x="381" y="526" type="line" smooth="yes"/>
      <point x="435" y="526"/>
      <point x="442" y="519"/>
      <point x="442" y="449" type="curve" smooth="yes"/>
      <point x="442" y="10" type="line"/>
      <point x="289" y="10" type="line"/>
      <point x="289" y="449" type="line" smooth="yes"/>
      <point x="289" y="519"/>
      <point x="294" y="526"/>
      <point x="354" y="526" type="curve" smooth="yes"/>
      <point x="351" y="526" type="line"/>
      <point x="351" y="536" type="line"/>
      <point x="204" y="536" type="line"/>
      <point x="204" y="526" type="line"/>
      <point x="200" y="526" type="line" smooth="yes"/>
      <point x="254" y="526"/>
      <point x="261" y="519"/>
      <point x="261" y="449" type="curve" smooth="yes"/>
      <point x="261" y="10" type="line"/>
      <point x="108" y="10" type="line"/>
      <point x="108" y="449" type="line" smooth="yes"/>
      <point x="108" y="521"/>
      <point x="113" y="526"/>
      <point x="175" y="526" type="curve" smooth="yes"/>
      <point x="170" y="526" type="line"/>
      <point x="170" y="536" type="line"/>
      <point x="14" y="536" type="line"/>
      <point x="14" y="526" type="line"/>
      <point x="19" y="526" type="line" smooth="yes"/>
      <point x="73" y="526"/>
      <point x="80" y="521"/>
      <point x="80" y="449" type="curve" smooth="yes"/>
      <point x="80" y="87" type="line" smooth="yes"/>
      <point x="80" y="17"/>
      <point x="72" y="10"/>
      <point x="19" y="10" type="curve" smooth="yes"/>
      <point x="14" y="10" type="line"/>
      <point x="14" y="0" type="line"/>
      <point x="402" y="0" type="line" smooth="yes"/>
      <point x="507" y="0"/>
      <point x="541" y="-40"/>
      <point x="541" y="-114" type="curve" smooth="yes"/>
      <point x="541" y="-201"/>
      <point x="514" y="-230"/>
      <point x="459" y="-230" type="curve" smooth="yes"/>
      <point x="243" y="-230" type="line" smooth="yes"/>
      <point x="194" y="-230"/>
      <point x="166" y="-206"/>
      <point x="166" y="-164" type="curve" smooth="yes"/>
      <point x="166" y="-125"/>
      <point x="194" y="-103"/>
      <point x="243" y="-103" type="curve" smooth="yes"/>
      <point x="409" y="-103" type="line"/>
      <point x="409" y="-93" type="line"/>
      <point x="245" y="-93" type="line" smooth="yes"/>
      <point x="190" y="-93"/>
      <point x="156" y="-119"/>
      <point x="156" y="-164" type="curve" smooth="yes"/>
      <point x="156" y="-213"/>
      <point x="190" y="-240"/>
    </contour>
  </outline>
</glyph>
<glyph name="uniA69B" format="2">
  <advance width="357"/>
  <unicode hex="A69B"/>
  <outline>
    <contour>
      <point x="181" y="-10" type="curve" smooth="yes"/>
      <point x="259" y="-10"/>
      <point x="324" y="69"/>
      <point x="324" y="267" type="curve" smooth="yes"/>
      <point x="324" y="469"/>
      <point x="244" y="542"/>
      <point x="183" y="542" type="curve" smooth="yes"/>
      <point x="82" y="542"/>
      <point x="37" y="449"/>
      <point x="37" y="267" type="curve" smooth="yes"/>
      <point x="37" y="91"/>
      <point x="78" y="-10"/>
    </contour>
    <contour>
      <point x="172" y="2" type="line"/>
      <point x="106" y="12"/>
      <point x="64" y="101"/>
      <point x="65" y="275" type="curve"/>
      <point x="172" y="275" type="line"/>
    </contour>
    <contour>
      <point x="182" y="0" type="curve"/>
      <point x="182" y="275" type="line"/>
      <point x="296" y="275" type="line"/>
      <point x="296" y="84"/>
      <point x="238" y="4"/>
    </contour>
    <contour>
      <point x="65" y="285" type="line"/>
      <point x="69" y="427"/>
      <point x="101" y="522"/>
      <point x="172" y="530" type="curve"/>
      <point x="172" y="285" type="line"/>
    </contour>
    <contour>
      <point x="182" y="285" type="line"/>
      <point x="182" y="532" type="line"/>
      <point x="229" y="525"/>
      <point x="289" y="450"/>
      <point x="296" y="285" type="curve"/>
    </contour>
  </outline>
</glyph>
<glyph name="uniA718" format="2">
  <advance width="256"/>
  <unicode hex="A718"/>
  <outline>
    <contour>
      <point x="73" y="569" type="line"/>
      <point x="216" y="785" type="line"/>
      <point x="200" y="798" type="line"/>
      <point x="57" y="581" type="line"/>
    </contour>
    <contour>
      <point x="57" y="774" type="curve" smooth="yes"/>
      <point x="76" y="774"/>
      <point x="84" y="787"/>
      <point x="84" y="808" type="curve" smooth="yes"/>
      <point x="84" y="832"/>
      <point x="76" y="844"/>
      <point x="57" y="844" type="curve" smooth="yes"/>
      <point x="37" y="844"/>
      <point x="31" y="832"/>
      <point x="31" y="808" type="curve" smooth="yes"/>
      <point x="31" y="787"/>
      <point x="37" y="774"/>
    </contour>
  </outline>
</glyph>
<glyph name="uniA719" format="2">
  <advance width="261"/>
  <unicode hex="A719"/>
  <outline>
    <contour>
      <point x="40" y="614" type="line"/>
      <point x="221" y="614" type="line"/>
      <point x="221" y="634" type="line"/>
      <point x="40" y="634" type="line"/>
    </contour>
    <contour>
      <point x="130" y="773" type="curve" smooth="yes"/>
      <point x="149" y="773"/>
      <point x="157" y="786"/>
      <point x="157" y="806" type="curve" smooth="yes"/>
      <point x="157" y="830"/>
      <point x="149" y="843"/>
      <point x="130" y="843" type="curve" smooth="yes"/>
      <point x="111" y="843"/>
      <point x="105" y="830"/>
      <point x="105" y="806" type="curve" smooth="yes"/>
      <point x="105" y="786"/>
      <point x="111" y="773"/>
    </contour>
  </outline>
</glyph>
<glyph name="uniA72C" format="2">
  <advance width="317"/>
  <unicode hex="A72C"/>
  <outline>
    <contour>
      <point x="168" y="-10" type="curve" smooth="yes"/>
      <point x="219" y="-10"/>
      <point x="243" y="47"/>
      <point x="243" y="186" type="curve" smooth="yes"/>
      <point x="243" y="714" type="line"/>
      <point x="225" y="714" type="line"/>
      <point x="13" y="252" type="line"/>
      <point x="13" y="245" type="line"/>
      <point x="215" y="245" type="line"/>
      <point x="215" y="180" type="line" smooth="yes"/>
      <point x="215" y="54"/>
      <point x="202" y="0"/>
      <point x="164" y="0" type="curve" smooth="yes"/>
      <point x="120" y="0"/>
      <point x="127" y="65"/>
      <point x="127" y="90" type="curve"/>
      <point x="109" y="89"/>
      <point x="108" y="67"/>
      <point x="108" y="58" type="curve" smooth="yes"/>
      <point x="108" y="17"/>
      <point x="136" y="-10"/>
    </contour>
    <contour>
      <point x="29" y="260" type="line"/>
      <point x="166" y="550" type="line" smooth="yes"/>
      <point x="178" y="585"/>
      <point x="197" y="635"/>
      <point x="218" y="683" type="curve"/>
      <point x="217" y="601"/>
      <point x="215" y="489"/>
      <point x="215" y="424" type="curve" smooth="yes"/>
      <point x="215" y="260" type="line"/>
    </contour>
  </outline>
</glyph>
